<svg id="achievement_1_" data-name="achievement (1)" xmlns="http://www.w3.org/2000/svg" width="48" height="48" viewBox="0 0 48 48">
  <defs>
    <style>
      .cls-1 {
        fill: #fff;
      }
    </style>
  </defs>
  <g id="C14_x2C__Achievements_x2C__analysis_x2C__performance_x2C__positions" transform="translate(0)">
    <g id="Group_704" data-name="Group 704">
      <path id="Path_358" data-name="Path 358" class="cls-1" d="M26.368,338.821h10.7v14.272h-10.7Z" transform="translate(-26.368 -305.094)"/>
      <path id="Path_359" data-name="Path 359" class="cls-1" d="M41.247,195.766,40.51,198.2l2.091-1.455a.595.595,0,0,1,.679,0l2.091,1.455-.738-2.438a.6.6,0,0,1,.21-.646l2.03-1.539-2.547-.052a.6.6,0,0,1-.55-.4l-.836-2.406-.836,2.406a.6.6,0,0,1-.55.4l-2.547.052,2.03,1.539A.6.6,0,0,1,41.247,195.766Z" transform="translate(-37.588 -171.371)"/>
      <path id="Path_360" data-name="Path 360" class="cls-1" d="M185.3,264.651h10.7v22.6H185.3Z" transform="translate(-166.656 -239.249)"/>
      <path id="Path_361" data-name="Path 361" class="cls-1" d="M200.184,121.6l-.738,2.438,2.091-1.455a.595.595,0,0,1,.679,0l2.091,1.455-.738-2.439a.6.6,0,0,1,.21-.646l2.03-1.539-2.547-.052a.594.594,0,0,1-.55-.4l-.836-2.406-.836,2.406a.6.6,0,0,1-.55.4l-2.547.052,2.03,1.539A.6.6,0,0,1,200.184,121.6Z" transform="translate(-177.877 -104.727)"/>
      <path id="Path_362" data-name="Path 362" class="cls-1" d="M359.122,5.043l-.738,2.439,2.091-1.455a.594.594,0,0,1,.679,0l2.091,1.455-.738-2.439a.6.6,0,0,1,.21-.646l2.03-1.539L362.2,2.806a.594.594,0,0,1-.55-.4L360.815,0l-.836,2.406a.6.6,0,0,1-.55.4l-2.547.052,2.03,1.539a.6.6,0,0,1,.21.646Z" transform="translate(-318.167 0)"/>
      <path id="Path_363" data-name="Path 363" class="cls-1" d="M344.24,148.1v35.681h10.7V148.1Zm7.136,27.95a.595.595,0,1,1-1.189,0V155.829a.595.595,0,1,1,1.189,0Z" transform="translate(-306.944 -135.779)"/>
    </g>
  </g>
</svg>
