<svg id="badge" xmlns="http://www.w3.org/2000/svg" width="38.049" height="48.001" viewBox="0 0 38.049 48.001">
  <defs>
    <style>
      .cls-1 {
        fill: #0e497b;
      }
    </style>
  </defs>
  <g id="Group_705" data-name="Group 705">
    <path id="Path_364" data-name="Path 364" class="cls-1" d="M90.513,19.71a3.71,3.71,0,0,0-.427-4.611,2.318,2.318,0,0,1-.593-2.083,3.709,3.709,0,0,0-2.064-4.145,2.318,2.318,0,0,1-1.305-1.728A3.71,3.71,0,0,0,82.7,4.023a2.318,2.318,0,0,1-1.842-1.14A3.71,3.71,0,0,0,76.542,1.21a2.318,2.318,0,0,1-2.129-.4,3.71,3.71,0,0,0-4.63,0,2.317,2.317,0,0,1-2.129.4,3.71,3.71,0,0,0-4.318,1.673,2.317,2.317,0,0,1-1.841,1.14,3.71,3.71,0,0,0-3.422,3.12,2.317,2.317,0,0,1-1.305,1.728A3.71,3.71,0,0,0,54.7,13.016a2.318,2.318,0,0,1-.593,2.083,3.71,3.71,0,0,0-.427,4.611,2.317,2.317,0,0,1,.2,2.157,3.71,3.71,0,0,0,1.267,4.454,2.317,2.317,0,0,1,.965,1.939,3.71,3.71,0,0,0,2.79,3.7,2.317,2.317,0,0,1,1.239.809l-3.874,9.353a1.677,1.677,0,0,0,2.041,2.244l4.241-1.3a.271.271,0,0,1,.318.132l2.079,3.92a1.677,1.677,0,0,0,3.03-.144l4.038-9.748q.079,0,.159,0l4.038,9.748a1.677,1.677,0,0,0,3.03.144l2.079-3.92a.271.271,0,0,1,.318-.132l4.241,1.3a1.677,1.677,0,0,0,2.041-2.244l-3.874-9.353a2.317,2.317,0,0,1,1.239-.809,3.71,3.71,0,0,0,2.791-3.7,2.317,2.317,0,0,1,.965-1.939,3.71,3.71,0,0,0,1.267-4.454,2.319,2.319,0,0,1,.2-2.157ZM66.682,46.428a.27.27,0,0,1-.489.023l-2.079-3.92a1.679,1.679,0,0,0-1.973-.817l-4.241,1.3a.27.27,0,0,1-.329-.362l3.437-8.3a3.708,3.708,0,0,0,3.437,1.495,2.318,2.318,0,0,1,2.02.782,3.7,3.7,0,0,0,3.8,1.149ZM86.3,43.016l-4.241-1.3a1.679,1.679,0,0,0-1.973.817L78,46.451a.27.27,0,0,1-.489-.023l-3.581-8.645a3.707,3.707,0,0,0,3.8-1.15,2.317,2.317,0,0,1,2.02-.782,3.706,3.706,0,0,0,3.437-1.495l3.437,8.3a.27.27,0,0,1-.329.362Zm3.038-24.075a3.723,3.723,0,0,0-.321,3.464,2.309,2.309,0,0,1-.789,2.772,3.723,3.723,0,0,0-1.551,3.114,2.309,2.309,0,0,1-1.737,2.3,3.722,3.722,0,0,0-2.3,1.756l0,.007a3.724,3.724,0,0,0-.268.581,2.308,2.308,0,0,1-2.451,1.518,3.722,3.722,0,0,0-3.244,1.257,2.31,2.31,0,0,1-2.834.53,3.721,3.721,0,0,0-1.023-.361l-.009,0a3.719,3.719,0,0,0-1.417,0h0a3.726,3.726,0,0,0-1.025.361,2.309,2.309,0,0,1-2.833-.53,3.723,3.723,0,0,0-3.244-1.257,2.309,2.309,0,0,1-2.451-1.518,3.729,3.729,0,0,0-.268-.58l0-.009a3.722,3.722,0,0,0-2.3-1.755,2.309,2.309,0,0,1-1.737-2.3,3.723,3.723,0,0,0-1.551-3.115,2.309,2.309,0,0,1-.789-2.773,3.723,3.723,0,0,0-.321-3.464,2.309,2.309,0,0,1,.266-2.87,3.723,3.723,0,0,0,.952-3.346,2.309,2.309,0,0,1,1.285-2.58,3.723,3.723,0,0,0,2.1-2.776,2.309,2.309,0,0,1,2.13-1.942A3.722,3.722,0,0,0,64.55,3.594a2.31,2.31,0,0,1,2.688-1.041,3.723,3.723,0,0,0,3.42-.639,2.309,2.309,0,0,1,2.883,0,3.722,3.722,0,0,0,3.42.639,2.309,2.309,0,0,1,2.688,1.041,3.723,3.723,0,0,0,2.958,1.832,2.309,2.309,0,0,1,2.13,1.942,3.723,3.723,0,0,0,2.1,2.777,2.309,2.309,0,0,1,1.285,2.58,3.723,3.723,0,0,0,.952,3.346,2.31,2.31,0,0,1,.266,2.87Z" transform="translate(-53.074 -0.001)"/>
    <path id="Path_365" data-name="Path 365" class="cls-1" d="M107.984,65.615a.7.7,0,0,0,.784-.612,12.63,12.63,0,0,1,25.068.006.7.7,0,0,0,1.4-.171,14.037,14.037,0,0,0-27.859-.007A.7.7,0,0,0,107.984,65.615Z" transform="translate(-102.276 -47.603)"/>
    <path id="Path_366" data-name="Path 366" class="cls-1" d="M134.617,212.21a.7.7,0,0,0-.783.612,12.63,12.63,0,0,1-25.068.006.7.7,0,0,0-1.4.172,14.037,14.037,0,0,0,27.859-.006A.7.7,0,0,0,134.617,212.21Z" transform="translate(-102.274 -192.31)"/>
    <path id="Path_367" data-name="Path 367" class="cls-1" d="M169.3,101.554a1.348,1.348,0,0,0-1.245-.939l-5.513-.2-1.892-5.182a1.361,1.361,0,0,0-2.557,0l-1.892,5.182-5.513.2a1.361,1.361,0,0,0-.79,2.432l4.344,3.4-1.515,5.3a1.361,1.361,0,0,0,2.068,1.5l4.576-3.08,4.576,3.08a1.361,1.361,0,0,0,2.068-1.5l-1.515-5.3,4.344-3.4a1.348,1.348,0,0,0,.456-1.492Zm-5.69,3.8a1.355,1.355,0,0,0-.47,1.446l1.49,5.214-4.5-3.028a1.355,1.355,0,0,0-1.52,0l-4.5,3.028,1.49-5.214a1.356,1.356,0,0,0-.47-1.446l-4.27-3.343,5.419-.194a1.355,1.355,0,0,0,1.23-.893l1.86-5.094,1.86,5.094a1.355,1.355,0,0,0,1.23.893l5.419.194Z" transform="translate(-140.346 -85.497)"/>
  </g>
</svg>
