<svg id="statistics_1_" data-name="statistics (1)" xmlns="http://www.w3.org/2000/svg" width="60.516" height="60.516" viewBox="0 0 60.516 60.516">
  <defs>
    <style>
      .cls-1 {
        fill: #0e497b;
      }
    </style>
  </defs>
  <path id="Path_435" data-name="Path 435" class="cls-1" d="M56.347,232a8.347,8.347,0,1,0,6.607,13.434,15.547,15.547,0,0,1,1.714-4.473c.014-.2.026-.408.026-.614A8.357,8.357,0,0,0,56.347,232Zm-5.219,11.8a6.255,6.255,0,0,1,8.669-8.669l-1.153,1.74a4.167,4.167,0,0,0-5.776,5.775Zm5.219,2.81a6.247,6.247,0,0,1-3.451-1.041l1.153-1.74a4.167,4.167,0,0,0,5.776-5.775l1.74-1.153a6.254,6.254,0,0,1-5.219,9.71Zm0,0" transform="translate(-41.74 -201.742)"/>
  <path id="Path_436" data-name="Path 436" class="cls-1" d="M20.869,206.926a10.418,10.418,0,1,1,3.97-10.354,15.642,15.642,0,0,1,1.7-1.661,12.354,12.354,0,0,0-1.069-2.516l-.333-.581,1.391-1.947-3.177-3.177L21.4,188.082l-.581-.333a12.36,12.36,0,0,0-2.927-1.209l-.646-.175L16.853,184H12.361l-.394,2.363-.646.175a12.422,12.422,0,0,0-2.927,1.209l-.581.333L5.866,186.69l-3.177,3.177,1.391,1.947-.333.581a12.361,12.361,0,0,0-1.209,2.927l-.174.646L0,196.362v4.491l2.363.394.175.646a12.423,12.423,0,0,0,1.209,2.927l.333.581L2.69,207.348l3.177,3.177,1.947-1.391.581.333a12.361,12.361,0,0,0,2.927,1.209l.646.175.394,2.362h4.491l.394-2.363.646-.175a12.421,12.421,0,0,0,2.927-1.209l.247-.142a15.485,15.485,0,0,1-.2-2.371c0-.009,0-.019,0-.028Zm0,0" transform="translate(0 -160.002)"/>
  <path id="Path_437" data-name="Path 437" class="cls-1" d="M189.564,256a13.564,13.564,0,1,0,13.564,13.564A13.58,13.58,0,0,0,189.564,256Zm0,25.041a11.475,11.475,0,0,1-8.884-18.74l1.614,1.323a9.4,9.4,0,0,0-2.055,4.9h2.021v2.087h-2.025a9.4,9.4,0,0,0,8.285,8.285v-2.025h2.087v2.021a9.393,9.393,0,0,0,4.9-2.055l1.323,1.615A11.5,11.5,0,0,1,189.564,281.041Zm3.13-12.52v2.087H188.52v-6.26h2.087v4.174Zm5.754,8.306-1.614-1.323a9.4,9.4,0,0,0,2.055-4.9h-2.021v-2.087h2.025a9.4,9.4,0,0,0-8.285-8.285v2.025H188.52v-2.021a9.392,9.392,0,0,0-4.9,2.055l-1.323-1.614a11.475,11.475,0,0,1,16.147,16.147Zm0,0" transform="translate(-153.046 -222.612)"/>
  <path id="Path_438" data-name="Path 438" class="cls-1" d="M54.255,0V2.087h2.7L51.125,7.915,48,4.785,43.076,9.7a3.08,3.08,0,0,0-1.341-.314,3.134,3.134,0,0,0-3.13,3.13A3.094,3.094,0,0,0,39,14l-5.454,6.06a3.114,3.114,0,0,0-1.2-.24c-.02,0-.038.005-.058.005l-4.2-11.188A3.124,3.124,0,1,0,22.954,6.26a3.076,3.076,0,0,0,.089.71L16.51,12.139a3.1,3.1,0,0,0-4.841,1.424h-5.6a3.13,3.13,0,1,0,0,2.087h5.6a3.122,3.122,0,0,0,6.068-1.043,3.076,3.076,0,0,0-.089-.71l6.532-5.169a3.1,3.1,0,0,0,1.9.662c.02,0,.038-.005.058-.005l4.2,11.188a3.136,3.136,0,1,0,4.746.9l5.454-6.06a3.127,3.127,0,0,0,4.328-2.89,3.08,3.08,0,0,0-.314-1.341L48,7.736l3.13,3.13,7.3-7.3v2.7h2.087V0ZM3.13,15.651a1.043,1.043,0,1,1,1.043-1.043A1.044,1.044,0,0,1,3.13,15.651Zm11.477,0a1.043,1.043,0,1,1,1.043-1.043A1.044,1.044,0,0,1,14.607,15.651ZM25.041,6.26A1.043,1.043,0,1,1,26.084,7.3,1.044,1.044,0,0,1,25.041,6.26ZM32.344,24a1.043,1.043,0,1,1,1.043-1.043A1.044,1.044,0,0,1,32.344,24Zm9.39-10.434a1.043,1.043,0,1,1,1.043-1.043A1.044,1.044,0,0,1,41.735,13.564Zm0,0" transform="translate(0 0)"/>
  <path id="Path_439" data-name="Path 439" class="cls-1" d="M304,176v8.661a15.539,15.539,0,0,1,4.173,1.5V176Zm0,0" transform="translate(-264.352 -153.046)"/>
  <path id="Path_440" data-name="Path 440" class="cls-1" d="M240,215.992v4.04a15.545,15.545,0,0,1,4.174-.857v-3.183Zm0,0" transform="translate(-208.699 -187.822)"/>
  <path id="Path_441" data-name="Path 441" class="cls-1" d="M368,154.6a15.583,15.583,0,0,1,4.124,9.572h.05V136H368Zm0,0" transform="translate(-320.005 -118.262)"/>
  <path id="Path_442" data-name="Path 442" class="cls-1" d="M432,72h4.173v36.518H432Zm0,0" transform="translate(-375.658 -62.61)"/>
</svg>
