<svg id="flexible" xmlns="http://www.w3.org/2000/svg" width="48.783" height="49.415" viewBox="0 0 48.783 49.415">
  <defs>
    <style>
      .cls-1 {
        fill: #0e497b;
      }
    </style>
  </defs>
  <path id="Path_368" data-name="Path 368" class="cls-1" d="M15.374,45.08l-1.58,1.58a2.277,2.277,0,0,0-2.022,0L9.406,44.293,8.293,45.406l2.367,2.367a2.322,2.322,0,0,0-.237,1.011,2.36,2.36,0,0,0,4.721,0,2.322,2.322,0,0,0-.237-1.011l1.58-1.58Zm-2.591,4.49a.787.787,0,1,1,.787-.787A.788.788,0,0,1,12.783,49.57Z" transform="translate(-2.555 -10.229)"/>
  <path id="Path_369" data-name="Path 369" class="cls-1" d="M48.209,16.736H44.784A21.181,21.181,0,0,0,19.468,5L16.791,2.325,15.328,3.794a.993.993,0,0,1-1.109.156.957.957,0,0,1-.629-.873V1H8.868V3.076a.975.975,0,0,1-.663.888.975.975,0,0,1-1.076-.17L5.667,2.325,2.325,5.667,3.794,7.129A.991.991,0,0,1,3.95,8.239a.957.957,0,0,1-.873.629H1v4.721H3.076a.975.975,0,0,1,.888.663.973.973,0,0,1-.17,1.076L2.325,16.79,5,19.467a20.989,20.989,0,0,0,.033,11.967A10.216,10.216,0,1,0,19.35,45.748a21.184,21.184,0,0,0,21.566-5.855l-1.15-1.074a19.612,19.612,0,0,1-19.517,5.549,10.163,10.163,0,0,0,1.035-2.979,16.477,16.477,0,0,0,18.175-7.343h2.456v9.442H38.084L42.7,50.415l4.618-6.926H43.488V34.047h4.721a1.575,1.575,0,0,0,1.574-1.574V18.31a1.575,1.575,0,0,0-1.574-1.574ZM42.7,47.578l-1.677-2.515h3.354Zm.351-30.841H39.459a16.5,16.5,0,0,0-18-7.391V8.868H19.381a.975.975,0,0,1-.888-.663.973.973,0,0,1,.17-1.076l.345-.344a19.663,19.663,0,0,1,24.044,9.95ZM5.4,13.617a2.536,2.536,0,0,0-2.327-1.6h-.5V10.442h.5A2.548,2.548,0,0,0,5.415,8.815a2.541,2.541,0,0,0-.51-2.8l-.352-.349L5.665,4.553l.349.351a2.55,2.55,0,0,0,2.826.5,2.534,2.534,0,0,0,1.6-2.327v-.5h1.574v.5a2.548,2.548,0,0,0,1.627,2.338,2.539,2.539,0,0,0,2.8-.51l.349-.351L17.9,5.666l-.351.349a2.55,2.55,0,0,0-.5,2.826,2.533,2.533,0,0,0,2.326,1.6h.5v1.574h-.5a2.512,2.512,0,0,0-2.273,1.479l-.065.148a2.541,2.541,0,0,0,.51,2.8l.351.349L16.792,17.9l-.349-.351a2.631,2.631,0,0,0-4.427,1.827v.5H10.442v-.5a2.548,2.548,0,0,0-1.627-2.338,2.54,2.54,0,0,0-2.8.51l-.349.351L4.553,16.792l.351-.349a2.547,2.547,0,0,0,.5-2.825ZM30.02,21.457h.092a.787.787,0,1,1,0,1.574h-.289Zm.71-1.984-.153.457a2.391,2.391,0,0,0-.363-.037l0-.01H27.062a3.363,3.363,0,0,1-3.268-2.552l-1.526.382a4.958,4.958,0,0,0,.638,1.471,8.624,8.624,0,0,1-1.448.656l-.128.043h-.659a2.327,2.327,0,0,0-.466.047l-.153-.458a3.274,3.274,0,0,1,3.106-4.31h4.466a3.274,3.274,0,0,1,3.106,4.311Zm1.742,19.067a15,15,0,0,1-4.135,1.505L27,33.371l.178-.356,1.7,1.7L30.2,30.776a6.821,6.821,0,0,1,2.276,5.065ZM22.919,29.41l1.238.825L22.587,31.8l-.658-1.973A6.876,6.876,0,0,1,22.919,29.41Zm2.172,3.063-.316-.632.616-.616.616.616-.316.632Zm3.1-.67-1.569-1.569,1.243-.829a6.746,6.746,0,0,1,.982.427Zm-1.379-3.586-1.424.949-1.424-.95.161-.484c.067,0,.131.019.2.019h2.127c.068,0,.132-.014.2-.019Zm-.36-2.039H24.329A1.577,1.577,0,0,1,22.767,24.8l-.45-3.6A10.151,10.151,0,0,0,24,20.39a4.93,4.93,0,0,0,3.066,1.068h1.372L28.016,24.8A1.576,1.576,0,0,1,26.455,26.178Zm-5.785-4.721h.092l.2,1.574h-.289a.787.787,0,0,1,0-1.574Zm-2.112-1.486.271.814a2.347,2.347,0,0,0,1.841,3.82h.485l.049.39a3.142,3.142,0,0,0,1.427,2.252l-.22.661a8.3,8.3,0,0,0-4.6,3.832,10.183,10.183,0,0,0-6.586-2.414c-.084,0-.165.01-.249.013a14.746,14.746,0,0,1,0-7.881h2.613V19.381a1.062,1.062,0,0,1,1.738-.718l1.463,1.469L18.323,18.6a4.833,4.833,0,0,0,.236,1.371Zm1.285,20.37a8.618,8.618,0,0,1-1.968,4.748l-1.083-1.083L15.68,45.118,16.763,46.2a8.61,8.61,0,0,1-4.748,1.968V46.636H10.442v1.534A8.618,8.618,0,0,1,5.694,46.2l1.083-1.083L5.665,44.005,4.582,45.089a8.613,8.613,0,0,1-1.968-4.748H4.147V38.768H2.614A8.618,8.618,0,0,1,4.582,34.02L5.665,35.1l1.113-1.113L5.694,32.907a8.61,8.61,0,0,1,4.748-1.968v1.534h1.574V30.939a8.618,8.618,0,0,1,4.748,1.968L15.68,33.991,16.792,35.1l1.083-1.083a8.61,8.61,0,0,1,1.968,4.748H18.31v1.574ZM5.721,25.392a19.618,19.618,0,0,1,1.066-6.384l.342-.344a.992.992,0,0,1,1.109-.156.956.956,0,0,1,.629.873v2.076h.478A16.39,16.39,0,0,0,9.393,29.5a10.163,10.163,0,0,0-2.979,1.035,19.7,19.7,0,0,1-.693-5.143Zm13.266,7.514a6.767,6.767,0,0,1,1.6-2.146L21.9,34.715l1.7-1.7.178.356-1.334,6.67q-.505-.1-1-.237c0-.083.012-.164.012-.248A10.178,10.178,0,0,0,18.987,32.906Zm5.018,7.365,1.245-6.224h.284l1.244,6.221c-.46.043-.921.073-1.386.073S24.465,40.313,24.005,40.27Zm10.041-2.707V35.841a8.419,8.419,0,0,0-5.675-7.932l-.22-.662a3.142,3.142,0,0,0,1.427-2.252l.049-.39h.485a2.363,2.363,0,0,0,2.36-2.36,2.337,2.337,0,0,0-.52-1.46l.271-.813a4.85,4.85,0,0,0-4.6-6.383H23.159a4.847,4.847,0,0,0-4.047,2.185l-.448-.446a.975.975,0,0,1-.171-1.074l.038-.087a.957.957,0,0,1,.851-.578h2.076V10.976a14.9,14.9,0,0,1,16.115,5.76h-.378A1.575,1.575,0,0,0,35.62,18.31V32.473a1.575,1.575,0,0,0,1.574,1.574h.378a14.973,14.973,0,0,1-3.526,3.516Zm3.147-5.09V18.31H48.209V32.473Z" transform="translate(-1 -1)"/>
  <path id="Path_370" data-name="Path 370" class="cls-1" d="M49,25h7.868v1.574H49Z" transform="translate(-11.232 -6.116)"/>
  <path id="Path_371" data-name="Path 371" class="cls-1" d="M49,29h7.868v1.574H49Z" transform="translate(-11.232 -6.969)"/>
  <path id="Path_372" data-name="Path 372" class="cls-1" d="M49,33h7.868v1.574H49Z" transform="translate(-11.232 -7.822)"/>
  <path id="Path_373" data-name="Path 373" class="cls-1" d="M49,37h7.868v1.574H49Z" transform="translate(-11.232 -8.674)"/>
  <path id="Path_374" data-name="Path 374" class="cls-1" d="M13.36,15.721A2.36,2.36,0,1,0,11,13.36,2.363,2.363,0,0,0,13.36,15.721Zm0-3.147a.787.787,0,1,1-.787.787A.788.788,0,0,1,13.36,12.574Z" transform="translate(-3.132 -3.132)"/>
  <path id="Path_375" data-name="Path 375" class="cls-1" d="M12.508,18.016A5.508,5.508,0,1,0,7,12.508,5.514,5.514,0,0,0,12.508,18.016Zm0-9.442a3.934,3.934,0,1,1-3.934,3.934A3.939,3.939,0,0,1,12.508,8.574Z" transform="translate(-2.279 -2.279)"/>
</svg>
