<svg id="money" xmlns="http://www.w3.org/2000/svg" width="48" height="46.51" viewBox="0 0 48 46.51">
  <defs>
    <style>
      .cls-1 {
        fill: #fff;
      }
    </style>
  </defs>
  <path id="Path_399" data-name="Path 399" class="cls-1" d="M268.24,372.42l-6.4.142,3.183,1.973Z" transform="translate(-236.868 -337.117)"/>
  <path id="Path_400" data-name="Path 400" class="cls-1" d="M254.084,371.46l-4.308-2.669,8.658-.193Zm-2.068-2.06,2.059,1.277,2.079-1.368Z" transform="translate(-225.915 -333.631)"/>
  <path id="Path_401" data-name="Path 401" class="cls-1" d="M50.417,294.822a1.854,1.854,0,0,0-2.287-.267l-16.356,10.5a.732.732,0,0,1-.772.011l-5.522-3.342-4.442.094a.727.727,0,0,1-.732-.685.708.708,0,0,1,.7-.715l4.645-.1h.02l9.333-.2a1.636,1.636,0,0,0,1.6-1.471,1.134,1.134,0,0,0,0-.132,1.617,1.617,0,0,0-1.457-1.593l-17.419-1.954a11.847,11.847,0,0,0-5.259.613l-8.918,3.2v9.554l1.021-.867a.725.725,0,0,1,.123-.085,10.071,10.071,0,0,1,4.78-1.205,9.947,9.947,0,0,1,3.035.472l15.459,4.957a3.042,3.042,0,0,0,2.687-.411l19.5-13.785a1.712,1.712,0,0,0,.256-2.6Z" transform="translate(-3.227 -265.58)"/>
  <path id="Path_402" data-name="Path 402" class="cls-1" d="M25.681,308.858a3.4,3.4,0,0,1-1.038-.164L9.189,303.739a9.8,9.8,0,0,0-7.543.707.36.36,0,0,0-.068.046L0,305.833V295.324l9.136-3.285a12.168,12.168,0,0,1,5.413-.631l17.418,1.953a1.949,1.949,0,0,1,1.758,1.922,1.436,1.436,0,0,1-.007.17,1.968,1.968,0,0,1-1.932,1.764l-13.994.3a.376.376,0,0,0-.371.379.418.418,0,0,0,.389.361l4.539-.1,5.605,3.393a.385.385,0,0,0,.406-.006l16.351-10.5a2.2,2.2,0,0,1,2.718.317,2.036,2.036,0,0,1-.3,3.087L27.632,308.238a3.357,3.357,0,0,1-1.951.62Zm-19.42-6.236a10.273,10.273,0,0,1,3.14.488l15.453,4.956a2.689,2.689,0,0,0,2.38-.364l19.494-13.786a1.38,1.38,0,0,0,.589-1,1.394,1.394,0,0,0-.382-1.1,1.5,1.5,0,0,0-1.856-.216L28.732,302.1a1.078,1.078,0,0,1-1.136.015l-5.435-3.291-4.34.092H17.8a1.062,1.062,0,0,1-1.061-1.008,1.044,1.044,0,0,1,1.032-1.052l13.994-.3a1.3,1.3,0,0,0,1.274-1.17.685.685,0,0,0,0-.084,1.288,1.288,0,0,0-1.157-1.284l-17.419-1.954a11.5,11.5,0,0,0-5.1.594L.676,295.784v8.6l.461-.391a1.092,1.092,0,0,1,.182-.124,10.429,10.429,0,0,1,4.942-1.247Z" transform="translate(0 -262.347)"/>
  <path id="Path_403" data-name="Path 403" class="cls-1" d="M358.312,297.332a2.572,2.572,0,0,1-.011.271,2.977,2.977,0,0,1-.136.66L365.1,293.7a2.2,2.2,0,0,0-2.473-.568l-5.138,2.129A2.991,2.991,0,0,1,358.312,297.332Z" transform="translate(-323.183 -265.44)"/>
  <path id="Path_404" data-name="Path 404" class="cls-1" d="M352,295.882l.292-.9a2.658,2.658,0,0,0,.121-.589,2.232,2.232,0,0,0,.01-.242,2.662,2.662,0,0,0-.74-1.837l-.33-.348,5.582-2.31a2.531,2.531,0,0,1,2.846.653l.256.285Zm.462-3.659a3.3,3.3,0,0,1,.622,1.931c0,.073,0,.152-.006.228l5.92-3.894a1.867,1.867,0,0,0-1.811-.221Z" transform="translate(-317.62 -262.228)"/>
  <path id="Path_405" data-name="Path 405" class="cls-1" d="M165.676,44.829a11.2,11.2,0,1,0-11.2-11.2A11.2,11.2,0,0,0,165.676,44.829Zm0-10.325a3.312,3.312,0,0,1-.7-6.551v-.585a.7.7,0,0,1,1.4,0v.584a3.318,3.318,0,0,1,2.614,3.234.7.7,0,0,1-1.4,0,1.914,1.914,0,1,0-1.914,1.914,3.312,3.312,0,0,1,.7,6.551v.232a.7.7,0,1,1-1.4.043c0-.014,0-.029,0-.043v-.232a3.318,3.318,0,0,1-2.614-3.234.7.7,0,1,1,1.4-.043c0,.014,0,.029,0,.043a1.914,1.914,0,1,0,1.914-1.914Z" transform="translate(-139.478 -22.096)"/>
  <path id="Path_406" data-name="Path 406" class="cls-1" d="M162.449,41.931A11.532,11.532,0,1,1,173.98,30.4,11.532,11.532,0,0,1,162.449,41.931Zm0-22.4A10.871,10.871,0,1,0,173.32,30.4a10.871,10.871,0,0,0-10.871-10.871Zm0,18.16a1.032,1.032,0,0,1-1.03-1.006A3.665,3.665,0,0,1,158.8,33.19a1.03,1.03,0,0,1,2.06-.052c0,.017,0,.035,0,.052a1.584,1.584,0,1,0,1.584-1.584,3.642,3.642,0,0,1-1.03-7.137v-.33a1.03,1.03,0,0,1,2.06-.052c0,.017,0,.035,0,.052v.33a3.665,3.665,0,0,1,2.614,3.492,1.03,1.03,0,0,1-2.06,0,1.584,1.584,0,1,0-1.584,1.584,3.642,3.642,0,0,1,1.03,7.136A1.032,1.032,0,0,1,162.449,37.689Zm-2.613-4.869a.37.37,0,0,0-.37.37,3,3,0,0,0,2.353,2.914l.261.056v.5a.37.37,0,0,0,.74,0v-.5l.261-.056a2.982,2.982,0,0,0-.63-5.9,2.244,2.244,0,1,1,2.244-2.244.37.37,0,0,0,.74,0,3,3,0,0,0-2.353-2.914l-.261-.056v-.848a.37.37,0,0,0-.74-.031c0,.01,0,.021,0,.031v.851l-.261.056a2.982,2.982,0,0,0,.63,5.9A2.244,2.244,0,1,1,160.2,33.19a.37.37,0,0,0-.369-.37Z" transform="translate(-136.248 -18.868)"/>
</svg>
