<svg id="SOLID" xmlns="http://www.w3.org/2000/svg" width="65.544" height="65.705" viewBox="0 0 65.544 65.705">
  <defs>
    <style>
      .cls-1 {
        fill: #0e497b;
      }
    </style>
  </defs>
  <path id="Path_456" data-name="Path 456" class="cls-1" d="M52.7,173.739l-2.156-.942a30.617,30.617,0,0,0,6.019,33.462l1.694-1.633A28.264,28.264,0,0,1,52.7,173.739Z" transform="translate(-45.919 -152.151)"/>
  <path id="Path_457" data-name="Path 457" class="cls-1" d="M341.517,42.93h2.294a11.709,11.709,0,0,0-2.6-6.264L340,37.88l-1.664-1.664L339.547,35a11.71,11.71,0,0,0-6.264-2.6v2.294H330.93V32.4a11.71,11.71,0,0,0-6.264,2.6l1.214,1.214-1.664,1.664L323,36.665a11.71,11.71,0,0,0-2.6,6.264h2.294v2.353H320.4a11.71,11.71,0,0,0,2.6,6.264l1.214-1.214L325.88,52l-1.214,1.214a11.71,11.71,0,0,0,6.264,2.6V53.517h2.353v2.294a11.71,11.71,0,0,0,6.264-2.6L338.333,52,340,50.333l1.214,1.214a11.709,11.709,0,0,0,2.6-6.264h-2.294Zm-8.235,1.176a1.176,1.176,0,0,1-.345.832l-3.529,3.529L327.745,46.8l3.185-3.185V37.048h2.353Z" transform="translate(-278.267 -32.401)"/>
  <rect id="Rectangle_337" data-name="Rectangle 337" class="cls-1" width="4.706" height="9.411" transform="translate(16.194 6.999)"/>
  <path id="Path_458" data-name="Path 458" class="cls-1" d="M43.179,53.311,39.993,48h-.564a1.176,1.176,0,0,0-1.092,1.613L39.4,52.269a1.176,1.176,0,0,1-1.092,1.613H35.053a1.176,1.176,0,0,0-1.169,1.306l.654,5.882a1.175,1.175,0,0,0,1.169,1.046h5.154a1.169,1.169,0,0,0,.832-.345l1.664-1.664a1.176,1.176,0,0,1,.832-.345h3.529V53.882H44.188a1.176,1.176,0,0,1-1.009-.571Z" transform="translate(-33.876 -45.706)"/>
  <path id="Path_459" data-name="Path 459" class="cls-1" d="M162.587,327.057h5.8A8.234,8.234,0,0,0,152,328.233a8.135,8.135,0,0,0,1.431,4.639l11.179,3.44,2.215-2.215a5.89,5.89,0,0,1-5.413-5.864,1.176,1.176,0,0,1,1.176-1.176Zm-2.353-2.353a3.529,3.529,0,0,0-2.647,5.863l-1.764,1.557a5.883,5.883,0,0,1,7.353-8.985L162,325.176A3.525,3.525,0,0,0,160.235,324.7Z" transform="translate(-134.629 -277.707)"/>
  <path id="Path_460" data-name="Path 460" class="cls-1" d="M156.52,387.185,153.336,384h-6.37a3.535,3.535,0,0,0,3.328,2.353h2.353a1.176,1.176,0,0,1,.832,2.008l-4.706,4.706a1.176,1.176,0,0,1-1.178.292l-13.617-4.19a1.184,1.184,0,0,0-1.325.472l-.584.876L150.246,398l6.58-3.29a1.176,1.176,0,0,1,.526-.124h9.411v-7.059h-9.411a1.176,1.176,0,0,1-.832-.345Z" transform="translate(-117.63 -332.297)"/>
  <path id="Path_461" data-name="Path 461" class="cls-1" d="M202.274,177.588l.788,1.9a1.177,1.177,0,0,1-.084,1.065l-.79,1.289.438.438,1.289-.79a1.177,1.177,0,0,1,1.065-.084l1.9.788a1.176,1.176,0,0,1,.694.813l.351,1.461h.618l.35-1.461a1.176,1.176,0,0,1,.694-.812l1.9-.788a1.176,1.176,0,0,1,1.065.084l1.289.79.438-.438-.79-1.289a1.176,1.176,0,0,1-.084-1.065l.788-1.9a1.176,1.176,0,0,1,.812-.694l1.461-.35v-.618l-1.461-.35a1.176,1.176,0,0,1-.812-.694l-.788-1.9a1.177,1.177,0,0,1,.084-1.065l.79-1.289-.438-.438-1.29.79a1.176,1.176,0,0,1-1.065.084l-1.9-.788a1.176,1.176,0,0,1-.694-.812l-.35-1.461h-.618l-.35,1.461a1.176,1.176,0,0,1-.694.813l-1.9.788a1.177,1.177,0,0,1-1.065-.084l-1.289-.79-.438.438.79,1.29a1.176,1.176,0,0,1,.084,1.065l-.788,1.9a1.177,1.177,0,0,1-.813.694l-1.461.35v.618l1.461.35A1.176,1.176,0,0,1,202.274,177.588Zm5.961-4.883a3.529,3.529,0,1,1-3.529,3.529A3.529,3.529,0,0,1,208.235,172.706Z" transform="translate(-175.571 -148.06)"/>
  <circle id="Ellipse_26" data-name="Ellipse 26" class="cls-1" cx="1.176" cy="1.176" r="1.176" transform="translate(31.487 26.998)"/>
  <path id="Path_462" data-name="Path 462" class="cls-1" d="M403.747,214.84a28.458,28.458,0,0,1,.565,5.648,28.141,28.141,0,0,1-7.532,19.2l1.725,1.6a30.487,30.487,0,0,0,8.16-20.8,30.827,30.827,0,0,0-.613-6.122Z" transform="translate(-343.414 -187.607)"/>
  <path id="Path_463" data-name="Path 463" class="cls-1" d="M213.426,50.353a28.47,28.47,0,0,1,5.655.566l.461-2.307a30.846,30.846,0,0,0-13.456.275l.563,2.284A28.362,28.362,0,0,1,213.426,50.353Z" transform="translate(-180.763 -45.706)"/>
  <path id="Path_464" data-name="Path 464" class="cls-1" d="M91.707,167.452a24.726,24.726,0,0,0,0,26.042l2-1.242a22.373,22.373,0,0,1,0-23.559Z" transform="translate(-80.041 -147.593)"/>
  <path id="Path_465" data-name="Path 465" class="cls-1" d="M370.964,222.378l-2.306.468a22.522,22.522,0,0,1,.447,4.472A22.185,22.185,0,0,1,362.4,243.28l1.647,1.68a24.52,24.52,0,0,0,7.411-17.643,24.894,24.894,0,0,0-.5-4.945Z" transform="translate(-314.09 -194.437)"/>
  <path id="Path_466" data-name="Path 466" class="cls-1" d="M213.014,90.353a22.522,22.522,0,0,1,4.472.447l.468-2.306a24.878,24.878,0,0,0-12.351.637l.7,2.245a22.354,22.354,0,0,1,6.706-1.023Z" transform="translate(-180.35 -79.824)"/>
</svg>
