<svg id="testimonial" xmlns="http://www.w3.org/2000/svg" width="47.729" height="47.728" viewBox="0 0 47.729 47.728">
  <defs>
    <style>
      .cls-1 {
        fill: #0e497b;
      }
    </style>
  </defs>
  <g id="Group_707" data-name="Group 707" transform="translate(5.034)">
    <g id="Group_706" data-name="Group 706">
      <path id="Path_390" data-name="Path 390" class="cls-1" d="M60.512,6.683h-1.7c.255-1.889,1.3-1.984,1.78-2.028a.932.932,0,0,0,.848-.928V.937a.932.932,0,0,0-.985-.931C57.513.172,54,1.66,54,7.807v4.851a1.47,1.47,0,0,0,1.469,1.469h5.044a1.47,1.47,0,0,0,1.469-1.469V8.151A1.47,1.47,0,0,0,60.512,6.683Zm-.4,5.579H55.864V7.807c0-4.289,1.907-5.487,3.715-5.825v.98c-1.248.38-2.685,1.5-2.685,4.653a.932.932,0,0,0,.932.932h2.29Z" transform="translate(-54 -0.005)"/>
    </g>
  </g>
  <g id="Group_709" data-name="Group 709" transform="translate(14.564)">
    <g id="Group_708" data-name="Group 708">
      <path id="Path_391" data-name="Path 391" class="cls-1" d="M162.746,6.683h-1.7c.255-1.889,1.3-1.984,1.78-2.028a.932.932,0,0,0,.848-.928V.937a.932.932,0,0,0-.984-.931c-2.947.166-6.459,1.654-6.459,7.8v4.851a1.47,1.47,0,0,0,1.469,1.469h5.044a1.47,1.47,0,0,0,1.469-1.469V8.151A1.47,1.47,0,0,0,162.746,6.683Zm-.4,5.579H158.1V7.807c0-4.289,1.907-5.487,3.715-5.825v.98c-1.248.38-2.685,1.5-2.685,4.653a.932.932,0,0,0,.932.932h2.29Z" transform="translate(-156.234 -0.005)"/>
    </g>
  </g>
  <g id="Group_711" data-name="Group 711" transform="translate(24.983 7.258)">
    <g id="Group_710" data-name="Group 710">
      <path id="Path_392" data-name="Path 392" class="cls-1" d="M269.591,78.138a.932.932,0,1,0,.273.659A.939.939,0,0,0,269.591,78.138Z" transform="translate(-268 -77.865)"/>
    </g>
  </g>
  <g id="Group_713" data-name="Group 713" transform="translate(0 7.258)">
    <g id="Group_712" data-name="Group 712">
      <path id="Path_393" data-name="Path 393" class="cls-1" d="M31.161,77.864H29.986a.932.932,0,1,0,0,1.864h1.175a14.705,14.705,0,0,1,3.034,29.094.932.932,0,0,0-.741.912v5.417l-5.742-5.742a.932.932,0,0,0-.659-.273H16.568A14.708,14.708,0,0,1,3.709,87.3.932.932,0,1,0,2.08,86.39,16.572,16.572,0,0,0,16.568,111h10.1l7.06,7.06a.932.932,0,0,0,1.591-.659v-6.928a16.57,16.57,0,0,0-4.158-32.61Z" transform="translate(0 -77.864)"/>
    </g>
  </g>
  <g id="Group_715" data-name="Group 715" transform="translate(11.46 16.545)">
    <g id="Group_714" data-name="Group 714">
      <path id="Path_394" data-name="Path 394" class="cls-1" d="M146.813,177.492H123.869a.932.932,0,1,0,0,1.864h22.944a.932.932,0,1,0,0-1.864Z" transform="translate(-122.937 -177.492)"/>
    </g>
  </g>
  <g id="Group_717" data-name="Group 717" transform="translate(11.46 21.517)">
    <g id="Group_716" data-name="Group 716">
      <path id="Path_395" data-name="Path 395" class="cls-1" d="M146.813,230.825H123.869a.932.932,0,0,0,0,1.864h22.944a.932.932,0,1,0,0-1.864Z" transform="translate(-122.937 -230.825)"/>
    </g>
  </g>
  <g id="Group_719" data-name="Group 719" transform="translate(11.46 26.489)">
    <g id="Group_718" data-name="Group 718">
      <path id="Path_396" data-name="Path 396" class="cls-1" d="M146.813,284.158H123.869a.932.932,0,1,0,0,1.864h22.944a.932.932,0,1,0,0-1.864Z" transform="translate(-122.937 -284.158)"/>
    </g>
  </g>
  <g id="Group_721" data-name="Group 721" transform="translate(22.175 31.461)">
    <g id="Group_720" data-name="Group 720">
      <path id="Path_397" data-name="Path 397" class="cls-1" d="M251.033,337.492H238.8a.932.932,0,0,0,0,1.864h12.23a.932.932,0,0,0,0-1.864Z" transform="translate(-237.871 -337.492)"/>
    </g>
  </g>
  <g id="Group_723" data-name="Group 723" transform="translate(16.915 31.461)">
    <g id="Group_722" data-name="Group 722">
      <path id="Path_398" data-name="Path 398" class="cls-1" d="M182.393,337.491h-.015a.932.932,0,1,0,0,1.864h.015a.932.932,0,1,0,0-1.864Z" transform="translate(-181.446 -337.491)"/>
    </g>
  </g>
</svg>
