<svg id="team_1_" data-name="team (1)" xmlns="http://www.w3.org/2000/svg" width="48" height="48" viewBox="0 0 48 48">
  <defs>
    <style>
      .cls-1 {
        fill: #fff;
      }
    </style>
  </defs>
  <path id="Path_376" data-name="Path 376" class="cls-1" d="M66.07,97.367l.413.239v2.621l-1.882.47,4.365,2.546-.032,1.53-.067.234,2.581-.575v-.613a4.118,4.118,0,0,1,1.185-2.884l-2.84-.71,0-2.619.414-.239a4.154,4.154,0,0,0,2.071-3.581V92.341A4.279,4.279,0,0,0,68.265,88,4.136,4.136,0,0,0,64,92.133v1.655a4.15,4.15,0,0,0,2.07,3.579Zm0,0" transform="translate(-57.379 -78.891)"/>
  <path id="Path_377" data-name="Path 377" class="cls-1" d="M119.761,9.234a10.748,10.748,0,0,1,18.254-.049c.033-.033.062-.07.1-.1a5.77,5.77,0,0,1,1.747-1.161l.939-2.2-2.641-2.642L135.829,4.6l-.445-.273A12.349,12.349,0,0,0,131.8,2.837l-.51-.123L130.715,0h-3.624l-.574,2.714-.509.122a12.361,12.361,0,0,0-3.584,1.487l-.445.273-2.327-1.515-2.644,2.644.929,2.214a5.854,5.854,0,0,1,1.825,1.3Zm0,0" transform="translate(-104.904 0)"/>
  <path id="Path_378" data-name="Path 378" class="cls-1" d="M0,184v15.127l3.552,1.184,3-12.013Zm0,0" transform="translate(0 -164.966)"/>
  <path id="Path_379" data-name="Path 379" class="cls-1" d="M155.855,69.852a5.811,5.811,0,0,1-2.483-4.749V63.448a5.756,5.756,0,0,1,.608-2.577,9.1,9.1,0,0,0-16.147.067,6.1,6.1,0,0,1,.642,2.719V65.1a5.812,5.812,0,0,1-2.484,4.749v.4l3.311.829,3.31-.829v-.4a5.81,5.81,0,0,1-2.483-4.748V63.448a5.794,5.794,0,0,1,5.971-5.791,5.946,5.946,0,0,1,5.615,6V65.1a5.812,5.812,0,0,1-2.484,4.749v.4l3.311.829,3.31-.829Zm0,0" transform="translate(-121.924 -50.207)"/>
  <path id="Path_380" data-name="Path 380" class="cls-1" d="M54.356,235.054l-1.888-1.1-2.918,11.669,1.629.543h.07l3.107-10.875Zm0,0" transform="translate(-44.425 -209.751)"/>
  <path id="Path_381" data-name="Path 381" class="cls-1" d="M153.88,101.411A2.481,2.481,0,0,0,152,103.82v.245l.474-.105a10.22,10.22,0,0,1,5.3.242l3.746,1.2a5.163,5.163,0,0,1,1.228.176l5.089,1.454h.507l.2-.107v-3.1a2.481,2.481,0,0,0-1.88-2.409l-4.74-1.184,0-2.619.414-.239a4.154,4.154,0,0,0,2.071-3.581V92.34A4.279,4.279,0,0,0,160.4,88a4.136,4.136,0,0,0-4.265,4.135v1.655a4.15,4.15,0,0,0,2.07,3.579l.413.239v2.621Zm0,0" transform="translate(-136.276 -78.891)"/>
  <path id="Path_382" data-name="Path 382" class="cls-1" d="M316.9,92.132v1.655a4.15,4.15,0,0,0,2.07,3.579l.413.239v2.621l-2.84.71a4.12,4.12,0,0,1,1.185,2.884v2.229l9.1-4.79-4.135-1.033,0-2.619.414-.239a4.154,4.154,0,0,0,2.071-3.581V92.341A4.279,4.279,0,0,0,321.166,88a4.136,4.136,0,0,0-4.265,4.135Zm0,0" transform="translate(-283.797 -78.891)"/>
  <path id="Path_383" data-name="Path 383" class="cls-1" d="M101.585,262.224a1.707,1.707,0,0,0-1.985-.191l-3.082,1.848a2.772,2.772,0,0,1-4.2-2.378v-.164a2.757,2.757,0,0,1,1.533-2.48l4.133-2.067-1.219-.39a8.527,8.527,0,0,0-4.44-.2l-5.587,1.242-2.229,7.8,2.543,1.525a2.5,2.5,0,0,1,.232-.283l1.455-1.455a2.576,2.576,0,0,1,4.4,1.736,2.576,2.576,0,0,1,2.483,2.483,2.576,2.576,0,0,1,2.483,2.483,2.574,2.574,0,0,1,2.222,1.446l1.847,1.54a1.363,1.363,0,0,0,.87.315.863.863,0,0,0,.553-1.526l-4.358-3.631,1.06-1.272,4.5,3.746a.86.86,0,0,0,.552.2h.181a.863.863,0,0,0,.553-1.526l-4.358-3.631,1.06-1.272,4.488,3.74a.889.889,0,0,0,.569.207h.143a.89.89,0,0,0,.6-1.552Zm0,0" transform="translate(-75.769 -229.517)"/>
  <path id="Path_384" data-name="Path 384" class="cls-1" d="M190.274,217.207l-1.259-.032-5.2-1.485a3.6,3.6,0,0,0-2.579.239l-4.616,2.308a1.111,1.111,0,0,0-.618,1v.164a1.117,1.117,0,0,0,1.69.959l3.083-1.849a3.33,3.33,0,0,1,3.944.38l6.991,6.293c.05.044.1.09.142.138l13.942-6.971v-9.312Zm0,0" transform="translate(-157.794 -187.414)"/>
  <path id="Path_385" data-name="Path 385" class="cls-1" d="M227.823,443.191a2.564,2.564,0,0,1-.521.769l-.621.621.619.546a.859.859,0,0,0,.57.216h.153a.863.863,0,0,0,.553-1.526Zm0,0" transform="translate(-203.23 -397.344)"/>
  <path id="Path_386" data-name="Path 386" class="cls-1" d="M194.382,424a.934.934,0,0,0-.656.272l-1.455,1.455a.928.928,0,0,0,1.313,1.312l1.455-1.455a.928.928,0,0,0-.656-1.584Zm0,0" transform="translate(-172.138 -380.138)"/>
  <path id="Path_387" data-name="Path 387" class="cls-1" d="M147.31,376.928a.928.928,0,0,0-1.584-.656l-1.455,1.455a.928.928,0,0,0,1.313,1.313l1.455-1.455A.934.934,0,0,0,147.31,376.928Zm0,0" transform="translate(-129.103 -337.104)"/>
  <path id="Path_388" data-name="Path 388" class="cls-1" d="M171.31,400.928a.928.928,0,0,0-1.584-.656l-1.455,1.455a.928.928,0,0,0,1.312,1.313l1.455-1.455A.934.934,0,0,0,171.31,400.928Zm0,0" transform="translate(-150.621 -358.621)"/>
  <path id="Path_389" data-name="Path 389" class="cls-1" d="M123.31,352.928a.928.928,0,0,0-1.584-.656l-1.455,1.455a.928.928,0,0,0,1.313,1.312l1.455-1.455A.934.934,0,0,0,123.31,352.928Zm0,0" transform="translate(-107.586 -315.586)"/>
</svg>
