<?xml version="1.0" encoding="UTF-8"?> <svg xmlns="http://www.w3.org/2000/svg" xmlns:xlink="http://www.w3.org/1999/xlink" xmlns:svgjs="http://svgjs.com/svgjs" version="1.1" width="512" height="512" x="0" y="0" viewBox="0 0 512 512" style="enable-background:new 0 0 512 512" xml:space="preserve" class=""><g> <g xmlns="http://www.w3.org/2000/svg"> <g> <path d="M462,0H50C22.43,0,0,22.43,0,50v412c0,27.57,22.43,50,50,50h288.773c5.522,0,10-4.477,10-10s-4.478-10-10-10H50 c-13.034,0-24.148-8.358-28.278-19.994H120.5c5.522,0,10-4.477,10-10s-4.478-10-10-10H20V91.949C20.33,91.982,20.665,92,21.004,92 H492v370c0,16.542-13.458,30-30,30h-41c-5.522,0-10,4.477-10,10s4.478,10,10,10h41c27.57,0,50-22.43,50-50V50 C512,22.43,489.57,0,462,0z M492,72H21.004c-0.339,0-0.674,0.018-1.004,0.051V50c0-16.542,13.458-30,30-30h412 c16.542,0,30,13.458,30,30V72z" fill="#0e497b" data-original="#000000" style="" class=""></path> </g> </g> <g xmlns="http://www.w3.org/2000/svg"> <g> <path d="M163.24,454.92c-1.86-1.86-4.44-2.93-7.07-2.93c-2.64,0-5.21,1.07-7.07,2.93c-1.87,1.86-2.93,4.44-2.93,7.07 c0,2.64,1.06,5.21,2.93,7.07c1.86,1.87,4.44,2.93,7.07,2.93s5.21-1.06,7.07-2.93c1.859-1.86,2.93-4.44,2.93-7.07 S165.1,456.79,163.24,454.92z" fill="#0e497b" data-original="#000000" style="" class=""></path> </g> </g> <g xmlns="http://www.w3.org/2000/svg"> <g> <path d="M388.069,494.93C386.21,493.07,383.63,492,381,492s-5.21,1.07-7.07,2.93c-1.86,1.86-2.93,4.44-2.93,7.07 s1.069,5.21,2.93,7.07c1.861,1.86,4.44,2.93,7.07,2.93s5.21-1.07,7.069-2.93c1.86-1.86,2.931-4.44,2.931-7.07 S389.93,496.79,388.069,494.93z" fill="#0e497b" data-original="#000000" style="" class=""></path> </g> </g> <g xmlns="http://www.w3.org/2000/svg"> <g> <path d="M448,36H222.065c-5.522,0-10,4.477-10,10s4.478,10,10,10H448c5.522,0,10-4.477,10-10S453.522,36,448,36z" fill="#0e497b" data-original="#000000" style="" class=""></path> </g> </g> <g xmlns="http://www.w3.org/2000/svg"> <g> <path d="M111.069,38.93C109.21,37.07,106.63,36,104,36s-5.21,1.07-7.07,2.93C95.069,40.79,94,43.37,94,46s1.069,5.21,2.93,7.07 C98.791,54.93,101.37,56,104,56s5.21-1.07,7.069-2.93C112.93,51.21,114,48.63,114,46S112.93,40.79,111.069,38.93z" fill="#0e497b" data-original="#000000" style="" class=""></path> </g> </g> <g xmlns="http://www.w3.org/2000/svg"> <g> <path d="M71.069,38.93C69.21,37.07,66.63,36,64,36s-5.21,1.07-7.07,2.93C55.069,40.79,54,43.37,54,46s1.069,5.21,2.93,7.07 C58.791,54.93,61.37,56,64,56s5.21-1.07,7.069-2.93C72.93,51.21,74,48.63,74,46S72.93,40.79,71.069,38.93z" fill="#0e497b" data-original="#000000" style="" class=""></path> </g> </g> <g xmlns="http://www.w3.org/2000/svg"> <g> <path d="M151.069,38.93C149.21,37.07,146.63,36,144,36s-5.21,1.07-7.07,2.93S134,43.37,134,46s1.069,5.21,2.93,7.07 c1.861,1.86,4.44,2.93,7.07,2.93s5.21-1.07,7.069-2.93C152.93,51.21,154,48.63,154,46S152.93,40.79,151.069,38.93z" fill="#0e497b" data-original="#000000" style="" class=""></path> </g> </g> <g xmlns="http://www.w3.org/2000/svg"> <g> <path d="M120.5,128h-56c-5.522,0-10,4.477-10,10v56c0,5.523,4.478,10,10,10h56c5.522,0,10-4.477,10-10v-56 C130.5,132.477,126.022,128,120.5,128z M110.5,184h-36v-36h36V184z" fill="#0e497b" data-original="#000000" style="" class=""></path> </g> </g> <g xmlns="http://www.w3.org/2000/svg"> <g> <path d="M120.5,240h-56c-5.522,0-10,4.477-10,10v56c0,5.523,4.478,10,10,10h56c5.522,0,10-4.477,10-10v-56 C130.5,244.477,126.022,240,120.5,240z M110.5,296h-36v-36h36V296z" fill="#0e497b" data-original="#000000" style="" class=""></path> </g> </g> <g xmlns="http://www.w3.org/2000/svg"> <g> <path d="M120.5,352h-56c-5.522,0-10,4.477-10,10v56c0,5.523,4.478,10,10,10h56c5.522,0,10-4.477,10-10v-56 C130.5,356.477,126.022,352,120.5,352z M110.5,408h-36v-36h36V408z" fill="#0e497b" data-original="#000000" style="" class=""></path> </g> </g> <g xmlns="http://www.w3.org/2000/svg"> <g> <path d="M183.417,184H183c-5.522,0-10,4.477-10,10s4.478,10,10,10h0.417c5.522,0,10-4.477,10-10S188.939,184,183.417,184z" fill="#0e497b" data-original="#000000" style="" class=""></path> </g> </g> <g xmlns="http://www.w3.org/2000/svg"> <g> <path d="M183.417,296H183c-5.522,0-10,4.477-10,10s4.478,10,10,10h0.417c5.522,0,10-4.477,10-10S188.939,296,183.417,296z" fill="#0e497b" data-original="#000000" style="" class=""></path> </g> </g> <g xmlns="http://www.w3.org/2000/svg"> <g> <path d="M190.069,410.02c-1.859-1.87-4.439-2.93-7.069-2.93c-2.641,0-5.21,1.06-7.07,2.93c-1.86,1.86-2.93,4.43-2.93,7.07 c0,2.63,1.069,5.21,2.93,7.07c1.86,1.86,4.44,2.93,7.07,2.93s5.21-1.07,7.069-2.93c1.86-1.86,2.931-4.44,2.931-7.07 C193,414.45,191.93,411.88,190.069,410.02z" fill="#0e497b" data-original="#000000" style="" class=""></path> </g> </g> <g xmlns="http://www.w3.org/2000/svg"> <g> <path d="M355.037,184h-17.824v-7.543h10.517c5.522,0,10-4.477,10-10c0-5.523-4.478-10-10-10h-10.517v-7.543h17.824 c5.522,0,10-4.477,10-10s-4.478-10-10-10h-27.824c-5.522,0-10,4.477-10,10V194c0,5.523,4.478,10,10,10h27.824 c5.522,0,10-4.477,10-10S360.559,184,355.037,184z" fill="#0e497b" data-original="#000000" style="" class=""></path> </g> </g> <g xmlns="http://www.w3.org/2000/svg"> <g> <path d="M440.544,128.914h-44.998c-5.522,0-10,4.477-10,10s4.478,10,10,10h12.499V194c0,5.523,4.477,10,10,10 c5.522,0,10-4.477,10-10v-45.086h12.499c5.522,0,10-4.477,10-10S446.066,128.914,440.544,128.914z" fill="#0e497b" data-original="#000000" style="" class=""></path> </g> </g> <g xmlns="http://www.w3.org/2000/svg"> <g> <path d="M283.213,128.913c-5.522,0-10,4.477-10,10v30.944l-38.015-38.015c-2.859-2.86-7.161-3.715-10.898-2.167 c-3.736,1.548-6.173,5.194-6.173,9.239V194c0,5.523,4.478,10,10,10c5.522,0,10-4.477,10-10v-30.944l38.015,38.015 c1.913,1.913,4.471,2.929,7.073,2.929c1.288,0,2.588-0.25,3.825-0.762c3.736-1.548,6.173-5.194,6.173-9.239v-55.086 C293.213,133.39,288.735,128.913,283.213,128.913z" fill="#0e497b" data-original="#000000" style="" class=""></path> </g> </g> <g xmlns="http://www.w3.org/2000/svg"> <g> <path d="M451.827,352.761c-3.736-1.548-8.038-0.691-10.898,2.167L420.457,375.4l-20.472-20.472 c-2.86-2.86-7.161-3.714-10.898-2.167c-3.736,1.548-6.173,5.194-6.173,9.239v55.086c0,5.523,4.478,10,10,10 c5.522,0,10-4.477,10-10v-30.944l10.472,10.472c3.906,3.906,10.236,3.906,14.142,0L438,386.142v30.944c0,5.523,4.478,10,10,10 c5.522,0,10-4.477,10-10V362C458,357.956,455.563,354.309,451.827,352.761z" fill="#0e497b" data-original="#000000" style="" class=""></path> </g> </g> <g xmlns="http://www.w3.org/2000/svg"> <g> <path d="M333.5,352c-20.953,0-38,17.047-38,38s17.047,38,38,38s38-17.047,38-38S354.453,352,333.5,352z M333.5,408 c-9.925,0-18-8.075-18-18s8.075-18,18-18s18,8.075,18,18S343.425,408,333.5,408z" fill="#0e497b" data-original="#000000" style="" class=""></path> </g> </g> <g xmlns="http://www.w3.org/2000/svg"> <g> <path d="M268.855,402.728c-3.399,3.4-7.92,5.272-12.728,5.272s-9.328-1.872-12.728-5.272c-7.019-7.018-7.019-18.437,0-25.456 c3.4-3.4,7.92-5.272,12.728-5.272c4.808,0,9.328,1.872,12.728,5.272c3.906,3.906,10.236,3.906,14.143,0 c3.905-3.905,3.905-10.237,0-14.142c-7.178-7.178-16.72-11.13-26.87-11.13c-10.15,0-19.692,3.953-26.87,11.13 c-14.815,14.816-14.815,38.924,0,53.74c7.178,7.178,16.72,11.13,26.87,11.13c10.15,0,19.692-3.953,26.87-11.13 c3.905-3.905,3.905-10.237,0-14.142C279.092,398.823,272.762,398.823,268.855,402.728z" fill="#0e497b" data-original="#000000" style="" class=""></path> </g> </g> <g xmlns="http://www.w3.org/2000/svg"> <g> <path d="M256.127,240c-20.953,0-38,17.047-38,38s17.047,38,38,38s38-17.047,38-38S277.08,240,256.127,240z M256.127,296 c-9.925,0-18-8.075-18-18s8.075-18,18-18s18,8.075,18,18S266.052,296,256.127,296z" fill="#0e497b" data-original="#000000" style="" class=""></path> </g> </g> <g xmlns="http://www.w3.org/2000/svg"> <g> <path d="M363.489,296.976l-11.421-6.873c9.526-3.862,16.265-13.207,16.265-24.102c0-14.336-11.663-26-26-26h-23.12 c-5.523-0.001-10,4.476-10,9.999v55.543c0,5.523,4.478,10,10,10c5.522,0,10-4.477,10-10v-5.854l23.964,14.422 c1.613,0.971,3.392,1.434,5.146,1.434c3.393,0,6.701-1.727,8.578-4.845C369.749,305.968,368.221,299.824,363.489,296.976z M342.333,272h-13.12v-3v-9h13.12c3.309,0,6,2.691,6,6C348.333,269.309,345.642,272,342.333,272z" fill="#0e497b" data-original="#000000" style="" class=""></path> </g> </g> <g xmlns="http://www.w3.org/2000/svg"> <g> <path d="M448.457,268H433c-5.522,0-10,4.477-10,10s4.478,10,10,10h2.417c-3.232,4.821-8.731,8-14.96,8c-9.925,0-18-8.075-18-18 s8.075-18,18-18c5.522,0,10-4.477,10-10s-4.478-10-10-10c-20.953,0-38,17.047-38,38s17.047,38,38,38s38-17.047,38-38 C458.457,272.477,453.979,268,448.457,268z" fill="#0e497b" data-original="#000000" style="" class=""></path> </g> </g> <g xmlns="http://www.w3.org/2000/svg"> </g> <g xmlns="http://www.w3.org/2000/svg"> </g> <g xmlns="http://www.w3.org/2000/svg"> </g> <g xmlns="http://www.w3.org/2000/svg"> </g> <g xmlns="http://www.w3.org/2000/svg"> </g> <g xmlns="http://www.w3.org/2000/svg"> </g> <g xmlns="http://www.w3.org/2000/svg"> </g> <g xmlns="http://www.w3.org/2000/svg"> </g> <g xmlns="http://www.w3.org/2000/svg"> </g> <g xmlns="http://www.w3.org/2000/svg"> </g> <g xmlns="http://www.w3.org/2000/svg"> </g> <g xmlns="http://www.w3.org/2000/svg"> </g> <g xmlns="http://www.w3.org/2000/svg"> </g> <g xmlns="http://www.w3.org/2000/svg"> </g> <g xmlns="http://www.w3.org/2000/svg"> </g> </g></svg> 