<svg id="gamepad" xmlns="http://www.w3.org/2000/svg" width="45.94" height="32.402" viewBox="0 0 45.94 32.402">
  <path id="Path_59" data-name="Path 59" d="M134.815,251.5a4.915,4.915,0,1,0,4.915,4.915A4.921,4.921,0,0,0,134.815,251.5Zm0,7.527a2.621,2.621,0,1,1,2.621-2.621A2.623,2.623,0,0,1,134.815,259.027Z" transform="translate(-118.722 -235.715)" fill="#0e497b"/>
  <path id="Path_60" data-name="Path 60" d="M286.93,256.315a4.915,4.915,0,1,0-4.915,4.915A4.921,4.921,0,0,0,286.93,256.315Zm-4.915,2.621a2.621,2.621,0,1,1,2.621-2.621A2.623,2.623,0,0,1,282.015,258.937Z" transform="translate(-252.141 -235.625)" fill="#0e497b"/>
  <path id="Path_61" data-name="Path 61" d="M53.313,91.391a10.1,10.1,0,0,0-9.418-8.435l-.2-.037a1.4,1.4,0,0,0-.2-.019H23.7a10.142,10.142,0,0,0-10.036,8.463L10.64,107.569a6.327,6.327,0,0,0-.14,1.32A6.414,6.414,0,0,0,22.212,112.5l1.46-2.022a1.147,1.147,0,1,0-1.863-1.339l-1.479,2.05a4.116,4.116,0,0,1-7.537-2.294,4.206,4.206,0,0,1,.094-.88l3.024-16.243a7.858,7.858,0,0,1,7.78-6.572H43.408l.159.028c.047.009.084.009.131.019a7.932,7.932,0,0,1,7.349,6.544l3.033,16.243a4.381,4.381,0,0,1,.084.852,4.123,4.123,0,0,1-7.565,2.266l-1.573-2.172a1.147,1.147,0,0,0-1.863,1.339l1.545,2.144A6.414,6.414,0,0,0,56.44,108.88a6.6,6.6,0,0,0-.131-1.3Z" transform="translate(-10.5 -82.9)" fill="#0e497b"/>
  <circle id="Ellipse_5" data-name="Ellipse 5" cx="1.554" cy="1.554" r="1.554" transform="translate(27.375 7.705)" fill="#0e497b"/>
  <circle id="Ellipse_6" data-name="Ellipse 6" cx="1.554" cy="1.554" r="1.554" transform="translate(33.732 7.705)" fill="#0e497b"/>
  <path id="Path_62" data-name="Path 62" d="M117.372,132.6a1.151,1.151,0,0,0-1.152,1.152v2.069h-2.069a1.152,1.152,0,1,0,0,2.3h2.069v2.069a1.152,1.152,0,1,0,2.3,0v-2.069h2.069a1.152,1.152,0,1,0,0-2.3h-2.069v-2.069A1.151,1.151,0,0,0,117.372,132.6Z" transform="translate(-103.404 -127.947)" fill="#0e497b"/>
  <circle id="Ellipse_7" data-name="Ellipse 7" cx="1.554" cy="1.554" r="1.554" transform="translate(30.549 10.879)" fill="#0e497b"/>
  <circle id="Ellipse_8" data-name="Ellipse 8" cx="1.554" cy="1.554" r="1.554" transform="translate(30.549 4.522)" fill="#0e497b"/>
</svg>
