<svg id="Page-1" xmlns="http://www.w3.org/2000/svg" width="42.686" height="45.731" viewBox="0 0 42.686 45.731">
  <g id="_034---Marketing-launch" data-name="034---Marketing-launch">
    <path id="Shape" d="M40.4,22.106h-.776a1.534,1.534,0,0,0-.527-1.06c-3.779-3.23-7.67-4.64-11.573-4.2l-.082-.2V10.672c0-.011-.005-.02-.006-.03a.744.744,0,0,0-.047-.229.461.461,0,0,0-.017-.049.069.069,0,0,0-.008-.026L22.672.811A1.5,1.5,0,0,0,20,.836l-4.683,9.5c0,.008-.005.018-.008.026a.46.46,0,0,0-.017.049.744.744,0,0,0-.047.229c0,.01-.006.019-.006.03v5.945l-.093.229c-2.82-.3-6.949.261-11.552,4.192A1.544,1.544,0,0,0,3.064,22.1H2.287A2.287,2.287,0,0,0,0,24.389v19.06a2.287,2.287,0,0,0,2.287,2.287H19.818a2.275,2.275,0,0,0,.991-.229.711.711,0,0,0,.107.086c.009.006.014.017.024.023s.014.005.021.01a.762.762,0,0,0,.127.056.6.6,0,0,0,.061.024.779.779,0,0,0,.184.026l.009,0h.012a.779.779,0,0,0,.184-.026.6.6,0,0,0,.061-.024.762.762,0,0,0,.127-.056c.007,0,.014-.005.021-.01s.015-.017.024-.023a.711.711,0,0,0,.107-.086,2.274,2.274,0,0,0,.988.225H40.4a2.287,2.287,0,0,0,2.287-2.287V24.393A2.287,2.287,0,0,0,40.4,22.106ZM21.343,43.525l-2.294-3.7a.762.762,0,0,0-.95-.3l-1.89.816,2.883-5.282h4.5l2.883,5.285-1.89-.816a.762.762,0,0,0-.95.3ZM14.03,41.162H7.322a11.235,11.235,0,0,1,7.588-1.615Zm-1.079-12.2a.762.762,0,0,1-.7-1.055l3-7.286v8.34Zm3.819-12.2v-5.33h9.147V16.7a.715.715,0,0,0,0,.121V29.67c0,.021-.012.038-.012.059s.006.019.006.03a.762.762,0,0,1-.756.733H17.532a.762.762,0,0,1-.762-.762Zm10.671,3.887,2.99,7.261a.762.762,0,0,1-.7,1.053H27.441ZM24.392,32.015v.762a.762.762,0,0,1-.762.762H19.056a.762.762,0,0,1-.762-.762v-.762Zm4.264,9.147-.881-1.616a11.24,11.24,0,0,1,7.593,1.616Zm9.456-18.934V41.162C33.658,37.756,29.7,37.58,27,38.129l-1.949-3.576a2.275,2.275,0,0,0,.864-1.776v-.9A2.287,2.287,0,0,0,27.3,30.491h2.427a2.287,2.287,0,0,0,2.114-3.158l-3.715-9.01C31.456,18.086,34.809,19.389,38.112,22.228ZM21.318,1.51l4.136,8.4H17.227ZM4.58,22.205c3.3-2.82,6.645-4.116,9.963-3.882L11.032,26.85l-.2.484a2.287,2.287,0,0,0,2.114,3.156h2.435a2.287,2.287,0,0,0,1.384,1.384v.9a2.275,2.275,0,0,0,.864,1.776l-1.948,3.573c-2.7-.553-6.656-.373-11.112,3.028V22.868ZM2.287,44.211a.762.762,0,0,1-.762-.762V24.393a.762.762,0,0,1,.762-.762h.762V41.154a1.53,1.53,0,0,0,1.524,1.532h9.909c.01,0,.019-.005.029-.006a.748.748,0,0,0,.246-.05.037.037,0,0,0,.024-.006L18.1,41.193l1.855,2.989a.76.76,0,0,1-.133.029Zm38.874-.762a.762.762,0,0,1-.762.762H22.867a.683.683,0,0,1-.136-.028l1.855-2.99L27.9,42.624a.038.038,0,0,1,.025.006.755.755,0,0,0,.243.05c.011,0,.021.006.031.006h9.914a1.53,1.53,0,0,0,1.524-1.532V23.631H40.4a.762.762,0,0,1,.762.762Z" transform="translate(0 -0.004)" fill="#0e497b"/>
    <path id="Shape-2" data-name="Shape" d="M27.049,28.1A3.049,3.049,0,1,0,24,25.049,3.049,3.049,0,0,0,27.049,28.1Zm0-4.573a1.524,1.524,0,1,1-1.524,1.524A1.524,1.524,0,0,1,27.049,23.524Z" transform="translate(-5.706 -5.234)" fill="#0e497b"/>
  </g>
</svg>
