<svg xmlns="http://www.w3.org/2000/svg" width="250" height="250.01" viewBox="0 0 250 250.01">
  <g id="Artboard_1" data-name="Artboard 1" transform="translate(-238.43 -18.99)">
    <path id="Path_5573" data-name="Path 5573" d="M238.51,131.56c0-36.33.05-72.66-.08-109,0-3,.6-3.57,3.56-3.57q121.44.16,242.87,0c3,0,3.57.6,3.57,3.57q-.17,121.44,0,242.87c0,3-.6,3.57-3.57,3.56-37.32-.12-74.65-.08-112-.08,5.45-1,10.91-1.92,16.33-3.07,65.57-14,108.86-79.67,95.78-144.92C472.08,56.55,412.76,14.63,350.63,20.76c-52.61,5.2-98.13,45-109.16,97C240.49,122.34,240.52,127.17,238.51,131.56Z" fill="none"/>
    <path id="Path_5574" data-name="Path 5574" d="M350,268.92q-53.88,0-107.75.08c-3.1,0-3.82-.7-3.81-3.8.13-35.59.08-71.18.08-106.76,1.83,1.6,1.33,3.95,1.68,5.93,9.06,51.8,46.43,90.63,98,101.87C342.13,267.1,346.37,266.69,350,268.92Z" fill="none"/>
    <path id="Path_5575" data-name="Path 5575" d="M350,268.92c-3.62-2.23-7.86-1.82-11.8-2.68-51.57-11.24-88.94-50.07-98-101.87-.35-2,.15-4.33-1.68-5.93V131.56c2-4.39,2-9.22,3-13.83C252.5,65.8,298,26,350.63,20.76,412.76,14.63,472.08,56.55,485,120.93c13.08,65.25-30.21,131-95.78,144.92-5.42,1.15-10.88,2-16.33,3.07ZM362.76,23.37c-66.63.16-120.84,54.4-121,121s54.38,121,121.39,120.89A120.65,120.65,0,0,0,483.73,143.7C483.49,77.35,429.06,23.21,362.76,23.37Z" fill="#6b6b6b"/>
    <path id="Path_5576" data-name="Path 5576" d="M362.76,23.37c66.3-.16,120.73,54,121,120.33A120.65,120.65,0,0,1,363.19,265.28c-67,.1-121.51-54.18-121.39-120.89A121.364,121.364,0,0,1,362.76,23.37Zm4.07,89.05c9-9.08,18-18.06,26.82-27.29,2.41-2.54,3.71-2,5.83.16C405.93,92,412.55,98.47,419.13,105c1.14,1.14,2.06,2.57,4,2.56h41.71C458,70.07,407.74,34.74,362.52,35.23c-45.9.49-95.88,36-101.64,72.26,12.11,0,24.21-.34,36.29.14,6,.24,10.05-1.75,14.18-6,16.15-16.67,32.73-32.91,49-49.41,2.15-2.18,3.47-2.69,5.84-.19,6.27,6.61,12.77,13,19.33,19.35,2.72,2.62,2.83,4.6-.51,6.54H382.6c-5.07-5-10.32-9.75-15.14-14.94-2.92-3.14-4.67-3.58-8-.17-13.82,14.19-28,28-42.06,42-1.51-.09-2.22.62-2.14,2.13-3.8,5.58-8.61,8.14-15.8,7.75-12.23-.66-24.53,0-36.8-.27-3.6-.06-5.18.9-6,4.6-6.33,29-2.28,56.26,12.76,81.89a6.38,6.38,0,0,0,6.29,3.6q87.06-.15,174.1,0c3.32,0,5.09-1.17,6.66-3.88,14.93-25.69,18.92-53,12.46-81.95-.72-3.2-2-4.25-5.26-4.21-13.26.19-26.53,0-39.79.16a10.51,10.51,0,0,1-8.65-3.65c-5-5.34-10.38-10.26-15.36-15.58-2.41-2.58-3.93-3.1-6.6-.14-4.87,5.41-10.44,10.2-15.33,15.6-2.88,3.19-5.95,4.49-10.05,3.58Zm-89.53,99a19.464,19.464,0,0,0,1.27,2.29A109.13,109.13,0,0,0,446,215c.71-.83,2-1.63,1.46-2.89s-2.07-.7-3.14-.7q-28.87-.06-57.73,0Z" fill="none"/>
    <path id="Path_5577" data-name="Path 5577" d="M317.39,104.79c14.06-14,28.24-27.8,42.06-42,3.34-3.41,5.09-3,8,.17,4.82,5.19,10.07,10,15.14,14.94.82,1.54,1.64,1.59,2.46,0,3.34-1.94,3.23-3.92.51-6.54C379,65,372.51,58.63,366.24,52c-2.37-2.5-3.69-2-5.84.19-16.32,16.5-32.9,32.74-49,49.41-4.13,4.26-8.17,6.25-14.18,6-12.08-.48-24.18-.14-36.29-.14,5.76-36.3,55.74-71.77,101.64-72.26,45.22-.49,95.44,34.84,102.35,72.33H423.21c-2,0-2.89-1.42-4-2.56-6.58-6.55-13.2-13.06-19.65-19.73-2.12-2.19-3.42-2.7-5.83-.16-8.8,9.23-17.86,18.21-26.82,27.29-.75.32-1.73.84-1.41,1.62.43,1,1.58.53,2.47.39,4.1.91,7.17-.39,10.05-3.58,4.89-5.4,10.46-10.19,15.33-15.6,2.67-3,4.19-2.44,6.6.14,5,5.32,10.39,10.24,15.36,15.58a10.51,10.51,0,0,0,8.65,3.65c13.26-.21,26.53,0,39.79-.16,3.29,0,4.54,1,5.26,4.21,6.46,29,2.47,56.26-12.46,82-1.57,2.71-3.34,3.89-6.66,3.88q-87-.18-174.1,0a6.38,6.38,0,0,1-6.29-3.6c-15-25.63-19.09-52.91-12.76-81.89.81-3.7,2.39-4.66,6-4.6,12.27.22,24.57-.39,36.8.27,7.19.39,12-2.17,15.8-7.75a3.71,3.71,0,0,0,2.05-2.14Zm54.33,56.78c.6.65,1,.87,1,1.11q.15,7.44.23,14.89c.15,11.76-1.57,10.38,10.22,9.9,3.69-.14,4.08-1.64,4-5-.29-14.92-.23-29.84-.11-44.76,0-2.57,1.58-5.43-1.7-6.92-3.56-1.62-10.35.18-12,2.87-5.11,8.51-10.18,17-15.33,25.51-.88,1.45-.9,4-3.26,3.85-1.89-.13-2-2.38-2.86-3.75-5.19-8.66-10.39-17.31-15.49-26-2.76-4.72-7.17-2.5-10.78-2.38s-2.43,3.72-2.44,6c-.11,14.92-.06,29.85-.07,44.77,0,6.51,0,6.51,6.65,6.53h2.49c3.53.08,5-1.51,4.9-5.16-.22-5.63-.11-11.27-.09-16.91,0-1.25-.52-3,1.12-3.45s2,1.4,2.64,2.46c3.95,6.5,7.93,13,11.75,19.57,1.8,3.1,3.15,3.5,5.13.11,4.53-7.73,9.21-15.31,14-23.24Zm80.77,9.37c0-4.64-.09-9.29,0-13.92.06-2.5-.77-3.61-3.41-3.58-8.29.1-16.57,0-24.86,0-1.48,0-2.91-.11-3.52,1.88-2.24,7.24.39,10.91,8,10.87a62.926,62.926,0,0,0,6.44-.27c1.2-.12,2.35-.44,3.09.78a3.31,3.31,0,0,1-.38,3.73c-2.37,3.6-6,5-10,5.73-7.9,1.52-15.64-1.63-18.45-7.51-3.63-7.64-2-17.23,3.91-22.41,4.94-4.36,16-4.83,22.32-.31,3.52,2.53,5.75,2.1,8.1-1.13a9.689,9.689,0,0,1,2.13-2.06c3.6-2.68,2.37-4.79-.65-6.85-6.58-4.5-13.95-5.45-21.72-5.43-11.35,0-20.79,4.23-26.26,14-6.26,11.17-5.28,22.7,1.78,33.72,5.66,8.82,25,13.6,36.64,8.51,1.32-.58,3.37-2.12,4-.95,2.28,4,5.82,2,8.83,2.5s4.19-.82,4.06-3.91c-.19-4.44-.05-8.92-.05-13.39ZM290.72,131.5c-7.11,0-14.24.25-21.34-.09-4.63-.22-6,1.39-6,6,0,4.74,1.35,6.7,6.2,6.17,2.95-.32,6,.19,8.92-.13,4.13-.45,5.06,1.35,5,5.13-.22,9.59-.12,19.2-.06,28.8.07,10.94-1.93,10,10.58,10.08,3,0,4.15-1.21,4.11-4.16-.15-12.08,0-24.16-.37-36.23-.08-2.88.95-3.52,3.29-3.54,4,0,8-.26,11.91.06,4.32.36,4.62-2.17,4.22-5.22-.36-2.8,1.89-7.08-4.09-6.87C305.63,131.71,298.17,131.51,290.72,131.5Z" fill="#6b6b6b"/>
    <path id="Path_5578" data-name="Path 5578" d="M277.3,211.41H444.36c1.07,0,2.55-.61,3.14.7s-.75,2.06-1.46,2.89a109.13,109.13,0,0,1-167.47-1.32A19.462,19.462,0,0,1,277.3,211.41Z" fill="#6b6b6b"/>
    <path id="Path_5579" data-name="Path 5579" d="M367.89,114.43c-.89.14-2,.65-2.47-.39-.32-.78.66-1.3,1.41-1.62Z" fill="#f0f1f1"/>
    <path id="Path_5580" data-name="Path 5580" d="M385.06,77.91c-.82,1.59-1.64,1.54-2.46,0Z" fill="#f2f2f3"/>
    <path id="Path_5581" data-name="Path 5581" d="M317.39,104.79a3.71,3.71,0,0,1-2.14,2.13C315.17,105.41,315.88,104.7,317.39,104.79Z" fill="#f2f2f3"/>
    <path id="Path_5582" data-name="Path 5582" d="M371.72,161.8c-4.79,7.93-9.47,15.51-14,23.2-2,3.39-3.33,3-5.13-.11-3.82-6.57-7.8-13.06-11.75-19.57-.64-1.06-1-2.91-2.64-2.46s-1.11,2.2-1.12,3.45c0,5.64-.13,11.28.09,16.91.14,3.65-1.37,5.24-4.9,5.16h-2.49c-6.65,0-6.65,0-6.65-6.53q0-22.38.07-44.77c0-2.23-1.28-5.84,2.44-5.95s8-2.34,10.78,2.38c5.1,8.71,10.3,17.36,15.49,26,.82,1.37,1,3.62,2.86,3.75,2.36.17,2.38-2.4,3.26-3.85,5.15-8.48,10.22-17,15.33-25.51,1.62-2.69,8.41-4.48,12-2.87,3.28,1.49,1.72,4.35,1.7,6.92-.12,14.92-.18,29.84.11,44.76.06,3.35-.33,4.85-4,5-11.79.48-10.07,1.86-10.22-9.9q-.09-7.44-.23-14.89C372.71,162.67,372.32,162.45,371.72,161.8Z" fill="none"/>
    <path id="Path_5583" data-name="Path 5583" d="M452.49,170.94c0,4.47-.14,8.95.05,13.42.13,3.09-1.11,4.35-4.06,3.91s-6.55,1.5-8.83-2.5c-.67-1.17-2.72.37-4,.95-11.65,5.09-31,.31-36.64-8.51-7.06-11-8-22.55-1.78-33.72,5.47-9.77,14.91-14,26.26-14,7.77,0,15.14.93,21.72,5.43,3,2.06,4.25,4.17.65,6.85a9.691,9.691,0,0,0-2.13,2.06c-2.35,3.23-4.58,3.66-8.1,1.13-6.3-4.52-17.38-4.05-22.32.31-5.87,5.18-7.54,14.77-3.91,22.41,2.81,5.88,10.55,9,18.45,7.51,4-.77,7.67-2.13,10-5.73a3.31,3.31,0,0,0,.38-3.73c-.74-1.22-1.89-.9-3.09-.78a62.926,62.926,0,0,1-6.44.27c-7.58,0-10.21-3.63-8-10.87.61-2,2-1.88,3.52-1.88,8.29,0,16.57.07,24.86,0,2.64,0,3.47,1.08,3.41,3.58C452.4,161.65,452.49,166.3,452.49,170.94Z" fill="none"/>
    <path id="Path_5584" data-name="Path 5584" d="M290.72,131.5c7.45,0,14.91.21,22.34-.05,6-.21,3.73,4.07,4.09,6.87.4,3.05.1,5.58-4.22,5.22-3.95-.32-7.94-.07-11.91-.06-2.34,0-3.37.66-3.29,3.54.34,12.07.22,24.15.37,36.23,0,2.95-1.15,4.17-4.11,4.16-12.51-.08-10.51.86-10.58-10.08-.06-9.6-.16-19.21.06-28.8.09-3.78-.84-5.58-5-5.13-2.94.32-6-.19-8.92.13-4.85.53-6.23-1.43-6.2-6.17,0-4.56,1.37-6.17,6-6C276.48,131.75,283.61,131.5,290.72,131.5Z" fill="none"/>
  </g>
</svg>
