<svg id="XMLID_2_" xmlns="http://www.w3.org/2000/svg" width="173.191" height="43.977" viewBox="0 0 173.191 43.977">
    <defs>
        <linearGradient id="linear-gradient" y1=".5" x2="1.001" y2=".5" gradientUnits="objectBoundingBox">
            <stop offset="0" stop-color="#39bcaf"/>
            <stop offset="1" stop-color="#4dbc93"/>
        </linearGradient>
        <style>
            .cls-1{fill:#ffffff}
        </style>
    </defs>
    <path id="XMLID_719_" class="cls-1" d="M98.331 254.965h-9.637l-1.643 4.774H83l8.169-23.04h4.314l8.169 23.04h-3.679zm-1.1-3.132-3.762-10.753-3.769 10.753z" transform="translate(-83 -224.655)"/>
    <path id="XMLID_717_" class="cls-1" d="M199.167 229.5v24.507H195.4V229.5z" transform="translate(-170.784 -219.031)"/>
    <path id="XMLID_714_" class="cls-1" d="M241.218 257.373a6.42 6.42 0 0 1 2.475 2.1v-2.65h3.767v18.55a9.335 9.335 0 0 1-1.007 4.49 6.836 6.836 0 0 1-3.022 3.022 9.812 9.812 0 0 1-4.774 1.2 11.379 11.379 0 0 1-6.242-1.643 6.707 6.707 0 0 1-2.76-4.774h3.767a4.271 4.271 0 0 0 1.927 2.3 5.9 5.9 0 0 0 3.395.832 5.077 5.077 0 0 0 3.679-1.38 5.518 5.518 0 0 0 1.38-4.03v-3.022a8.106 8.106 0 0 1-2.672 2.212 6.879 6.879 0 0 1-3.679.832 8.636 8.636 0 0 1-4.314-1.2A8.732 8.732 0 0 1 230 270.82a10.592 10.592 0 0 1 0-9.812 8.412 8.412 0 0 1 3.132-3.307 8.04 8.04 0 0 1 4.314-1.2 7.663 7.663 0 0 1 3.772.872zm1.84 5.344a6.4 6.4 0 0 0-2.015-2.1 4.8 4.8 0 0 0-2.76-.745 4.862 4.862 0 0 0-2.759.745 6.612 6.612 0 0 0-2.015 2.1 6.317 6.317 0 0 0-.745 3.307 7.3 7.3 0 0 0 .745 3.307 6.926 6.926 0 0 0 2.015 2.212 4.642 4.642 0 0 0 2.759.745 4.862 4.862 0 0 0 2.76-.745 6.611 6.611 0 0 0 2.015-2.1 6.317 6.317 0 0 0 .745-3.307 6.233 6.233 0 0 0-.746-3.42z" transform="translate(-196.869 -240.115)"/>
    <path id="XMLID_705_" class="cls-1" d="M336.112 274.118a8.874 8.874 0 0 1-3.307-3.307 10.438 10.438 0 0 1 .088-9.9 8.5 8.5 0 0 1 3.395-3.307 10.064 10.064 0 0 1 9.549 0 9.1 9.1 0 0 1 3.395 3.307 9.6 9.6 0 0 1-3.482 13.294 9.925 9.925 0 0 1-9.636-.088zm7.424-2.759a5.858 5.858 0 0 0 2.1-2.1 7.7 7.7 0 0 0 .088-6.789 6.4 6.4 0 0 0-2.015-2.1 5.652 5.652 0 0 0-2.759-.745 4.685 4.685 0 0 0-2.759.745 5.647 5.647 0 0 0-2.015 2.1 7.806 7.806 0 0 0 .723 7.884 5.209 5.209 0 0 0 3.767 1.555 4.982 4.982 0 0 0 2.87-.551z" transform="translate(-277.155 -240.04)"/>
    <path id="XMLID_699_" class="cls-1" d="M433.067 275.359a8.3 8.3 0 0 1-2.76-2.1 4.4 4.4 0 0 1-1.007-3.022h3.855a3.022 3.022 0 0 0 1.007 1.927 3.632 3.632 0 0 0 2.475.745 3.535 3.535 0 0 0 2.387-.635 1.729 1.729 0 0 0 .832-1.555 1.7 1.7 0 0 0-.92-1.555 12.9 12.9 0 0 0-3.022-1.007c-1.38-.46-2.475-.745-3.395-1.007a6.362 6.362 0 0 1-2.212-1.555 3.854 3.854 0 0 1-.92-2.847 4.649 4.649 0 0 1 .832-2.672 5.526 5.526 0 0 1 2.387-1.927 9.025 9.025 0 0 1 3.679-.745 7.966 7.966 0 0 1 5.059 1.555 5.244 5.244 0 0 1 2.015 4.315h-3.767a3.661 3.661 0 0 0-.92-2.015 3.4 3.4 0 0 0-2.387-.745 4.207 4.207 0 0 0-2.3.548 1.787 1.787 0 0 0-.832 1.467 1.674 1.674 0 0 0 .547 1.292 2.411 2.411 0 0 0 1.292.745c.547.175 1.292.46 2.212.745 1.38.285 2.387.745 3.307 1.007a10.027 10.027 0 0 1 2.212 1.555 4.127 4.127 0 0 1 .92 2.847 4.725 4.725 0 0 1-.832 2.76 5.527 5.527 0 0 1-2.387 1.927 9.026 9.026 0 0 1-3.679.745 11.254 11.254 0 0 1-3.678-.793z" transform="translate(-353.458 -240.821)"/>
    <path id="XMLID_695_" class="cls-1" d="M513.412 274.118a8.875 8.875 0 0 1-3.307-3.307 10.438 10.438 0 0 1 .088-9.9 8.505 8.505 0 0 1 3.395-3.307 9.572 9.572 0 0 1 12.943 3.307 9.6 9.6 0 0 1-3.482 13.294 10.355 10.355 0 0 1-4.774 1.2 10.513 10.513 0 0 1-4.863-1.287zm7.359-2.759a5.858 5.858 0 0 0 2.1-2.1 7.7 7.7 0 0 0 .088-6.789 6.4 6.4 0 0 0-2.015-2.1 5.651 5.651 0 0 0-2.759-.745 4.862 4.862 0 0 0-2.76.745 5.648 5.648 0 0 0-2.015 2.1 7.806 7.806 0 0 0 .723 7.884 5.209 5.209 0 0 0 3.767 1.555 4.774 4.774 0 0 0 2.87-.551z" transform="translate(-415.625 -240.04)"/>
    <path id="XMLID_616_" class="cls-1" d="M615.067 229.5v24.507H611.3V229.5z" transform="translate(-495.598 -219.031)"/>
    <path id="XMLID_615_" d="m659.814 213.193 15.418-31.493-13.141 34.8H657.6l-4.4-11.564h4.03z" transform="translate(-528.322 -181.7)" style="fill:url(#linear-gradient)"/>
    <path id="XMLID_610_" class="cls-1" d="M749.681 267.141H735.73a4.9 4.9 0 0 0 1.555 3.482 5.525 5.525 0 0 0 3.592 1.38 4.47 4.47 0 0 0 4.315-2.475h4.139a8.51 8.51 0 0 1-3.022 4.139 8.725 8.725 0 0 1-5.322 1.555 10.356 10.356 0 0 1-4.774-1.2 9.049 9.049 0 0 1-4.512-8.257 10.209 10.209 0 0 1 1.2-4.95 7.87 7.87 0 0 1 3.132-3.307 9.826 9.826 0 0 1 4.774-1.2 9.459 9.459 0 0 1 4.6 1.2 7.449 7.449 0 0 1 3.132 3.132 9.827 9.827 0 0 1 1.2 4.774 3.033 3.033 0 0 1-.058 1.727zm-3.767-3.022a4.632 4.632 0 0 0-1.467-3.395 5.345 5.345 0 0 0-3.592-1.292 5.167 5.167 0 0 0-3.395 1.292 5.381 5.381 0 0 0-1.643 3.395z" transform="translate(-589.63 -239.962)"/>
    <path id="XMLID_608_" class="cls-1" d="M837.379 257.845a6.317 6.317 0 0 1 3.307-.745v3.855h-.92a4.69 4.69 0 0 0-3.395 1.2 5.576 5.576 0 0 0-1.2 3.855v9.549H831.4v-18.174h3.767v2.672a5.786 5.786 0 0 1 2.212-2.212z" transform="translate(-667.494 -240.587)"/>
</svg>
