<svg id="_1-01" data-name="1-01" xmlns="http://www.w3.org/2000/svg" width="487.826" height="387.901" viewBox="0 0 487.826 387.901">
  <g id="Group_296" data-name="Group 296" transform="translate(230.931 124.597)">
    <g id="Group_294" data-name="Group 294">
      <g id="Group_293" data-name="Group 293">
        <path id="Path_314" data-name="Path 314" d="M552.564,443.1a16.937,16.937,0,1,1-16.937-16.937A16.94,16.94,0,0,1,552.564,443.1Z" transform="translate(-518.69 -426.16)" fill="#4396ca"/>
      </g>
    </g>
    <g id="Group_295" data-name="Group 295" transform="translate(6.549 11.202)">
      <path id="Path_315" data-name="Path 315" d="M538.316,457.666a2.742,2.742,0,0,1-1.694-.591l-6.166-4.935a2.707,2.707,0,1,1,3.381-4.228l4.569,3.655,9.126-6.519a2.708,2.708,0,1,1,3.144,4.411l-10.79,7.707A2.735,2.735,0,0,1,538.316,457.666Z" transform="translate(-529.439 -444.546)" fill="#fff"/>
    </g>
  </g>
  <g id="Group_299" data-name="Group 299" transform="translate(223.157 0)">
    <g id="Group_297" data-name="Group 297">
      <path id="Path_316" data-name="Path 316" d="M541.388,239.379a17.729,17.729,0,1,1-17.729-17.729A17.73,17.73,0,0,1,541.388,239.379Z" transform="translate(-505.93 -221.65)" fill="#ffcb2f"/>
    </g>
    <g id="Group_298" data-name="Group 298" transform="translate(5.526 5.252)">
      <path id="Path_317" data-name="Path 317" d="M527.209,230.27l3.771,7.646,8.432,1.225-6.1,5.946,1.444,8.4-7.542-3.966-7.548,3.966,1.444-8.4-6.1-5.946,8.432-1.225Z" transform="translate(-515 -230.27)" fill="#fff"/>
    </g>
  </g>
  <g id="Group_303" data-name="Group 303" transform="translate(277.508 161.274)">
    <g id="Group_301" data-name="Group 301">
      <g id="Group_300" data-name="Group 300">
        <path id="Path_318" data-name="Path 318" d="M642.1,509.84a23.48,23.48,0,1,1-23.48-23.48A23.48,23.48,0,0,1,642.1,509.84Z" transform="translate(-595.14 -486.36)" fill="#4396ca"/>
      </g>
    </g>
    <g id="Group_302" data-name="Group 302" transform="translate(9.345 14.299)">
      <path id="Path_319" data-name="Path 319" d="M634.922,510.5c-3.521-1.889-8.127.481-10.278,3.759-2.151-3.278-7.006-5.648-10.522-3.759-3.722,2-4.6,5.879-2.6,9.6s13.1,12.788,13.123,12.678c.024.11,11.125-8.956,13.123-12.678A6.715,6.715,0,0,0,634.922,510.5Z" transform="translate(-610.478 -509.829)" fill="#fff"/>
    </g>
  </g>
  <g id="Group_309" data-name="Group 309" transform="translate(94.996 162.187)">
    <g id="Group_305" data-name="Group 305">
      <g id="Group_304" data-name="Group 304">
        <path id="Path_320" data-name="Path 320" d="M323.473,494.123a15.471,15.471,0,1,1-21.64-3.223A15.47,15.47,0,0,1,323.473,494.123Z" transform="translate(-295.569 -487.859)" fill="#025482"/>
      </g>
    </g>
    <g id="Group_308" data-name="Group 308" transform="translate(7.549 7.55)">
      <g id="Group_306" data-name="Group 306" transform="translate(1.409 0)">
        <rect id="Rectangle_161" data-name="Rectangle 161" width="3.528" height="17.132" transform="matrix(0.804, -0.595, 0.595, 0.804, 0, 2.1)" fill="#fff"/>
      </g>
      <g id="Group_307" data-name="Group 307" transform="translate(0 1.399)">
        <rect id="Rectangle_162" data-name="Rectangle 162" width="17.132" height="3.528" transform="matrix(0.804, -0.595, 0.595, 0.804, 0, 10.197)" fill="#fff"/>
      </g>
    </g>
  </g>
  <g id="Group_322" data-name="Group 322" transform="translate(0 195.123)">
    <g id="Group_310" data-name="Group 310" transform="translate(20.881)">
      <path id="Path_321" data-name="Path 321" d="M243.429,694.8H186.72a13.086,13.086,0,0,1-12.8-13.355V555.275c0-7.372,5.733-13.355,12.8-13.355h56.709a13.086,13.086,0,0,1,12.8,13.355V681.45A13.086,13.086,0,0,1,243.429,694.8Z" transform="translate(-173.92 -541.92)" fill="#062c3f"/>
    </g>
    <g id="Group_311" data-name="Group 311" transform="translate(27.614 7.518)">
      <path id="Path_322" data-name="Path 322" d="M240.216,687.563H198.245c-7.335,0-13.275-5.215-13.275-11.643V565.9c0-6.428,5.946-11.643,13.275-11.643h41.971c7.335,0,13.275,5.215,13.275,11.643V675.92C253.492,682.348,247.546,687.563,240.216,687.563Z" transform="translate(-184.97 -554.26)" fill="#4396ca"/>
    </g>
    <g id="Group_312" data-name="Group 312" transform="translate(51.533 143.746)">
      <path id="Path_323" data-name="Path 323" d="M248.045,780.413a2.552,2.552,0,0,1-2.553,2.553h-18.71a2.556,2.556,0,0,1-2.553-2.553h0a2.552,2.552,0,0,1,2.553-2.553h18.71a2.556,2.556,0,0,1,2.553,2.553Z" transform="translate(-224.23 -777.86)" fill="#3287b2"/>
    </g>
    <g id="Group_313" data-name="Group 313" transform="translate(35.449 60.614)">
      <path id="Path_324" data-name="Path 324" d="M245.558,666.858H202.424a4.593,4.593,0,0,1-4.594-4.594V646a4.593,4.593,0,0,1,4.594-4.594h43.135A4.593,4.593,0,0,1,250.152,646v16.261A4.589,4.589,0,0,1,245.558,666.858Z" transform="translate(-197.83 -641.41)" fill="#025482"/>
    </g>
    <g id="Group_318" data-name="Group 318" transform="translate(0 71.075)">
      <g id="Group_314" data-name="Group 314">
        <path id="Path_325" data-name="Path 325" d="M146.119,752.105c-3.838-8.109-9.066-53.723-5-61.473,1.651-3.144,15.213-32.052,18.96-32.052,2.254,0-1.322,35.044,2.254,34.307,2.132-.439,17.607-14.9,26.63-21.665,7.616-5.715,15.8,4.515,9.931,10.382-6.769,6.769-22.256,28.452-22.573,32.052-1.8,20.763-1.633,37.6-1.633,37.6Z" transform="translate(-139.646 -658.58)" fill="#efbd7d"/>
      </g>
      <g id="Group_315" data-name="Group 315" transform="translate(48.005 14.933)">
        <ellipse id="Ellipse_27" data-name="Ellipse 27" cx="4.478" cy="4.478" rx="4.478" ry="4.478" fill="#ef9a6f"/>
      </g>
      <g id="Group_316" data-name="Group 316" transform="translate(5.833 92.24)">
        <path id="Path_326" data-name="Path 326" d="M149.22,809.98h29.226v26.478a2.982,2.982,0,0,1-2.985,2.985H152.205a2.982,2.982,0,0,1-2.985-2.985Z" transform="translate(-149.22 -809.98)" fill="#cdeefc"/>
      </g>
      <g id="Group_317" data-name="Group 317" transform="translate(1.355 87.975)">
        <path id="Path_327" data-name="Path 327" d="M145.5,802.98h30.078v13.653H145.5a3.626,3.626,0,0,1-3.625-3.625v-6.4A3.623,3.623,0,0,1,145.5,802.98Z" transform="translate(-141.87 -802.98)" fill="#e6f9ff"/>
      </g>
    </g>
    <g id="Group_319" data-name="Group 319" transform="translate(50.089 69.363)">
      <path id="Path_328" data-name="Path 328" d="M221.86,664.056V655.77h4.2a2.463,2.463,0,0,1,1.913.664,2.175,2.175,0,0,1,.6,1.511,1.923,1.923,0,0,1-.347,1.121,1.783,1.783,0,0,1-1.042.688,1.847,1.847,0,0,1,1.608,1.931,2.622,2.622,0,0,1-.567,1.651,3.038,3.038,0,0,1-2.425.725H221.86Zm2.339-5.112h1.176a.744.744,0,0,0,.621-.225.756.756,0,0,0,.183-.481c0-.463-.28-.695-.847-.695H224.2Zm0,3.266h1.237a.923.923,0,0,0,.676-.225.715.715,0,0,0,.213-.512.8.8,0,0,0-.207-.524,1,1,0,0,0-.768-.238H224.2v1.5Z" transform="translate(-221.86 -655.77)" fill="#fff"/>
      <path id="Path_329" data-name="Path 329" d="M242.645,655.77v5.483a2.605,2.605,0,0,1-.926,2.242,3.945,3.945,0,0,1-2.413.682,4.391,4.391,0,0,1-2.516-.652,2.415,2.415,0,0,1-.95-2.138V655.77h2.583v5.319a1.282,1.282,0,0,0,.25.871,1.044,1.044,0,0,0,.8.274,1.377,1.377,0,0,0,.755-.2.779.779,0,0,0,.353-.445,5.475,5.475,0,0,0,.055-.975v-4.85Z" transform="translate(-227.323 -655.77)" fill="#fff"/>
      <path id="Path_330" data-name="Path 330" d="M256.523,655.77l-2.6,4.776v3.509H251.46v-3.509l-2.79-4.776h2.784l1.45,2.729,1.389-2.729Z" transform="translate(-232.336 -655.77)" fill="#fff"/>
    </g>
    <g id="Group_320" data-name="Group 320" transform="translate(69.646 14.445)" opacity="0.19">
      <path id="Path_331" data-name="Path 331" d="M261.722,613.76a3.879,3.879,0,0,1-3.881,3.881h0a3.879,3.879,0,0,1-3.881-3.881v-44.25a3.879,3.879,0,0,1,3.881-3.881h0a3.879,3.879,0,0,1,3.881,3.881Z" transform="translate(-253.96 -565.63)" fill="#fff"/>
    </g>
    <g id="Group_321" data-name="Group 321" transform="translate(81.678 14.445)" opacity="0.19">
      <path id="Path_332" data-name="Path 332" d="M281.472,585.43a3.879,3.879,0,0,1-3.881,3.881h0a3.879,3.879,0,0,1-3.881-3.881v-15.92a3.879,3.879,0,0,1,3.881-3.881h0a3.879,3.879,0,0,1,3.881,3.881Z" transform="translate(-273.71 -565.63)" fill="#fff"/>
    </g>
  </g>
  <g id="Group_329" data-name="Group 329" transform="translate(21.704 120.941)">
    <g id="Group_325" data-name="Group 325">
      <g id="Group_324" data-name="Group 324">
        <g id="Group_323" data-name="Group 323">
          <ellipse id="Ellipse_28" data-name="Ellipse 28" cx="33.265" cy="33.265" rx="33.265" ry="33.265" fill="#062c3f"/>
        </g>
      </g>
    </g>
    <g id="Group_326" data-name="Group 326" transform="translate(12.867 19.508)">
      <path id="Path_333" data-name="Path 333" d="M235.3,480.747H199.1a2.709,2.709,0,0,1-2.711-2.711V454.891a2.713,2.713,0,0,1,2.711-2.711h36.2a2.709,2.709,0,0,1,2.711,2.711v23.145A2.713,2.713,0,0,1,235.3,480.747Zm-33.49-5.416H232.6V457.6H201.812Z" transform="translate(-196.39 -452.18)" fill="#fff"/>
    </g>
    <g id="Group_327" data-name="Group 327" transform="translate(28.994 28.056)">
      <path id="Path_334" data-name="Path 334" d="M233.144,471.352A5.142,5.142,0,1,1,228,466.21,5.143,5.143,0,0,1,233.144,471.352Z" transform="translate(-222.86 -466.21)" fill="#fff"/>
    </g>
    <g id="Group_328" data-name="Group 328" transform="translate(40.046 14.677)">
      <path id="Path_335" data-name="Path 335" d="M244.387,453.8A3.388,3.388,0,0,1,241,450.409v-2.772a3.387,3.387,0,1,1,6.775,0v2.772A3.392,3.392,0,0,1,244.387,453.8Z" transform="translate(-241 -444.25)" fill="#fff"/>
    </g>
  </g>
  <g id="Group_337" data-name="Group 337" transform="translate(83.703 81.374)">
    <g id="Group_331" data-name="Group 331" transform="translate(0)">
      <g id="Group_330" data-name="Group 330">
        <ellipse id="Ellipse_29" data-name="Ellipse 29" cx="33.941" cy="33.941" rx="33.941" ry="33.941" transform="translate(0 65.5) rotate(-74.77)" fill="#4396ca"/>
      </g>
    </g>
    <g id="Group_332" data-name="Group 332" transform="translate(24.885 24.598)">
      <path id="Path_336" data-name="Path 336" d="M320.584,428.038a2.708,2.708,0,0,1-1.889-4.649l27.715-27.032a2.71,2.71,0,1,1,3.783,3.881L322.479,427.27A2.72,2.72,0,0,1,320.584,428.038Z" transform="translate(-317.878 -395.588)" fill="#fff"/>
    </g>
    <g id="Group_333" data-name="Group 333" transform="translate(25.196 23.886)">
      <path id="Path_337" data-name="Path 337" d="M331.391,400.921a6.5,6.5,0,1,1-6.5-6.5A6.5,6.5,0,0,1,331.391,400.921Z" transform="translate(-318.39 -394.42)" fill="#fff"/>
    </g>
    <g id="Group_334" data-name="Group 334" transform="translate(46.069 44.076)">
      <ellipse id="Ellipse_30" data-name="Ellipse 30" cx="6.501" cy="6.501" rx="6.501" ry="6.501" fill="#fff"/>
    </g>
    <g id="Group_335" data-name="Group 335" transform="translate(49.858 47.866)">
      <ellipse id="Ellipse_31" data-name="Ellipse 31" cx="2.711" cy="2.711" rx="2.711" ry="2.711" fill="#4396ca"/>
    </g>
    <g id="Group_336" data-name="Group 336" transform="translate(28.986 27.675)">
      <path id="Path_338" data-name="Path 338" d="M330.032,403.351a2.711,2.711,0,1,1-2.711-2.711A2.713,2.713,0,0,1,330.032,403.351Z" transform="translate(-324.61 -400.64)" fill="#4396ca"/>
    </g>
  </g>
  <g id="Group_343" data-name="Group 343" transform="translate(138.178 14.022)">
    <g id="Group_339" data-name="Group 339" transform="translate(0 0)">
      <g id="Group_338" data-name="Group 338">
        <circle id="Ellipse_32" data-name="Ellipse 32" cx="48.386" cy="48.386" r="48.386" transform="translate(0 68.428) rotate(-45)" fill="#ffd56c"/>
      </g>
    </g>
    <g id="Group_342" data-name="Group 342" transform="translate(34.564 49.194)">
      <g id="Group_340" data-name="Group 340">
        <path id="Path_339" data-name="Path 339" d="M492.439,347.666S479.1,367.363,455.9,366.1c-21.293-1.17-32.723-18.43-32.723-18.43s9.529-21.6,32.723-22.237C482.91,324.685,492.439,347.666,492.439,347.666Z" transform="translate(-423.18 -325.411)" fill="#fff"/>
      </g>
      <g id="Group_341" data-name="Group 341" transform="translate(20.647 6.08)">
        <ellipse id="Ellipse_33" data-name="Ellipse 33" cx="14.616" cy="14.616" rx="14.616" ry="14.616" fill="#ffd56c"/>
      </g>
    </g>
  </g>
  <g id="Group_347" data-name="Group 347" transform="translate(46.695 74.115)">
    <g id="Group_345" data-name="Group 345">
      <g id="Group_344" data-name="Group 344">
        <path id="Path_340" data-name="Path 340" d="M257.39,363.85a20.55,20.55,0,1,1-20.55-20.55A20.549,20.549,0,0,1,257.39,363.85Z" transform="translate(-216.29 -343.3)" fill="#ffcb2f"/>
      </g>
    </g>
    <g id="Group_346" data-name="Group 346" transform="translate(14.415 8.321)">
      <path id="Path_341" data-name="Path 341" d="M245.555,371.264c0-1.286.049-1.566-1.237-2.017-2.5-.908-4.368-2.626-4.368-5.374a5.567,5.567,0,0,1,4.77-5.55c.481-.1.755-.2.786-.859.024-.554.859-.506,1.31-.506.506,0,.451.225.451.6,0,.682.883.579,1.639.707.4.079,3.028.53,3.028,1.109,0,.2-1.011,3.156-1.365,3.156-.6,0-1.237-1.036-2.675-1.036-.634,0-.53.859-.53,1.261v2.193c0,1.188.079,1.566,1.286,2.017,2.949,1.036,4.868,2.955,4.868,6.056,0,3.582-2.321,6.007-5.27,6.007-.554,0-.78.4-.78,1.011,0,.634-.4.506-.932.506-.481,0-.859.128-.883-.426-.024-.835-.426-1.084-1.286-1.084-1.413,0-4.064-1.237-4.064-1.718,0-.579.859-3.984,1.316-3.984.957,0,1.59,1.487,3.253,1.487.755,0,.682-.707.682-1.212v-2.346Zm0-8.523c0-.731.128-1.237-.506-1.237-1.133,0-1.688,1.109-1.688,2.145a2.492,2.492,0,0,0,1.742,2.169c.378,0,.457-.932.457-1.663v-1.413Zm1.816,11.1c0,.579,0,.981.731.981a1.953,1.953,0,0,0,2.017-1.992,2.918,2.918,0,0,0-2.248-2.272c-.554,0-.506.481-.506.987v2.3Z" transform="translate(-239.95 -356.958)" fill="#fff"/>
    </g>
  </g>
  <g id="Group_351" data-name="Group 351" transform="translate(150.913 2.559)">
    <g id="Group_349" data-name="Group 349">
      <g id="Group_348" data-name="Group 348">
        <ellipse id="Ellipse_34" data-name="Ellipse 34" cx="17.839" cy="17.839" rx="17.839" ry="17.839" fill="#cdeefc"/>
      </g>
    </g>
    <g id="Group_350" data-name="Group 350" transform="translate(4.768 9.823)">
      <path id="Path_342" data-name="Path 342" d="M416.922,242.051c.865.286,1.45,2.1.8,5s-1.608,9.5-1.608,9.5H413.7s1.127-7.086-1.127-7.731-3.7,7.731-8.858,7.731-8.377.158-8.536-1.285,6.927-2.736,9.827-6.446C409.282,243.342,415.472,241.563,416.922,242.051Z" transform="translate(-395.176 -241.974)" fill="#fff"/>
    </g>
  </g>
  <g id="Group_357" data-name="Group 357" transform="translate(102.813 30.2)">
    <g id="Group_353" data-name="Group 353">
      <g id="Group_352" data-name="Group 352">
        <path id="Path_343" data-name="Path 343" d="M361.234,297.637a26.417,26.417,0,1,1-26.417-26.417A26.415,26.415,0,0,1,361.234,297.637Z" transform="translate(-308.4 -271.22)" fill="#062c3f"/>
      </g>
    </g>
    <g id="Group_356" data-name="Group 356" transform="translate(9.011 14.409)">
      <g id="Group_354" data-name="Group 354">
        <path id="Path_344" data-name="Path 344" d="M354.591,318.637H325.9a2.709,2.709,0,0,1-2.711-2.711V297.581a2.709,2.709,0,0,1,2.711-2.711h28.689a2.713,2.713,0,0,1,2.711,2.711v18.344A2.709,2.709,0,0,1,354.591,318.637Zm-25.984-5.416h23.273V300.292H328.606Z" transform="translate(-323.19 -294.87)" fill="#fff"/>
      </g>
      <g id="Group_355" data-name="Group 355" transform="translate(1.078 0.548)">
        <path id="Path_345" data-name="Path 345" d="M341.343,311.714a2.719,2.719,0,0,1-1.627-.542L324.96,300.1l3.253-4.332,13.081,9.815,12.3-9.766,3.369,4.24-13.94,11.07A2.689,2.689,0,0,1,341.343,311.714Z" transform="translate(-324.96 -295.77)" fill="#fff"/>
      </g>
    </g>
  </g>
  <g id="Group_363" data-name="Group 363" transform="translate(331.317 52.505)">
    <g id="Group_360" data-name="Group 360">
      <g id="Group_359" data-name="Group 359">
        <g id="Group_358" data-name="Group 358">
          <ellipse id="Ellipse_35" data-name="Ellipse 35" cx="29.201" cy="29.201" rx="29.201" ry="29.201" fill="#062c3f"/>
        </g>
      </g>
    </g>
    <g id="Group_361" data-name="Group 361" transform="translate(7.969 7.969)">
      <path id="Path_346" data-name="Path 346" d="M717.772,363.374A21.232,21.232,0,1,1,739,342.142,21.257,21.257,0,0,1,717.772,363.374Zm0-37.048a15.816,15.816,0,1,0,15.816,15.816A15.834,15.834,0,0,0,717.772,326.326Z" transform="translate(-696.54 -320.91)" fill="#fff"/>
    </g>
    <g id="Group_362" data-name="Group 362" transform="translate(19.463 21.033)">
      <path id="Path_347" data-name="Path 347" d="M725.144,353.226a2.68,2.68,0,0,1-1.219-.292l-7.031-3.546a2.708,2.708,0,1,1,2.437-4.837l5.751,2.9,8.609-4.758a2.708,2.708,0,0,1,2.62,4.74l-9.858,5.453A2.613,2.613,0,0,1,725.144,353.226Z" transform="translate(-715.406 -342.353)" fill="#fff"/>
    </g>
  </g>
  <g id="Group_369" data-name="Group 369" transform="translate(247.685 7.031)">
    <g id="Group_365" data-name="Group 365" transform="translate(0 0)">
      <g id="Group_364" data-name="Group 364">
        <ellipse id="Ellipse_36" data-name="Ellipse 36" cx="34.392" cy="34.392" rx="34.392" ry="34.392" transform="translate(0 26.324) rotate(-22.5)" fill="#a6e2f7"/>
      </g>
    </g>
    <g id="Group_368" data-name="Group 368" transform="translate(27.564 27.617)">
      <g id="Group_366" data-name="Group 366" transform="translate(0 0.3)">
        <path id="Path_348" data-name="Path 348" d="M616.312,318.112a2.688,2.688,0,0,1-1.913-.792l-7.3-7.3-6.726,6.726a2.707,2.707,0,0,1-4.6-1.56l-4.32-33.119a2.706,2.706,0,0,1,5.367-.7l3.607,27.666,4.752-4.752a2.706,2.706,0,0,1,3.832,0l7.3,7.3,3.558-3.558a2.71,2.71,0,0,1,3.832,3.832l-5.471,5.471A2.722,2.722,0,0,1,616.312,318.112Z" transform="translate(-591.432 -279.012)" fill="#fff"/>
      </g>
      <g id="Group_367" data-name="Group 367" transform="translate(0.292)">
        <path id="Path_349" data-name="Path 349" d="M622.836,311.584a2.708,2.708,0,0,1-1.913-4.624l3.558-3.558-7.3-7.3a2.706,2.706,0,0,1,0-3.832l4.752-4.752-27.666-3.607a2.706,2.706,0,0,1,.7-5.367l33.119,4.32a2.707,2.707,0,0,1,1.56,4.6l-6.726,6.726,7.3,7.3a2.706,2.706,0,0,1,0,3.826l-5.471,5.471A2.66,2.66,0,0,1,622.836,311.584Z" transform="translate(-591.912 -278.519)" fill="#fff"/>
      </g>
    </g>
  </g>
  <g id="Group_384" data-name="Group 384" transform="translate(265.555 181.787)">
    <g id="Group_370" data-name="Group 370" transform="translate(18.996 120.923)">
      <path id="Path_350" data-name="Path 350" d="M708.3,761.346H612.116a5.416,5.416,0,0,1,0-10.832H708.3a10.437,10.437,0,0,0,10.424-10.43v-.317A10.436,10.436,0,0,0,708.3,729.342H612.116a5.416,5.416,0,0,1,0-10.832H708.3a21.29,21.29,0,0,1,21.263,21.263v.317A21.283,21.283,0,0,1,708.3,761.346Z" transform="translate(-606.7 -718.51)" fill="#efc30a"/>
    </g>
    <g id="Group_371" data-name="Group 371" transform="translate(0 31.821)">
      <path id="Path_351" data-name="Path 351" d="M705.917,672.14a3.936,3.936,0,0,1-1.176-.177,4.058,4.058,0,0,1-2.711-5.063l26.155-86.519H585.353l16.669,86.927a4.064,4.064,0,1,1-7.981,1.535L575.52,572.26H739.127L709.8,669.252A4.066,4.066,0,0,1,705.917,672.14Z" transform="translate(-575.52 -572.26)" fill="#efc30a"/>
    </g>
    <g id="Group_372" data-name="Group 372" transform="translate(154.072 2.705)">
      <path id="Path_352" data-name="Path 352" d="M832.474,561.713a4.127,4.127,0,0,1-1.365-.238,4.06,4.06,0,0,1-2.461-5.191l11.344-31.815h27.051a4.064,4.064,0,0,1,0,8.127H845.725l-9.419,26.417A4.074,4.074,0,0,1,832.474,561.713Z" transform="translate(-828.409 -524.47)" fill="#efc30a"/>
    </g>
    <g id="Group_373" data-name="Group 373" transform="translate(185.972)">
      <path id="Path_353" data-name="Path 353" d="M910.3,533.567H887.539a6.769,6.769,0,0,1,0-13.537H910.3a6.769,6.769,0,0,1,0,13.537Z" transform="translate(-880.77 -520.03)" fill="#efc30a"/>
    </g>
    <g id="Group_374" data-name="Group 374" transform="translate(103.907 167.512)">
      <path id="Path_354" data-name="Path 354" d="M746.07,814.257a19.277,19.277,0,1,0,19.277-19.277A19.276,19.276,0,0,0,746.07,814.257Z" transform="translate(-746.07 -794.98)" fill="#78d6ef"/>
    </g>
    <g id="Group_375" data-name="Group 375" transform="translate(13.239 167.512)">
      <ellipse id="Ellipse_37" data-name="Ellipse 37" cx="19.277" cy="19.277" rx="19.277" ry="19.277" fill="#78d6ef"/>
    </g>
    <g id="Group_376" data-name="Group 376" transform="translate(114.191 177.79)">
      <path id="Path_355" data-name="Path 355" d="M762.95,820.849a9,9,0,1,0,9-9A9,9,0,0,0,762.95,820.849Z" transform="translate(-762.95 -811.85)" fill="#fff"/>
    </g>
    <g id="Group_377" data-name="Group 377" transform="translate(22.579 177.79)">
      <circle id="Ellipse_38" data-name="Ellipse 38" cx="8.999" cy="8.999" r="8.999" fill="#fff"/>
    </g>
    <g id="Group_378" data-name="Group 378" transform="translate(106.972 35.27)">
      <path id="Path_356" data-name="Path 356" d="M755.17,672.043a3.941,3.941,0,0,1-.7-.061,4.061,4.061,0,0,1-3.308-4.7l14.957-86a4.063,4.063,0,0,1,8.005,1.389l-14.957,86A4.069,4.069,0,0,1,755.17,672.043Z" transform="translate(-751.101 -577.921)" fill="#efc30a"/>
    </g>
    <g id="Group_379" data-name="Group 379" transform="translate(85.943 34.331)">
      <path id="Path_357" data-name="Path 357" d="M720.646,669.57a1.971,1.971,0,0,1-.268-.012,4.059,4.059,0,0,1-3.783-4.32l5.611-85.063a4.06,4.06,0,0,1,8.1.536L724.7,665.774A4.063,4.063,0,0,1,720.646,669.57Z" transform="translate(-716.584 -576.38)" fill="#efc30a"/>
    </g>
    <g id="Group_380" data-name="Group 380" transform="translate(28.451 35.264)">
      <path id="Path_358" data-name="Path 358" d="M639.833,672.039a4.06,4.06,0,0,1-4.009-3.43l-13.556-86a4.065,4.065,0,0,1,8.03-1.267l13.556,86a4.068,4.068,0,0,1-3.381,4.649A3.893,3.893,0,0,1,639.833,672.039Z" transform="translate(-622.219 -577.911)" fill="#efc30a"/>
    </g>
    <g id="Group_381" data-name="Group 381" transform="translate(60.231 34.329)">
      <path id="Path_359" data-name="Path 359" d="M682.648,669.569a4.057,4.057,0,0,1-4.051-3.863l-4.21-85.063a4.063,4.063,0,1,1,8.115-.4l4.21,85.063a4.061,4.061,0,0,1-3.857,4.259C682.782,669.569,682.715,669.569,682.648,669.569Z" transform="translate(-674.382 -576.377)" fill="#efc30a"/>
    </g>
    <g id="Group_382" data-name="Group 382" transform="translate(10.223 61.436)">
      <path id="Path_360" data-name="Path 360" d="M730.971,629H596.364a4.064,4.064,0,1,1,0-8.127H730.971a4.064,4.064,0,1,1,0,8.127Z" transform="translate(-592.3 -620.87)" fill="#efc30a"/>
    </g>
    <g id="Group_383" data-name="Group 383" transform="translate(14.896 91.35)">
      <path id="Path_361" data-name="Path 361" d="M722.751,678.1H604.034a4.064,4.064,0,0,1,0-8.127H722.751a4.064,4.064,0,0,1,0,8.127Z" transform="translate(-599.97 -669.97)" fill="#efc30a"/>
    </g>
  </g>
  <g id="Group_385" data-name="Group 385" transform="translate(70.151 48.679)">
    <ellipse id="Ellipse_39" data-name="Ellipse 39" cx="8.066" cy="8.066" rx="8.066" ry="8.066" fill="#4396ca"/>
  </g>
  <g id="Group_386" data-name="Group 386" transform="translate(389.427 104.486)">
    <path id="Path_362" data-name="Path 362" d="M797.8,402.63a9.48,9.48,0,1,1-9.48-9.48A9.483,9.483,0,0,1,797.8,402.63Z" transform="translate(-778.84 -393.15)" fill="#025482"/>
  </g>
  <g id="Group_387" data-name="Group 387" transform="translate(197.843 7.999)">
    <path id="Path_363" data-name="Path 363" d="M477.917,241.549a6.769,6.769,0,1,1-6.769-6.769A6.769,6.769,0,0,1,477.917,241.549Z" transform="translate(-464.38 -234.78)" fill="#025482"/>
  </g>
  <g id="Group_388" data-name="Group 388" transform="translate(425.092 147.821)">
    <path id="Path_364" data-name="Path 364" d="M850.016,470.6a6.318,6.318,0,1,1-6.318-6.318A6.316,6.316,0,0,1,850.016,470.6Z" transform="translate(-837.38 -464.28)" fill="#97e4ff"/>
  </g>
  <g id="Group_389" data-name="Group 389" transform="translate(258.104 161.7)">
    <ellipse id="Ellipse_40" data-name="Ellipse 40" cx="7.22" cy="7.22" rx="7.22" ry="7.22" fill="#ffd56c"/>
  </g>
  <g id="Group_400" data-name="Group 400" transform="translate(319.089 115.409)">
    <g id="Group_390" data-name="Group 390" transform="translate(0 0)">
      <ellipse id="Ellipse_41" data-name="Ellipse 41" cx="41.075" cy="41.075" rx="41.075" ry="41.075" transform="translate(0 79.949) rotate(-76.714)" fill="#97e4ff"/>
    </g>
    <g id="Group_399" data-name="Group 399" transform="translate(15.938 20.82)">
      <g id="Group_391" data-name="Group 391" transform="translate(0 21.352)">
        <path id="Path_365" data-name="Path 365" d="M704.873,510.945A15.323,15.323,0,1,1,720.2,495.622,15.338,15.338,0,0,1,704.873,510.945Zm0-25.223a9.906,9.906,0,1,0,9.906,9.906A9.918,9.918,0,0,0,704.873,485.722Z" transform="translate(-689.55 -480.3)" fill="#fff"/>
      </g>
      <g id="Group_392" data-name="Group 392" transform="translate(34.952 22.034)">
        <path id="Path_366" data-name="Path 366" d="M762.243,512.065a15.323,15.323,0,1,1,15.323-15.323A15.338,15.338,0,0,1,762.243,512.065Zm0-25.223a9.906,9.906,0,1,0,9.906,9.906A9.918,9.918,0,0,0,762.243,486.842Z" transform="translate(-746.92 -481.42)" fill="#fff"/>
      </g>
      <g id="Group_393" data-name="Group 393" transform="translate(13.688 16.664)">
        <path id="Path_367" data-name="Path 367" d="M736.4,494.852h-.031l-21.677-.256a2.711,2.711,0,0,1-2.339-4.021L721.535,474a2.711,2.711,0,0,1,2.187-1.389,2.662,2.662,0,0,1,2.352,1.084l12.5,16.827a2.711,2.711,0,0,1-2.169,4.326Zm-17.108-5.617,11.673.134-6.732-9.066Z" transform="translate(-712.017 -472.606)" fill="#fff"/>
      </g>
      <g id="Group_394" data-name="Group 394" transform="translate(19.292 5.448)">
        <path id="Path_368" data-name="Path 368" d="M733.36,462.673a2.657,2.657,0,0,1-.835-.134l-9.437-3.058a2.709,2.709,0,0,1,1.669-5.154l9.431,3.058a2.71,2.71,0,0,1-.829,5.288Z" transform="translate(-721.215 -454.196)" fill="#fff"/>
      </g>
      <g id="Group_395" data-name="Group 395" transform="translate(47.572 5.443)">
        <path id="Path_369" data-name="Path 369" d="M770.342,487.655a2.376,2.376,0,0,1-.3-.018,2.71,2.71,0,0,1-2.394-2.991l3.1-28.05a2.709,2.709,0,1,1,5.386.6l-3.1,28.05A2.718,2.718,0,0,1,770.342,487.655Z" transform="translate(-767.633 -454.188)" fill="#fff"/>
      </g>
      <g id="Group_396" data-name="Group 396" transform="translate(44.2)">
        <path id="Path_370" data-name="Path 370" d="M779.762,460.873a2.713,2.713,0,0,1-1.523-.469l-14.957-10.2a2.71,2.71,0,0,1,3.052-4.478l14.957,10.2a2.708,2.708,0,0,1-1.529,4.947Z" transform="translate(-762.099 -445.254)" fill="#fff"/>
      </g>
      <g id="Group_397" data-name="Group 397" transform="translate(38.072 33.494)">
        <rect id="Rectangle_163" data-name="Rectangle 163" width="12.209" height="5.416" fill="#fff"/>
      </g>
      <g id="Group_398" data-name="Group 398" transform="translate(23.121 7.735)">
        <path id="Path_371" data-name="Path 371" d="M730.211,472.8a2.713,2.713,0,0,1-2.711-2.711v-9.431a2.711,2.711,0,1,1,5.422,0V470.1A2.716,2.716,0,0,1,730.211,472.8Z" transform="translate(-727.5 -457.95)" fill="#fff"/>
      </g>
    </g>
  </g>
  <g id="Group_406" data-name="Group 406" transform="translate(270.033 93.501)">
    <g id="Group_401" data-name="Group 401">
      <path id="Path_372" data-name="Path 372" d="M643.356,405.363a30.243,30.243,0,1,1-30.243-30.243A30.243,30.243,0,0,1,643.356,405.363Z" transform="translate(-582.87 -375.12)" fill="#ffcb2f"/>
    </g>
    <g id="Group_405" data-name="Group 405" transform="translate(7.22 20.83)">
      <g id="Group_402" data-name="Group 402">
        <path id="Path_373" data-name="Path 373" d="M604.846,429.561a10.126,10.126,0,1,1,10.126-10.126A10.137,10.137,0,0,1,604.846,429.561Zm0-14.835a4.709,4.709,0,1,0,4.709,4.709A4.717,4.717,0,0,0,604.846,414.726Z" transform="translate(-594.72 -409.31)" fill="#fff"/>
      </g>
      <g id="Group_403" data-name="Group 403" transform="translate(23.986)">
        <path id="Path_374" data-name="Path 374" d="M644.216,429.561a10.126,10.126,0,1,1,10.126-10.126A10.137,10.137,0,0,1,644.216,429.561Zm0-14.835a4.709,4.709,0,1,0,4.709,4.709A4.717,4.717,0,0,0,644.216,414.726Z" transform="translate(-634.09 -409.31)" fill="#fff"/>
      </g>
      <g id="Group_404" data-name="Group 404" transform="translate(18.411 7.415)">
        <rect id="Rectangle_164" data-name="Rectangle 164" width="7.415" height="5.416" fill="#fff"/>
      </g>
    </g>
  </g>
</svg>
