<?xml version="1.0" encoding="utf-8"?>
<!-- Generator: Adobe Illustrator 24.0.1, SVG Export Plug-In . SVG Version: 6.00 Build 0)  -->
<svg version="1.1" id="Layer_1" xmlns="http://www.w3.org/2000/svg" xmlns:xlink="http://www.w3.org/1999/xlink" x="0px" y="0px"
	 viewBox="0 0 1080 1080" style="enable-background:new 0 0 1080 1080;" xml:space="preserve">
<style type="text/css">
	.st0{fill:#025482;}
	.st1{fill:#062C3F;}
	.st2{fill:#4396CA;}
	.st3{fill:#03436B;}
	.st4{fill:#FFFFFF;}
	.st5{fill:#FFCB2F;}
	.st6{fill:#FFD56C;}
	.st7{fill:#CDEEFC;}
	.st8{fill:#0C618C;}
	.st9{fill:#97E4FF;}
</style>
<g>
	<g>
		<g>
			<polygon class="st0" points="98.05,822.84 140.16,783.86 477.02,783.86 514.17,822.84 			"/>
		</g>
		<g>
			<path class="st1" d="M471.75,788.3H140.47c-5.47,0-9.9-4.58-9.9-10.23V570.67c0-5.65,4.43-10.23,9.9-10.23h331.28
				c5.47,0,9.9,4.58,9.9,10.23v207.39C481.65,783.72,477.22,788.3,471.75,788.3z"/>
		</g>
		<g>
			<path class="st2" d="M458.9,779.75H153.32c-5.04,0-9.13-4.09-9.13-9.13V585.56c0-5.04,4.09-9.13,9.13-9.13H458.9
				c5.04,0,9.13,4.09,9.13,9.13v185.06C468.03,775.66,463.94,779.75,458.9,779.75z"/>
		</g>
		<g>
			<path class="st0" d="M309.83,567.13c0,2.05-1.66,3.72-3.72,3.72c-2.05,0-3.72-1.66-3.72-3.72c0-2.05,1.66-3.72,3.72-3.72
				C308.16,563.42,309.83,565.08,309.83,567.13z"/>
		</g>
		<g>
			<path class="st1" d="M492.85,853.86H119.37c-11.78,0-21.32-9.55-21.32-21.32v-9.69h416.12v9.69
				C514.17,844.31,504.62,853.86,492.85,853.86z"/>
		</g>
		<g>
			<path class="st3" d="M234.28,788.19c0,2.05-1.66,3.71-3.71,3.71h-42.11c-2.05,0-3.72-1.66-3.72-3.71l0,0
				c0-2.05,1.66-3.72,3.72-3.72h42.11C232.62,784.48,234.28,786.14,234.28,788.19L234.28,788.19z"/>
		</g>
		<g>
			<path class="st3" d="M433.67,788.19c0,2.05-1.66,3.71-3.72,3.71h-42.11c-2.05,0-3.72-1.66-3.72-3.71l0,0
				c0-2.05,1.66-3.72,3.72-3.72h42.11C432.01,784.48,433.67,786.14,433.67,788.19L433.67,788.19z"/>
		</g>
		<g>
			<polygon class="st2" points="257.19,817.27 271.03,804.46 342.82,804.46 355.03,817.27 			"/>
		</g>
		<g>
			<rect x="295.28" y="796.13" class="st4" width="23.21" height="2.15"/>
		</g>
		<g>
			<g>
				<rect x="125.92" y="812.78" class="st4" width="26.01" height="2.14"/>
			</g>
			<g>
				<rect x="147.91" y="796.13" class="st4" width="23.21" height="2.15"/>
			</g>
			<g>
				<rect x="138" y="803.72" class="st4" width="23.21" height="2.15"/>
			</g>
			<g>
				<rect x="193.11" y="796.13" class="st4" width="23.21" height="2.15"/>
			</g>
			<g>
				<rect x="181.35" y="803.72" class="st4" width="23.21" height="2.15"/>
			</g>
			<g>
				<rect x="209.51" y="812.78" class="st4" width="26.01" height="2.14"/>
			</g>
			<g>
				<rect x="237.08" y="796.13" class="st4" width="23.21" height="2.15"/>
			</g>
			<g>
				<rect x="225.31" y="803.72" class="st4" width="23.21" height="2.15"/>
			</g>
			<g>
				<rect x="168.02" y="814.63" class="st4" width="26.01" height="2.14"/>
			</g>
		</g>
		<g>
			<g>
				<rect x="464.63" y="812.78" class="st4" width="26.01" height="2.14"/>
			</g>
			<g>
				<rect x="445.44" y="796.13" class="st4" width="23.21" height="2.15"/>
			</g>
			<g>
				<rect x="455.34" y="803.72" class="st4" width="23.21" height="2.15"/>
			</g>
			<g>
				<rect x="400.23" y="796.13" class="st4" width="23.21" height="2.15"/>
			</g>
			<g>
				<rect x="412" y="803.72" class="st4" width="23.21" height="2.15"/>
			</g>
			<g>
				<rect x="381.04" y="812.78" class="st4" width="26.01" height="2.14"/>
			</g>
			<g>
				<rect x="356.27" y="796.13" class="st4" width="23.21" height="2.15"/>
			</g>
			<g>
				<rect x="368.03" y="803.72" class="st4" width="23.21" height="2.15"/>
			</g>
			<g>
				<rect x="422.52" y="814.63" class="st4" width="26.01" height="2.14"/>
			</g>
		</g>
	</g>
	<g>
		<g>
			<g>
				<path class="st2" d="M868.79,527.46c0,23.9-19.37,43.27-43.27,43.27c-23.9,0-43.27-19.37-43.27-43.27
					c0-23.9,19.37-43.27,43.27-43.27C849.42,484.19,868.79,503.56,868.79,527.46z"/>
			</g>
		</g>
		<g>
			<path class="st4" d="M821.66,543.69c-0.95,0-1.9-0.31-2.68-0.94l-15.75-12.6c-1.85-1.48-2.15-4.18-0.67-6.03
				c1.48-1.85,4.18-2.15,6.03-0.67l13.22,10.58l24.93-17.81c1.92-1.38,4.61-0.93,5.98,1c1.38,1.93,0.93,4.61-1,5.98l-27.57,19.69
				C823.41,543.43,822.53,543.69,821.66,543.69z"/>
		</g>
	</g>
	<g>
		<g>
			
				<ellipse transform="matrix(0.7071 -0.7071 0.7071 0.7071 -170.7035 318.1956)" class="st5" cx="298.74" cy="365.16" rx="67.05" ry="67.04"/>
		</g>
		<g>
			<polygon class="st4" points="298.74,317.97 313.01,346.88 344.91,351.51 321.83,374.01 327.28,405.79 298.74,390.79 
				270.21,405.79 275.66,374.01 252.58,351.51 284.48,346.88 			"/>
		</g>
	</g>
	<g>
		<g>
			<g>
				<path class="st2" d="M221.03,520.71c0,14.52-11.77,26.29-26.29,26.29c-14.52,0-26.29-11.77-26.29-26.29
					c0-14.52,11.77-26.29,26.29-26.29C209.26,494.42,221.03,506.19,221.03,520.71z"/>
			</g>
		</g>
		<g>
			<path class="st4" d="M206.28,511.19c-3.94-2.12-9.1,0.54-11.51,4.21c-2.41-3.67-7.84-6.32-11.78-4.21
				c-4.17,2.24-5.15,6.58-2.91,10.75c2.24,4.17,14.67,14.32,14.69,14.19c0.02,0.12,12.46-10.03,14.69-14.19
				C211.71,517.77,210.45,513.42,206.28,511.19z"/>
		</g>
	</g>
	<g>
		<g>
			<g>
				<circle class="st2" cx="661.31" cy="356.26" r="74.55"/>
			</g>
		</g>
		<g>
			<path class="st4" d="M694.05,329.25c-11.17-6-25.8,1.53-32.64,11.93c-6.83-10.4-22.24-17.93-33.41-11.93
				c-11.82,6.35-14.61,18.66-8.26,30.48c6.35,11.82,41.6,40.6,41.67,40.25c0.07,0.35,35.32-28.44,41.67-40.25
				C709.42,347.91,705.86,335.59,694.05,329.25z"/>
		</g>
	</g>
	<g>
		<g>
			<g>
				<path class="st0" d="M797.18,334.43c0,13.53-10.97,24.5-24.5,24.5s-24.5-10.97-24.5-24.5c0-13.53,10.97-24.5,24.5-24.5
					S797.18,320.89,797.18,334.43z"/>
			</g>
		</g>
		<g>
			<g>
				<rect x="769.88" y="320.86" class="st4" width="5.59" height="27.14"/>
			</g>
			<g>
				<rect x="759.11" y="331.63" class="st4" width="27.14" height="5.59"/>
			</g>
		</g>
	</g>
	<g>
		<g>
			<g>
				<path class="st0" d="M335.77,499.33c0,26.56-21.53,48.1-48.1,48.1c-26.56,0-48.1-21.53-48.1-48.1c0-26.56,21.53-48.1,48.1-48.1
					C314.24,451.24,335.77,472.77,335.77,499.33z"/>
			</g>
		</g>
		<g>
			<g>
				<rect x="282.19" y="472.7" class="st4" width="10.97" height="53.27"/>
			</g>
			<g>
				<rect x="261.04" y="493.85" class="st4" width="53.27" height="10.97"/>
			</g>
		</g>
	</g>
	<g>
		<g>
			<g>
				<g>
					<circle class="st1" cx="185.61" cy="436.27" r="46.25"/>
				</g>
			</g>
		</g>
		<g>
			<path class="st4" d="M211.35,457.39h-50.33c-2.37,0-4.29-1.92-4.29-4.29v-32.18c0-2.37,1.92-4.29,4.29-4.29h50.33
				c2.37,0,4.29,1.92,4.29,4.29v32.18C215.64,455.47,213.72,457.39,211.35,457.39z M165.31,448.81h41.75v-23.6h-41.75V448.81z"/>
		</g>
		<g>
			<path class="st4" d="M193.97,436.18c0,3.95-3.2,7.15-7.15,7.15c-3.95,0-7.15-3.2-7.15-7.15c0-3.95,3.2-7.15,7.15-7.15
				C190.77,429.03,193.97,432.23,193.97,436.18z"/>
		</g>
		<g>
			<path class="st4" d="M199.75,424.35c-2.96,0-5.36-2.4-5.36-5.36v-3.85c0-2.96,2.4-5.36,5.36-5.36c2.96,0,5.36,2.4,5.36,5.36v3.85
				C205.11,421.95,202.71,424.35,199.75,424.35z"/>
		</g>
	</g>
	<g>
		<g>
			<g>
				<path class="st6" d="M839.7,430.02c0,26.93-21.83,48.75-48.75,48.75c-26.92,0-48.75-21.83-48.75-48.75s21.83-48.75,48.75-48.75
					C817.87,381.27,839.7,403.09,839.7,430.02z"/>
			</g>
		</g>
		<g>
			<g>
				<path class="st4" d="M826.61,433.06c0,0-13.45,19.85-36.82,18.57c-21.45-1.18-32.97-18.57-32.97-18.57s9.6-21.77,32.97-22.41
					C817,409.91,826.61,433.06,826.61,433.06z"/>
			</g>
			<g>
				<path class="st6" d="M807.08,431.49c0,8.13-6.59,14.73-14.73,14.73s-14.73-6.59-14.73-14.73c0-8.13,6.59-14.73,14.73-14.73
					S807.08,423.36,807.08,431.49z"/>
			</g>
		</g>
	</g>
	<g>
		<g>
			<g>
				<circle class="st7" cx="428.84" cy="316.16" r="55.07"/>
			</g>
		</g>
		<g>
			<path class="st4" d="M455.62,291.65c2.67,0.89,4.48,6.46,2.49,15.41c-1.99,8.95-4.97,29.33-4.97,29.33h-7.46
				c0,0,3.48-21.88-3.48-23.87c-6.96-1.99-11.44,23.87-27.35,23.87c-15.91,0-25.85,0.5-26.35-3.98c-0.5-4.47,21.38-8.45,30.33-19.89
				C432.04,295.64,451.14,290.16,455.62,291.65z"/>
		</g>
	</g>
	<g>
		<g>
			<g>
				<circle class="st1" cx="698.14" cy="507.37" r="53.99"/>
			</g>
		</g>
		<g>
			<g>
				<path class="st4" d="M726.74,530.17h-58.65c-2.37,0-4.29-1.92-4.29-4.29v-37.5c0-2.37,1.92-4.29,4.29-4.29h58.65
					c2.37,0,4.29,1.92,4.29,4.29v37.5C731.03,528.25,729.11,530.17,726.74,530.17z M672.38,521.59h50.07v-28.92h-50.07V521.59z"/>
			</g>
			<g>
				<path class="st4" d="M698.25,515.3c-0.91,0-1.81-0.29-2.57-0.86l-30.16-22.63l5.15-6.86l27.51,20.64l25.9-20.57l5.34,6.72
					l-28.49,22.63C700.14,514.99,699.2,515.3,698.25,515.3z"/>
			</g>
		</g>
	</g>
	<g>
		<g>
			<g>
				<g>
					<path class="st1" d="M576.96,379.52c0.42,26-20.32,47.41-46.32,47.83c-26,0.42-47.42-20.32-47.83-46.32
						c-0.42-26,20.32-47.41,46.32-47.83C555.13,332.78,576.54,353.52,576.96,379.52z"/>
				</g>
			</g>
		</g>
		<g>
			<path class="st4" d="M529.87,414.43c-18.53,0-33.85-15.08-34.14-33.61c-0.3-18.83,14.78-34.4,33.61-34.7l0.56,0
				c18.53,0,33.85,15.08,34.14,33.61c0.3,18.83-14.78,34.4-33.61,34.7L529.87,414.43z M529.89,354.7l-0.42,0
				c-14.1,0.22-25.39,11.88-25.17,25.98c0.22,13.88,11.69,25.17,25.56,25.17l0.42,0c14.1-0.22,25.39-11.88,25.17-25.98
				C555.23,365.99,543.76,354.7,529.89,354.7z"/>
		</g>
		<g>
			<path class="st4" d="M529.88,384.57c-0.64,0-1.28-0.14-1.87-0.43l-11.42-5.53c-2.13-1.03-3.02-3.6-1.99-5.73
				c1.03-2.13,3.6-3.02,5.73-1.99l9.38,4.54l13.79-7.91c2.05-1.18,4.68-0.47,5.85,1.59c1.18,2.05,0.47,4.68-1.59,5.85L532.01,384
				C531.36,384.38,530.62,384.57,529.88,384.57z"/>
		</g>
	</g>
	<g>
		<g>
			<path class="st8" d="M827.56,785.91H682.53c-4.74,0-8.58-3.84-8.58-8.58c0-4.74,3.84-8.58,8.58-8.58h145.02
				c8.44,0,15.31-6.87,15.31-15.31v-0.48c0-8.44-6.87-15.31-15.31-15.31H682.53c-4.74,0-8.58-3.84-8.58-8.58
				c0-4.74,3.84-8.58,8.58-8.58h145.02c17.9,0,32.47,14.57,32.47,32.47v0.48C860.03,771.34,845.46,785.91,827.56,785.91z"/>
		</g>
		<g>
			<path class="st8" d="M842.33,737.47c-0.62,0-1.24-0.09-1.86-0.28c-3.4-1.03-5.33-4.62-4.3-8.02l39.32-130.05H660.92l25.06,130.7
				c0.67,3.49-1.62,6.86-5.11,7.53c-3.52,0.66-6.86-1.62-7.53-5.11l-28-146h247.48l-44.33,146.64
				C847.65,735.68,845.1,737.47,842.33,737.47z"/>
		</g>
		<g>
			<path class="st8" d="M884.16,599.12c-0.72,0-1.45-0.12-2.16-0.38c-3.35-1.19-5.09-4.87-3.9-8.22l17.18-48.17h41
				c3.55,0,6.43,2.88,6.43,6.43s-2.88,6.43-6.43,6.43h-31.93l-14.13,39.62C889.28,597.48,886.8,599.12,884.16,599.12z"/>
		</g>
		<g>
			<path class="st8" d="M970.66,559.51h-34.32c-5.92,0-10.72-4.8-10.72-10.72s4.8-10.72,10.72-10.72h34.32
				c5.92,0,10.72,4.8,10.72,10.72S976.58,559.51,970.66,559.51z"/>
		</g>
		<g>
			<path class="st2" d="M802.39,820.22c0,16.05,13.01,29.07,29.07,29.07c16.05,0,29.07-13.01,29.07-29.07
				c0-16.05-13.01-29.07-29.07-29.07C815.41,791.15,802.39,804.17,802.39,820.22z"/>
		</g>
		<g>
			<path class="st2" d="M665.68,820.22c0,16.05,13.01,29.07,29.07,29.07s29.07-13.01,29.07-29.07c0-16.05-13.01-29.07-29.07-29.07
				S665.68,804.17,665.68,820.22z"/>
		</g>
		<g>
			<path class="st4" d="M817.9,820.22c0,7.49,6.07,13.56,13.56,13.56c7.49,0,13.56-6.07,13.56-13.56c0-7.49-6.07-13.56-13.56-13.56
				C823.97,806.66,817.9,812.73,817.9,820.22z"/>
		</g>
		<g>
			<path class="st4" d="M679.77,820.22c0,7.49,6.07,13.56,13.56,13.56s13.56-6.07,13.56-13.56c0-7.49-6.07-13.56-13.56-13.56
				S679.77,812.73,679.77,820.22z"/>
		</g>
		<g>
			<path class="st8" d="M813.15,733.99c-0.37,0-0.74-0.03-1.11-0.1c-3.5-0.61-5.85-3.94-5.24-7.44l22.55-129.67
				c0.61-3.5,3.94-5.85,7.44-5.24c3.5,0.61,5.85,3.94,5.24,7.44l-22.55,129.67C818.94,731.78,816.22,733.99,813.15,733.99z"/>
		</g>
		<g>
			<path class="st8" d="M781.43,731.17c-0.14,0-0.28,0-0.43-0.01c-3.55-0.23-6.23-3.3-6-6.84l8.46-128.26
				c0.23-3.55,3.31-6.26,6.84-6c3.55,0.23,6.23,3.3,6,6.84l-8.46,128.26C787.62,728.56,784.79,731.17,781.43,731.17z"/>
		</g>
		<g>
			<path class="st8" d="M715.18,733.98c-3.11,0-5.85-2.26-6.35-5.43l-20.44-129.67c-0.55-3.51,1.85-6.8,5.36-7.36
				c3.52-0.54,6.81,1.85,7.36,5.36l20.44,129.67c0.55,3.51-1.85,6.8-5.36,7.36C715.85,733.96,715.51,733.98,715.18,733.98z"/>
		</g>
		<g>
			<path class="st8" d="M749,731.17c-3.41,0-6.25-2.68-6.42-6.12l-6.34-128.26c-0.18-3.55,2.56-6.57,6.11-6.74
				c3.49-0.19,6.57,2.56,6.74,6.11l6.34,128.26c0.18,3.55-2.56,6.57-6.11,6.74C749.22,731.16,749.11,731.17,749,731.17z"/>
		</g>
		<g>
			<path class="st8" d="M870.22,643.78H667.26c-3.55,0-6.43-2.88-6.43-6.43s2.88-6.43,6.43-6.43h202.96c3.55,0,6.44,2.88,6.44,6.43
				S873.78,643.78,870.22,643.78z"/>
		</g>
		<g>
			<path class="st8" d="M853.31,688.88h-179c-3.55,0-6.43-2.88-6.43-6.43s2.88-6.43,6.43-6.43h179c3.55,0,6.43,2.88,6.43,6.43
				S856.86,688.88,853.31,688.88z"/>
		</g>
	</g>
	<g>
		<path class="st9" d="M216.36,358.72c0,5.53-4.48,10.01-10.01,10.01s-10.01-4.48-10.01-10.01c0-5.53,4.48-10.01,10.01-10.01
			S216.36,353.19,216.36,358.72z"/>
	</g>
	<g>
		<path class="st6" d="M621.04,451.67c0,10.66-8.64,19.3-19.3,19.3s-19.3-8.64-19.3-19.3c0-10.66,8.64-19.3,19.3-19.3
			S621.04,441.01,621.04,451.67z"/>
	</g>
	<g>
		<circle class="st1" cx="344.34" cy="262.91" r="19.3"/>
	</g>
	<g>
		<g>
			
				<ellipse transform="matrix(0.2287 -0.9735 0.9735 0.2287 -128.5043 775.4584)" class="st9" cx="425.13" cy="468.83" rx="76.5" ry="76.5"/>
		</g>
		<g>
			<g>
				<path class="st4" d="M391.35,511.73c-15.32,0-27.78-12.46-27.78-27.78c0-15.32,12.46-27.78,27.78-27.78
					c15.32,0,27.78,12.46,27.78,27.78C419.13,499.27,406.66,511.73,391.35,511.73z M391.35,464.75c-10.59,0-19.2,8.61-19.2,19.2
					c0,10.59,8.61,19.2,19.2,19.2c10.59,0,19.2-8.61,19.2-19.2C410.55,473.37,401.93,464.75,391.35,464.75z"/>
			</g>
			<g>
				<path class="st4" d="M456.44,513c-15.32,0-27.78-12.46-27.78-27.78c0-15.32,12.46-27.78,27.78-27.78
					c15.32,0,27.78,12.46,27.78,27.78C484.22,500.54,471.76,513,456.44,513z M456.44,466.02c-10.59,0-19.2,8.61-19.2,19.2
					c0,10.59,8.61,19.2,19.2,19.2c10.59,0,19.2-8.61,19.2-19.2C475.64,474.63,467.03,466.02,456.44,466.02z"/>
			</g>
			<g>
				<path class="st4" d="M433.71,487.36c-0.02,0-0.03,0-0.05,0l-40.36-0.48c-1.51-0.02-2.9-0.83-3.66-2.13
					c-0.76-1.3-0.77-2.91-0.04-4.23l17.09-30.87c0.71-1.28,2.01-2.1,3.47-2.2c1.48-0.11,2.86,0.55,3.73,1.72l23.27,31.34
					c0.97,1.31,1.12,3.06,0.38,4.51C436.79,486.45,435.32,487.36,433.71,487.36z M400.57,478.39l24.53,0.29l-14.14-19.05
					L400.57,478.39z"/>
			</g>
			<g>
				<path class="st4" d="M421.36,440.82c-0.44,0-0.88-0.07-1.32-0.21l-17.57-5.7c-2.25-0.73-3.49-3.15-2.76-5.4
					c0.73-2.25,3.15-3.49,5.4-2.76l17.57,5.7c2.25,0.73,3.49,3.15,2.76,5.4C424.85,439.66,423.17,440.82,421.36,440.82z"/>
			</g>
			<g>
				<path class="st4" d="M456.44,487.36c-0.16,0-0.32-0.01-0.48-0.03c-2.35-0.26-4.05-2.38-3.79-4.74l5.76-52.24
					c0.26-2.36,2.4-4.05,4.74-3.79c2.35,0.26,4.05,2.38,3.79,4.74l-5.76,52.24C460.46,485.73,458.6,487.36,456.44,487.36z"/>
			</g>
			<g>
				<path class="st4" d="M478.02,443.98c-0.83,0-1.67-0.24-2.41-0.75l-27.86-19c-1.96-1.33-2.46-4-1.13-5.96
					c1.33-1.96,4-2.47,5.96-1.13l27.86,19c1.96,1.33,2.46,4,1.13,5.96C480.74,443.33,479.4,443.98,478.02,443.98z"/>
			</g>
			<g>
				<rect x="433.71" y="478.78" class="st4" width="22.73" height="8.58"/>
			</g>
			<g>
				<path class="st4" d="M410.91,456.96c-2.37,0-4.29-1.92-4.29-4.29V435.1c0-2.37,1.92-4.29,4.29-4.29c2.37,0,4.29,1.92,4.29,4.29
					v17.57C415.2,455.04,413.28,456.96,410.91,456.96z"/>
			</g>
		</g>
	</g>
	<g>
		<g>
			<path class="st5" d="M592.44,274.35c0,26.46-21.45,47.9-47.9,47.9s-47.9-21.45-47.9-47.9c0-26.46,21.45-47.9,47.9-47.9
				S592.44,247.9,592.44,274.35z"/>
		</g>
		<g>
			<g>
				<path class="st4" d="M524.11,291.51c-8.84,0-16.04-7.19-16.04-16.03c0-8.84,7.19-16.04,16.04-16.04
					c8.84,0,16.03,7.19,16.03,16.04C540.14,284.32,532.95,291.51,524.11,291.51z M524.11,268.02c-4.11,0-7.46,3.35-7.46,7.46
					c0,4.11,3.35,7.45,7.46,7.45c4.11,0,7.45-3.35,7.45-7.45C531.56,271.37,528.22,268.02,524.11,268.02z"/>
			</g>
			<g>
				<path class="st4" d="M562.1,291.51c-8.84,0-16.03-7.19-16.03-16.03c0-8.84,7.19-16.04,16.03-16.04
					c8.84,0,16.03,7.19,16.03,16.04C578.14,284.32,570.94,291.51,562.1,291.51z M562.1,268.02c-4.11,0-7.45,3.35-7.45,7.46
					c0,4.11,3.35,7.45,7.45,7.45s7.45-3.35,7.45-7.45C569.56,271.37,566.21,268.02,562.1,268.02z"/>
			</g>
			<g>
				<rect x="537.23" y="271.19" class="st4" width="11.74" height="8.58"/>
			</g>
		</g>
	</g>
	<g>
		<path class="st9" d="M366.5,705.48H244.96c-2.76,0-5.01-2.24-5.01-5v-50.05c0-2.76,2.24-5.01,5.01-5.01H366.5
			c2.76,0,5.01,2.24,5.01,5.01v50.05C371.51,703.24,369.27,705.48,366.5,705.48z"/>
	</g>
	<g>
		<path class="st4" d="M274.49,686.88v-22.86h11.6c2.41,0,4.17,0.61,5.27,1.82c1.11,1.22,1.66,2.61,1.66,4.17
			c0,1.14-0.32,2.17-0.96,3.09c-0.64,0.92-1.6,1.55-2.87,1.9c2.96,0.71,4.44,2.49,4.44,5.32c0,1.7-0.52,3.21-1.56,4.55
			c-1.04,1.33-3.27,2-6.69,2H274.49z M280.96,672.78h3.25c0.81,0,1.39-0.21,1.72-0.62c0.34-0.41,0.5-0.85,0.5-1.32
			c0-1.27-0.78-1.91-2.34-1.91h-3.13V672.78z M280.96,681.79h3.42c0.85,0,1.47-0.21,1.87-0.63c0.4-0.42,0.6-0.89,0.6-1.41
			c0-0.53-0.19-1.01-0.58-1.45c-0.39-0.44-1.09-0.66-2.12-0.66h-3.18V681.79z"/>
		<path class="st4" d="M316.78,664.02v15.14c0,2.87-0.85,4.93-2.55,6.19c-1.7,1.25-3.92,1.88-6.65,1.88c-2.88,0-5.19-0.6-6.94-1.81
			c-1.75-1.21-2.62-3.17-2.62-5.89v-15.51h7.13v14.69c0,1.09,0.23,1.89,0.69,2.39c0.46,0.5,1.2,0.75,2.21,0.75
			c0.85,0,1.54-0.18,2.08-0.54c0.54-0.36,0.86-0.77,0.97-1.23c0.1-0.46,0.16-1.35,0.16-2.68v-13.38H316.78z"/>
		<path class="st4" d="M341.22,664.02l-7.16,13.18v9.68h-6.81v-9.68l-7.69-13.18h7.68l4.01,7.53l3.84-7.53H341.22z"/>
	</g>
	<g>
		<g>
			<path class="st4" d="M411.25,760.83c-0.97,0-1.95-0.33-2.75-1l-37.48-31.34l-9.47,9.47c-1.15,1.16-2.87,1.55-4.41,1.03
				c-1.55-0.53-2.66-1.89-2.87-3.51l-6.13-46.95c-0.31-2.35,1.35-4.5,3.7-4.81c2.34-0.31,4.5,1.35,4.81,3.7l5,38.31l6.09-6.09
				c1.57-1.57,4.08-1.68,5.79-0.26l40.5,33.86c1.82,1.52,2.06,4.22,0.54,6.04C413.7,760.31,412.48,760.83,411.25,760.83z"/>
		</g>
		<g>
			<path class="st4" d="M413.69,760.54c-1,0-2-0.35-2.81-1.05c-1.79-1.55-1.98-4.26-0.42-6.05l11.43-13.14l-37.14-31.06
				c-0.92-0.77-1.48-1.9-1.53-3.1c-0.05-1.2,0.4-2.37,1.25-3.22l6.09-6.09l-38.31-5c-2.35-0.31-4.01-2.46-3.7-4.81
				c0.31-2.35,2.49-4.01,4.81-3.7l46.95,6.12c1.62,0.21,2.98,1.33,3.51,2.87c0.53,1.55,0.13,3.26-1.03,4.41l-8.93,8.93l36.9,30.85
				c0.88,0.74,1.43,1.8,1.52,2.95c0.09,1.15-0.29,2.29-1.04,3.15l-14.3,16.44C416.08,760.04,414.89,760.54,413.69,760.54z"/>
		</g>
	</g>
</g>
</svg>
