<svg id="_2-01" data-name="2-01" xmlns="http://www.w3.org/2000/svg" width="538.166" height="382.247" viewBox="0 0 538.166 382.247">
  <g id="Group_436" data-name="Group 436" transform="translate(0 203.482)">
    <g id="Group_407" data-name="Group 407" transform="translate(0 136.118)">
      <path id="Path_375" data-name="Path 375" d="M98.05,807.608l25.655-23.748H328.936l22.634,23.748Z" transform="translate(-98.05 -783.86)" fill="#025482"/>
    </g>
    <g id="Group_408" data-name="Group 408" transform="translate(19.813)">
      <path id="Path_376" data-name="Path 376" d="M338.433,699.263H136.6a6.134,6.134,0,0,1-6.032-6.233V566.672a6.134,6.134,0,0,1,6.032-6.233H338.433a6.134,6.134,0,0,1,6.032,6.233V693.024A6.135,6.135,0,0,1,338.433,699.263Z" transform="translate(-130.57 -560.44)" fill="#062c3f"/>
    </g>
    <g id="Group_409" data-name="Group 409" transform="translate(28.111 9.742)">
      <path id="Path_377" data-name="Path 377" d="M335.926,700.3H149.752a5.564,5.564,0,0,1-5.562-5.562V581.992a5.564,5.564,0,0,1,5.562-5.562H335.926a5.564,5.564,0,0,1,5.562,5.562V694.74A5.564,5.564,0,0,1,335.926,700.3Z" transform="translate(-144.19 -576.43)" fill="#4396ca"/>
    </g>
    <g id="Group_410" data-name="Group 410" transform="translate(124.493 1.809)">
      <path id="Path_378" data-name="Path 378" d="M306.923,565.676a2.266,2.266,0,1,1-2.266-2.266A2.266,2.266,0,0,1,306.923,565.676Z" transform="translate(-302.39 -563.41)" fill="#025482"/>
    </g>
    <g id="Group_411" data-name="Group 411" transform="translate(0 159.872)">
      <path id="Path_379" data-name="Path 379" d="M338.58,841.743H111.039A12.989,12.989,0,0,1,98.05,828.753v-5.9H351.569v5.9A12.993,12.993,0,0,1,338.58,841.743Z" transform="translate(-98.05 -822.85)" fill="#062c3f"/>
    </g>
    <g id="Group_412" data-name="Group 412" transform="translate(52.816 136.489)">
      <path id="Path_380" data-name="Path 380" d="M214.922,786.736a2.26,2.26,0,0,1-2.26,2.26H187.006a2.265,2.265,0,0,1-2.266-2.26h0a2.266,2.266,0,0,1,2.266-2.266h25.655a2.269,2.269,0,0,1,2.26,2.266Z" transform="translate(-184.74 -784.47)" fill="#03436b"/>
    </g>
    <g id="Group_413" data-name="Group 413" transform="translate(174.287 136.489)">
      <path id="Path_381" data-name="Path 381" d="M414.308,786.736a2.261,2.261,0,0,1-2.266,2.26H386.386a2.265,2.265,0,0,1-2.266-2.26h0a2.266,2.266,0,0,1,2.266-2.266h25.655a2.27,2.27,0,0,1,2.266,2.266Z" transform="translate(-384.12 -784.47)" fill="#03436b"/>
    </g>
    <g id="Group_414" data-name="Group 414" transform="translate(96.955 148.668)">
      <path id="Path_382" data-name="Path 382" d="M257.19,812.264l8.432-7.8H309.36l7.439,7.8Z" transform="translate(-257.19 -804.46)" fill="#4396ca"/>
    </g>
    <g id="Group_415" data-name="Group 415" transform="translate(120.162 143.593)">
      <rect id="Rectangle_165" data-name="Rectangle 165" width="14.141" height="1.31" fill="#fff"/>
    </g>
    <g id="Group_425" data-name="Group 425" transform="translate(16.98 143.593)">
      <g id="Group_416" data-name="Group 416" transform="translate(0 10.144)">
        <rect id="Rectangle_166" data-name="Rectangle 166" width="15.846" height="1.304" fill="#fff"/>
      </g>
      <g id="Group_417" data-name="Group 417" transform="translate(13.397)">
        <rect id="Rectangle_167" data-name="Rectangle 167" width="14.141" height="1.31" fill="#fff"/>
      </g>
      <g id="Group_418" data-name="Group 418" transform="translate(7.36 4.624)">
        <rect id="Rectangle_168" data-name="Rectangle 168" width="14.141" height="1.31" fill="#fff"/>
      </g>
      <g id="Group_419" data-name="Group 419" transform="translate(40.935)">
        <rect id="Rectangle_169" data-name="Rectangle 169" width="14.141" height="1.31" fill="#fff"/>
      </g>
      <g id="Group_420" data-name="Group 420" transform="translate(33.771 4.624)">
        <rect id="Rectangle_170" data-name="Rectangle 170" width="14.141" height="1.31" fill="#fff"/>
      </g>
      <g id="Group_421" data-name="Group 421" transform="translate(50.927 10.144)">
        <rect id="Rectangle_171" data-name="Rectangle 171" width="15.846" height="1.304" fill="#fff"/>
      </g>
      <g id="Group_422" data-name="Group 422" transform="translate(67.724)">
        <rect id="Rectangle_172" data-name="Rectangle 172" width="14.141" height="1.31" fill="#fff"/>
      </g>
      <g id="Group_423" data-name="Group 423" transform="translate(60.553 4.624)">
        <rect id="Rectangle_173" data-name="Rectangle 173" width="14.141" height="1.31" fill="#fff"/>
      </g>
      <g id="Group_424" data-name="Group 424" transform="translate(25.649 11.271)">
        <rect id="Rectangle_174" data-name="Rectangle 174" width="15.846" height="1.304" fill="#fff"/>
      </g>
    </g>
    <g id="Group_435" data-name="Group 435" transform="translate(157.319 143.593)">
      <g id="Group_426" data-name="Group 426" transform="translate(66.018 10.144)">
        <rect id="Rectangle_175" data-name="Rectangle 175" width="15.846" height="1.304" fill="#fff"/>
      </g>
      <g id="Group_427" data-name="Group 427" transform="translate(54.326)">
        <rect id="Rectangle_176" data-name="Rectangle 176" width="14.141" height="1.31" fill="#fff"/>
      </g>
      <g id="Group_428" data-name="Group 428" transform="translate(60.358 4.624)">
        <rect id="Rectangle_177" data-name="Rectangle 177" width="14.141" height="1.31" fill="#fff"/>
      </g>
      <g id="Group_429" data-name="Group 429" transform="translate(26.782)">
        <rect id="Rectangle_178" data-name="Rectangle 178" width="14.141" height="1.31" fill="#fff"/>
      </g>
      <g id="Group_430" data-name="Group 430" transform="translate(33.953 4.624)">
        <rect id="Rectangle_179" data-name="Rectangle 179" width="14.141" height="1.31" fill="#fff"/>
      </g>
      <g id="Group_431" data-name="Group 431" transform="translate(15.091 10.144)">
        <rect id="Rectangle_180" data-name="Rectangle 180" width="15.846" height="1.304" fill="#fff"/>
      </g>
      <g id="Group_432" data-name="Group 432">
        <rect id="Rectangle_181" data-name="Rectangle 181" width="14.141" height="1.31" fill="#fff"/>
      </g>
      <g id="Group_433" data-name="Group 433" transform="translate(7.165 4.624)">
        <rect id="Rectangle_182" data-name="Rectangle 182" width="14.141" height="1.31" fill="#fff"/>
      </g>
      <g id="Group_434" data-name="Group 434" transform="translate(40.363 11.271)">
        <rect id="Rectangle_183" data-name="Rectangle 183" width="15.846" height="1.304" fill="#fff"/>
      </g>
    </g>
  </g>
  <g id="Group_440" data-name="Group 440" transform="translate(416.846 157.027)">
    <g id="Group_438" data-name="Group 438">
      <g id="Group_437" data-name="Group 437">
        <path id="Path_383" data-name="Path 383" d="M834.974,510.552a26.362,26.362,0,1,1-26.362-26.362A26.36,26.36,0,0,1,834.974,510.552Z" transform="translate(-782.25 -484.19)" fill="#4396ca"/>
      </g>
    </g>
    <g id="Group_439" data-name="Group 439" transform="translate(11.801 19.027)">
      <path id="Path_384" data-name="Path 384" d="M813.829,532.643a2.591,2.591,0,0,1-1.633-.573l-9.6-7.676a2.614,2.614,0,1,1,3.266-4.082l8.054,6.446,15.188-10.851a2.612,2.612,0,0,1,3.034,4.253l-16.8,12A2.571,2.571,0,0,1,813.829,532.643Z" transform="translate(-801.62 -515.42)" fill="#fff"/>
    </g>
  </g>
  <g id="Group_443" data-name="Group 443" transform="translate(64.504 26.744)">
    <g id="Group_441" data-name="Group 441" transform="translate(0 0)">
      <ellipse id="Ellipse_42" data-name="Ellipse 42" cx="40.85" cy="40.844" rx="40.85" ry="40.844" transform="translate(0 57.77) rotate(-45)" fill="#ffcb2f"/>
    </g>
    <g id="Group_442" data-name="Group 442" transform="translate(29.643 29.015)">
      <path id="Path_385" data-name="Path 385" d="M280.7,317.97l8.694,17.613,19.435,2.821L294.77,352.112l3.32,19.362L280.7,362.335l-17.382,9.139,3.32-19.362L252.58,338.4l19.435-2.821Z" transform="translate(-252.58 -317.97)" fill="#fff"/>
    </g>
  </g>
  <g id="Group_447" data-name="Group 447" transform="translate(42.891 163.26)">
    <g id="Group_445" data-name="Group 445">
      <g id="Group_444" data-name="Group 444">
        <path id="Path_386" data-name="Path 386" d="M200.484,510.437a16.017,16.017,0,1,1-16.017-16.017A16.017,16.017,0,0,1,200.484,510.437Z" transform="translate(-168.45 -494.42)" fill="#4396ca"/>
      </g>
    </g>
    <g id="Group_446" data-name="Group 446" transform="translate(6.373 9.758)">
      <path id="Path_387" data-name="Path 387" d="M195.585,510.9c-2.4-1.292-5.544.329-7.012,2.565-1.468-2.236-4.776-3.85-7.177-2.565-2.541,1.365-3.138,4.009-1.773,6.549s8.938,8.724,8.95,8.645c.012.073,7.591-6.111,8.95-8.645A4.572,4.572,0,0,0,195.585,510.9Z" transform="translate(-178.91 -510.437)" fill="#fff"/>
    </g>
  </g>
  <g id="Group_451" data-name="Group 451" transform="translate(297.745 33.667)">
    <g id="Group_449" data-name="Group 449">
      <g id="Group_448" data-name="Group 448">
        <ellipse id="Ellipse_43" data-name="Ellipse 43" cx="45.419" cy="45.419" rx="45.419" ry="45.419" fill="#4396ca"/>
      </g>
    </g>
    <g id="Group_450" data-name="Group 450" transform="translate(18.074 27.666)">
      <path id="Path_388" data-name="Path 388" d="M663.718,328.418c-6.805-3.655-15.719.932-19.886,7.268-4.161-6.336-13.55-10.924-20.355-7.268-7.2,3.869-8.9,11.369-5.032,18.57s25.345,24.735,25.387,24.522c.043.213,21.518-17.327,25.387-24.522S670.914,332.28,663.718,328.418Z" transform="translate(-616.427 -327.12)" fill="#fff"/>
    </g>
  </g>
  <g id="Group_457" data-name="Group 457" transform="translate(396.089 50.86)">
    <g id="Group_453" data-name="Group 453">
      <g id="Group_452" data-name="Group 452">
        <path id="Path_389" data-name="Path 389" d="M778.033,324.857a14.927,14.927,0,1,1-14.927-14.927A14.927,14.927,0,0,1,778.033,324.857Z" transform="translate(-748.18 -309.93)" fill="#025482"/>
      </g>
    </g>
    <g id="Group_456" data-name="Group 456" transform="translate(6.659 6.659)">
      <g id="Group_454" data-name="Group 454" transform="translate(6.562)">
        <rect id="Rectangle_184" data-name="Rectangle 184" width="3.406" height="16.535" fill="#fff"/>
      </g>
      <g id="Group_455" data-name="Group 455" transform="translate(0 6.562)">
        <rect id="Rectangle_185" data-name="Rectangle 185" width="16.535" height="3.406" fill="#fff"/>
      </g>
    </g>
  </g>
  <g id="Group_463" data-name="Group 463" transform="translate(86.22 136.946)">
    <g id="Group_459" data-name="Group 459">
      <g id="Group_458" data-name="Group 458">
        <path id="Path_390" data-name="Path 390" d="M298.18,480.535a29.3,29.3,0,1,1-29.3-29.3A29.3,29.3,0,0,1,298.18,480.535Z" transform="translate(-239.57 -451.23)" fill="#025482"/>
      </g>
    </g>
    <g id="Group_462" data-name="Group 462" transform="translate(13.081 13.081)">
      <g id="Group_460" data-name="Group 460" transform="translate(12.886)">
        <rect id="Rectangle_186" data-name="Rectangle 186" width="6.683" height="32.455" fill="#fff"/>
      </g>
      <g id="Group_461" data-name="Group 461" transform="translate(0 12.886)">
        <rect id="Rectangle_187" data-name="Rectangle 187" width="32.455" height="6.683" fill="#fff"/>
      </g>
    </g>
  </g>
  <g id="Group_470" data-name="Group 470" transform="translate(25.168 99.654)">
    <g id="Group_466" data-name="Group 466">
      <g id="Group_465" data-name="Group 465">
        <g id="Group_464" data-name="Group 464">
          <ellipse id="Ellipse_44" data-name="Ellipse 44" cx="28.178" cy="28.178" rx="28.178" ry="28.178" fill="#062c3f"/>
        </g>
      </g>
    </g>
    <g id="Group_467" data-name="Group 467" transform="translate(10.583 16.212)">
      <path id="Path_391" data-name="Path 391" d="M190.007,441.463H159.344a2.613,2.613,0,0,1-2.614-2.614V419.244a2.613,2.613,0,0,1,2.614-2.614h30.663a2.613,2.613,0,0,1,2.614,2.614v19.606A2.613,2.613,0,0,1,190.007,441.463Zm-28.05-5.227h25.436V421.857H161.957Z" transform="translate(-156.73 -416.63)" fill="#fff"/>
    </g>
    <g id="Group_468" data-name="Group 468" transform="translate(24.559 23.767)">
      <path id="Path_392" data-name="Path 392" d="M188.382,433.386a4.356,4.356,0,1,1-4.356-4.356A4.355,4.355,0,0,1,188.382,433.386Z" transform="translate(-179.67 -429.03)" fill="#fff"/>
    </g>
    <g id="Group_469" data-name="Group 469" transform="translate(33.527 12.039)">
      <path id="Path_393" data-name="Path 393" d="M197.656,418.657a3.266,3.266,0,0,1-3.266-3.266v-2.346a3.266,3.266,0,1,1,6.531,0v2.346A3.266,3.266,0,0,1,197.656,418.657Z" transform="translate(-194.39 -409.78)" fill="#fff"/>
    </g>
  </g>
  <g id="Group_476" data-name="Group 476" transform="translate(392.446 94.323)">
    <g id="Group_472" data-name="Group 472">
      <g id="Group_471" data-name="Group 471">
        <path id="Path_394" data-name="Path 394" d="M801.6,410.971a29.7,29.7,0,1,1-29.7-29.7A29.7,29.7,0,0,1,801.6,410.971Z" transform="translate(-742.2 -381.27)" fill="#ffd56c"/>
      </g>
    </g>
    <g id="Group_475" data-name="Group 475" transform="translate(8.907 17.889)">
      <g id="Group_473" data-name="Group 473">
        <path id="Path_395" data-name="Path 395" d="M799.339,424.3s-8.194,12.094-22.432,11.314c-13.068-.719-20.087-11.314-20.087-11.314s5.849-13.263,20.087-13.653A23.761,23.761,0,0,1,799.339,424.3Z" transform="translate(-756.82 -410.633)" fill="#fff"/>
      </g>
      <g id="Group_474" data-name="Group 474" transform="translate(12.672 3.733)">
        <path id="Path_396" data-name="Path 396" d="M795.568,425.734a8.974,8.974,0,1,1-8.974-8.974A8.974,8.974,0,0,1,795.568,425.734Z" transform="translate(-777.62 -416.76)" fill="#ffd56c"/>
      </g>
    </g>
  </g>
  <g id="Group_480" data-name="Group 480" transform="translate(167.981 21.104)">
    <g id="Group_478" data-name="Group 478">
      <g id="Group_477" data-name="Group 477">
        <ellipse id="Ellipse_45" data-name="Ellipse 45" cx="33.551" cy="33.551" rx="33.551" ry="33.551" fill="#cdeefc"/>
      </g>
    </g>
    <g id="Group_479" data-name="Group 479" transform="translate(8.969 18.476)">
      <path id="Path_397" data-name="Path 397" d="M429.389,291.559c1.627.542,2.729,3.936,1.517,9.388s-3.028,17.869-3.028,17.869h-4.545s2.12-13.33-2.12-14.543-6.97,14.543-16.663,14.543-15.749.3-16.054-2.425,13.026-5.148,18.478-12.118C415.023,293.99,426.66,290.651,429.389,291.559Z" transform="translate(-388.492 -291.416)" fill="#fff"/>
    </g>
  </g>
  <g id="Group_486" data-name="Group 486" transform="translate(332.709 138.256)">
    <g id="Group_482" data-name="Group 482">
      <g id="Group_481" data-name="Group 481">
        <ellipse id="Ellipse_46" data-name="Ellipse 46" cx="32.893" cy="32.893" rx="32.893" ry="32.893" fill="#062c3f"/>
      </g>
    </g>
    <g id="Group_485" data-name="Group 485" transform="translate(11.972 18.71)">
      <g id="Group_483" data-name="Group 483">
        <path id="Path_398" data-name="Path 398" d="M702.146,512.164H666.414a2.613,2.613,0,0,1-2.614-2.614V486.7a2.613,2.613,0,0,1,2.614-2.614h35.732a2.613,2.613,0,0,1,2.614,2.614V509.55A2.613,2.613,0,0,1,702.146,512.164Zm-33.119-5.227h30.5V489.317h-30.5Z" transform="translate(-663.8 -484.09)" fill="#fff"/>
      </g>
      <g id="Group_484" data-name="Group 484" transform="translate(1.048 0.524)">
        <path id="Path_399" data-name="Path 399" d="M685.461,503.441a2.6,2.6,0,0,1-1.566-.524L665.52,489.129l3.138-4.179,16.76,12.575L701.2,484.993l3.253,4.094-17.357,13.787A2.633,2.633,0,0,1,685.461,503.441Z" transform="translate(-665.52 -484.95)" fill="#fff"/>
      </g>
    </g>
  </g>
  <g id="Group_492" data-name="Group 492" transform="translate(234.41 65.033)">
    <g id="Group_489" data-name="Group 489">
      <g id="Group_488" data-name="Group 488">
        <g id="Group_487" data-name="Group 487">
          <path id="Path_400" data-name="Path 400" d="M540.168,361.418a28.684,28.684,0,1,1-29.14-28.22A28.683,28.683,0,0,1,540.168,361.418Z" transform="translate(-482.804 -333.194)" fill="#062c3f"/>
        </g>
      </g>
    </g>
    <g id="Group_490" data-name="Group 490" transform="translate(7.873 7.875)">
      <path id="Path_401" data-name="Path 401" d="M516.528,387.738a20.81,20.81,0,0,1-.323-41.618h.341a20.81,20.81,0,0,1,.323,41.618Zm.012-36.39h-.256a15.582,15.582,0,0,0,.238,31.163h.256a15.582,15.582,0,0,0-.238-31.163Z" transform="translate(-495.726 -346.12)" fill="#fff"/>
    </g>
    <g id="Group_491" data-name="Group 491" transform="translate(19.111 20.566)">
      <path id="Path_402" data-name="Path 402" d="M523.742,377.685a2.578,2.578,0,0,1-1.139-.262l-6.958-3.369a2.613,2.613,0,0,1,2.279-4.7l5.715,2.766,8.4-4.819a2.612,2.612,0,0,1,2.6,4.533l-9.6,5.508A2.574,2.574,0,0,1,523.742,377.685Z" transform="translate(-514.172 -366.95)" fill="#fff"/>
    </g>
  </g>
  <g id="Group_507" data-name="Group 507" transform="translate(333.434 189.853)">
    <g id="Group_493" data-name="Group 493" transform="translate(17.431 111.139)">
      <path id="Path_403" data-name="Path 403" d="M767.536,760.347H679.177a5.227,5.227,0,1,1,0-10.455H767.53a9.34,9.34,0,0,0,9.328-9.328v-.292a9.34,9.34,0,0,0-9.328-9.328H679.177a5.227,5.227,0,1,1,0-10.455H767.53a19.808,19.808,0,0,1,19.782,19.782v.292A19.8,19.8,0,0,1,767.536,760.347Z" transform="translate(-673.95 -720.49)" fill="#0c618c"/>
    </g>
    <g id="Group_494" data-name="Group 494" transform="translate(0 29.347)">
      <path id="Path_404" data-name="Path 404" d="M765.355,678.376a3.847,3.847,0,0,1-1.133-.171,3.921,3.921,0,0,1-2.62-4.886l23.956-79.232H654.832L670.1,673.715a3.92,3.92,0,1,1-7.7,1.474L645.34,586.24H796.116l-27.008,89.34A3.914,3.914,0,0,1,765.355,678.376Z" transform="translate(-645.34 -586.24)" fill="#0c618c"/>
    </g>
    <g id="Group_495" data-name="Group 495" transform="translate(141.58 2.608)">
      <path id="Path_405" data-name="Path 405" d="M881.646,576.937a3.817,3.817,0,0,1-1.316-.232,3.918,3.918,0,0,1-2.376-5.008l10.467-29.347H913.4a3.917,3.917,0,0,1,0,7.835H893.946l-8.609,24.138A3.918,3.918,0,0,1,881.646,576.937Z" transform="translate(-877.726 -542.35)" fill="#0c618c"/>
    </g>
    <g id="Group_496" data-name="Group 496" transform="translate(170.759)">
      <path id="Path_406" data-name="Path 406" d="M953.06,551.132H932.151a6.531,6.531,0,1,1,0-13.062H953.06a6.531,6.531,0,1,1,0,13.062Z" transform="translate(-925.62 -538.07)" fill="#0c618c"/>
    </g>
    <g id="Group_497" data-name="Group 497" transform="translate(95.682 154.188)">
      <path id="Path_407" data-name="Path 407" d="M802.39,808.861A17.711,17.711,0,1,0,820.1,791.15,17.711,17.711,0,0,0,802.39,808.861Z" transform="translate(-802.39 -791.15)" fill="#4396ca"/>
    </g>
    <g id="Group_498" data-name="Group 498" transform="translate(12.392 154.188)">
      <path id="Path_408" data-name="Path 408" d="M665.68,808.861a17.711,17.711,0,1,0,17.711-17.711A17.711,17.711,0,0,0,665.68,808.861Z" transform="translate(-665.68 -791.15)" fill="#4396ca"/>
    </g>
    <g id="Group_499" data-name="Group 499" transform="translate(105.132 163.637)">
      <path id="Path_409" data-name="Path 409" d="M817.9,814.921a8.261,8.261,0,1,0,8.261-8.261A8.261,8.261,0,0,0,817.9,814.921Z" transform="translate(-817.9 -806.66)" fill="#fff"/>
    </g>
    <g id="Group_500" data-name="Group 500" transform="translate(20.976 163.637)">
      <path id="Path_410" data-name="Path 410" d="M679.77,814.921a8.261,8.261,0,1,0,8.261-8.261A8.261,8.261,0,0,0,679.77,814.921Z" transform="translate(-679.77 -806.66)" fill="#fff"/>
    </g>
    <g id="Group_501" data-name="Group 501" transform="translate(98.31 32.518)">
      <path id="Path_411" data-name="Path 411" d="M810.631,678.289a3.631,3.631,0,0,1-.676-.061,3.921,3.921,0,0,1-3.192-4.533l13.739-79a3.92,3.92,0,0,1,7.725,1.34l-13.738,79A3.921,3.921,0,0,1,810.631,678.289Z" transform="translate(-806.704 -591.444)" fill="#0c618c"/>
    </g>
    <g id="Group_502" data-name="Group 502" transform="translate(78.986 31.664)">
      <path id="Path_412" data-name="Path 412" d="M778.912,676.024c-.085,0-.171,0-.262-.006a3.92,3.92,0,0,1-3.655-4.167l5.154-78.142a3.92,3.92,0,1,1,7.823.512l-5.154,78.142A3.917,3.917,0,0,1,778.912,676.024Z" transform="translate(-774.986 -590.043)" fill="#0c618c"/>
    </g>
    <g id="Group_503" data-name="Group 503" transform="translate(26.18 32.518)">
      <path id="Path_413" data-name="Path 413" d="M704.681,678.283a3.922,3.922,0,0,1-3.869-3.308l-12.453-79a3.922,3.922,0,1,1,7.75-1.219l12.453,79a3.928,3.928,0,0,1-3.266,4.484A4.228,4.228,0,0,1,704.681,678.283Z" transform="translate(-688.312 -591.444)" fill="#0c618c"/>
    </g>
    <g id="Group_504" data-name="Group 504" transform="translate(55.375 31.663)">
      <path id="Path_414" data-name="Path 414" d="M744.011,676.023a3.921,3.921,0,0,1-3.911-3.729l-3.863-78.142a3.919,3.919,0,0,1,7.829-.384l3.863,78.142a3.914,3.914,0,0,1-3.722,4.106C744.145,676.017,744.078,676.023,744.011,676.023Z" transform="translate(-736.232 -590.041)" fill="#0c618c"/>
    </g>
    <g id="Group_505" data-name="Group 505" transform="translate(9.437 56.568)">
      <path id="Path_415" data-name="Path 415" d="M788.4,638.755H664.747a3.917,3.917,0,0,1,0-7.835H788.4a3.917,3.917,0,1,1,0,7.835Z" transform="translate(-660.83 -630.92)" fill="#0c618c"/>
    </g>
    <g id="Group_506" data-name="Group 506" transform="translate(13.732 84.045)">
      <path id="Path_416" data-name="Path 416" d="M780.853,683.855H671.8a3.917,3.917,0,1,1,0-7.835H780.853a3.917,3.917,0,0,1,0,7.835Z" transform="translate(-667.88 -676.02)" fill="#0c618c"/>
    </g>
  </g>
  <g id="Group_508" data-name="Group 508" transform="translate(59.883 74.486)">
    <path id="Path_417" data-name="Path 417" d="M208.537,354.809a6.1,6.1,0,1,1-6.1-6.1A6.1,6.1,0,0,1,208.537,354.809Z" transform="translate(-196.34 -348.71)" fill="#97e4ff"/>
  </g>
  <g id="Group_509" data-name="Group 509" transform="translate(295.113 125.456)">
    <path id="Path_418" data-name="Path 418" d="M605.957,444.128A11.758,11.758,0,1,1,594.2,432.37,11.758,11.758,0,0,1,605.957,444.128Z" transform="translate(-582.44 -432.37)" fill="#ffd56c"/>
  </g>
  <g id="Group_510" data-name="Group 510" transform="translate(138.293 10.455)">
    <ellipse id="Ellipse_47" data-name="Ellipse 47" cx="11.758" cy="11.758" rx="11.758" ry="11.758" fill="#062c3f"/>
  </g>
  <g id="Group_521" data-name="Group 521" transform="translate(143.24 91.629)">
    <g id="Group_511" data-name="Group 511" transform="translate(0 0)">
      <circle id="Ellipse_48" data-name="Ellipse 48" cx="46.607" cy="46.607" r="46.607" transform="matrix(0.229, -0.974, 0.974, 0.229, 0, 90.744)" fill="#97e4ff"/>
    </g>
    <g id="Group_520" data-name="Group 520" transform="translate(18.527 24.092)">
      <g id="Group_512" data-name="Group 512" transform="translate(0 24.235)">
        <path id="Path_419" data-name="Path 419" d="M380.495,490.02a16.925,16.925,0,1,1,16.925-16.925A16.942,16.942,0,0,1,380.495,490.02Zm0-28.622a11.7,11.7,0,1,0,11.7,11.7A11.708,11.708,0,0,0,380.495,461.4Z" transform="translate(-363.57 -456.17)" fill="#fff"/>
      </g>
      <g id="Group_513" data-name="Group 513" transform="translate(39.656 25.008)">
        <path id="Path_420" data-name="Path 420" d="M445.585,491.29a16.925,16.925,0,1,1,16.925-16.925A16.942,16.942,0,0,1,445.585,491.29Zm0-28.622a11.7,11.7,0,1,0,11.7,11.7A11.708,11.708,0,0,0,445.585,462.667Z" transform="translate(-428.66 -457.44)" fill="#fff"/>
      </g>
      <g id="Group_514" data-name="Group 514" transform="translate(15.53 18.915)">
        <path id="Path_421" data-name="Path 421" d="M416.263,471.76h-.03l-24.589-.292a2.608,2.608,0,0,1-2.254-3.875L399.8,448.786a2.612,2.612,0,0,1,2.114-1.34,2.578,2.578,0,0,1,2.272,1.048l14.177,19.094a2.613,2.613,0,0,1-2.1,4.173Zm-20.19-5.465,14.945.177L402.4,454.866Z" transform="translate(-389.061 -447.438)" fill="#fff"/>
      </g>
      <g id="Group_515" data-name="Group 515" transform="translate(21.891 6.183)">
        <path id="Path_422" data-name="Path 422" d="M412.818,435.24a2.64,2.64,0,0,1-.8-.128l-10.7-3.473a2.613,2.613,0,0,1,1.608-4.971l10.7,3.473a2.613,2.613,0,0,1-.8,5.1Z" transform="translate(-399.501 -426.541)" fill="#fff"/>
      </g>
      <g id="Group_516" data-name="Group 516" transform="translate(53.963 6.179)">
        <path id="Path_423" data-name="Path 423" d="M454.761,463.592a2.346,2.346,0,0,1-.292-.018,2.615,2.615,0,0,1-2.309-2.888l3.509-31.827a2.615,2.615,0,0,1,5.2.579l-3.509,31.827A2.616,2.616,0,0,1,454.761,463.592Z" transform="translate(-452.144 -426.534)" fill="#fff"/>
      </g>
      <g id="Group_517" data-name="Group 517" transform="translate(50.145)">
        <path id="Path_424" data-name="Path 424" d="M465.46,433.2a2.576,2.576,0,0,1-1.468-.457l-16.974-11.576a2.613,2.613,0,0,1,2.943-4.32l16.974,11.576a2.616,2.616,0,0,1-1.474,4.776Z" transform="translate(-445.876 -416.392)" fill="#fff"/>
      </g>
      <g id="Group_518" data-name="Group 518" transform="translate(42.733 38.01)">
        <rect id="Rectangle_188" data-name="Rectangle 188" width="13.848" height="5.227" fill="#fff"/>
      </g>
      <g id="Group_519" data-name="Group 519" transform="translate(26.228 8.784)">
        <path id="Path_425" data-name="Path 425" d="M409.234,446.742a2.613,2.613,0,0,1-2.614-2.614v-10.7a2.614,2.614,0,0,1,5.227,0v10.7A2.613,2.613,0,0,1,409.234,446.742Z" transform="translate(-406.62 -430.81)" fill="#fff"/>
      </g>
    </g>
  </g>
  <g id="Group_527" data-name="Group 527" transform="translate(242.839 0)">
    <g id="Group_522" data-name="Group 522">
      <path id="Path_426" data-name="Path 426" d="M555.006,255.633a29.183,29.183,0,1,1-29.183-29.183A29.182,29.182,0,0,1,555.006,255.633Z" transform="translate(-496.64 -226.45)" fill="#ffcb2f"/>
    </g>
    <g id="Group_526" data-name="Group 526" transform="translate(6.964 20.099)">
      <g id="Group_523" data-name="Group 523">
        <path id="Path_427" data-name="Path 427" d="M517.842,278.979a9.769,9.769,0,1,1,9.766-9.766A9.782,9.782,0,0,1,517.842,278.979Zm0-14.311a4.542,4.542,0,1,0,4.539,4.545A4.553,4.553,0,0,0,517.842,264.667Z" transform="translate(-508.07 -259.44)" fill="#fff"/>
      </g>
      <g id="Group_524" data-name="Group 524" transform="translate(23.151)">
        <path id="Path_428" data-name="Path 428" d="M555.836,278.979a9.769,9.769,0,1,1,9.766-9.766A9.776,9.776,0,0,1,555.836,278.979Zm0-14.311a4.542,4.542,0,1,0,4.539,4.545A4.548,4.548,0,0,0,555.836,264.667Z" transform="translate(-546.07 -259.44)" fill="#fff"/>
      </g>
      <g id="Group_525" data-name="Group 525" transform="translate(17.766 7.159)">
        <rect id="Rectangle_189" data-name="Rectangle 189" width="7.153" height="5.227" fill="#fff"/>
      </g>
    </g>
  </g>
  <g id="Group_528" data-name="Group 528" transform="translate(86.452 255.256)">
    <path id="Path_429" data-name="Path 429" d="M317.05,682.011H243a3.053,3.053,0,0,1-3.052-3.046V648.472A3.054,3.054,0,0,1,243,645.42H317.05a3.054,3.054,0,0,1,3.052,3.052v30.493A3.049,3.049,0,0,1,317.05,682.011Z" transform="translate(-239.95 -645.42)" fill="#97e4ff"/>
  </g>
  <g id="Group_529" data-name="Group 529" transform="translate(107.495 266.588)">
    <path id="Path_430" data-name="Path 430" d="M274.49,677.947V664.02h7.067a4.15,4.15,0,0,1,3.211,1.109,3.667,3.667,0,0,1,1.011,2.541,3.22,3.22,0,0,1-.585,1.883,3.011,3.011,0,0,1-1.749,1.158,3.1,3.1,0,0,1,2.705,3.241,4.4,4.4,0,0,1-.95,2.772q-.95,1.215-4.076,1.218H274.49Zm3.942-8.59h1.98a1.282,1.282,0,0,0,1.048-.378,1.23,1.23,0,0,0,.3-.8c0-.774-.475-1.164-1.426-1.164h-1.907Zm0,5.489h2.084a1.505,1.505,0,0,0,1.139-.384,1.216,1.216,0,0,0,.366-.859,1.3,1.3,0,0,0-.353-.883,1.67,1.67,0,0,0-1.292-.4h-1.937v2.528Z" transform="translate(-274.49 -664.02)" fill="#fff"/>
    <path id="Path_431" data-name="Path 431" d="M309.449,664.02v9.224a4.382,4.382,0,0,1-1.554,3.771,6.678,6.678,0,0,1-4.051,1.145,7.3,7.3,0,0,1-4.228-1.1,4.047,4.047,0,0,1-1.6-3.588V664.02h4.344v8.95a2.111,2.111,0,0,0,.42,1.456,1.755,1.755,0,0,0,1.346.457,2.237,2.237,0,0,0,1.267-.329,1.283,1.283,0,0,0,.591-.749,9.109,9.109,0,0,0,.1-1.633V664.02Z" transform="translate(-283.684 -664.02)" fill="#fff"/>
    <path id="Path_432" data-name="Path 432" d="M332.756,664.02l-4.362,8.03v5.9h-4.149v-5.9l-4.685-8.03h4.679l2.443,4.588,2.34-4.588Z" transform="translate(-292.101 -664.02)" fill="#fff"/>
  </g>
  <g id="Group_532" data-name="Group 532" transform="translate(152.344 278.324)">
    <g id="Group_530" data-name="Group 530" transform="translate(0 0.244)">
      <path id="Path_433" data-name="Path 433" d="M386.575,730.684a2.606,2.606,0,0,1-1.675-.609l-22.835-19.094-5.77,5.77a2.609,2.609,0,0,1-4.435-1.511l-3.735-28.6a2.614,2.614,0,0,1,5.185-.676l3.046,23.34,3.71-3.71a2.621,2.621,0,0,1,3.528-.158l24.674,20.629a2.619,2.619,0,0,1-1.694,4.624Z" transform="translate(-348.103 -683.683)" fill="#fff"/>
    </g>
    <g id="Group_531" data-name="Group 531" transform="translate(0.25)">
      <path id="Path_434" data-name="Path 434" d="M388.222,730.351a2.61,2.61,0,0,1-1.968-4.326l6.964-8.005L370.59,699.1a2.614,2.614,0,0,1-.171-3.85l3.71-3.71-23.34-3.046a2.614,2.614,0,1,1,.676-5.185l28.6,3.729a2.624,2.624,0,0,1,2.138,1.749,2.6,2.6,0,0,1-.628,2.687l-5.441,5.44,22.481,18.8a2.612,2.612,0,0,1,.292,3.716L390.2,729.438A2.6,2.6,0,0,1,388.222,730.351Z" transform="translate(-348.513 -683.283)" fill="#fff"/>
    </g>
  </g>
</svg>
