<svg xmlns="http://www.w3.org/2000/svg" width="16.714" height="18" viewBox="0 0 16.714 18">
    <path d="M1.286 16.715h2.893v-2.893H1.286zm3.536 0h3.214v-2.893H4.822v2.893zm-3.536-3.536h2.893V9.965H1.286zm3.536 0h3.214V9.965H4.822v3.215zM1.286 9.322h2.893V6.429H1.286zm7.393 7.393h3.215v-2.893H8.679zM4.822 9.322h3.214V6.429H4.822zm7.715 7.393h2.893v-2.893h-2.894zm-3.858-3.536h3.215V9.965H8.679v3.215zM5.143 4.5V1.607a.326.326 0 0 0-.322-.322h-.642a.326.326 0 0 0-.322.322V4.5a.326.326 0 0 0 .322.322h.643a.326.326 0 0 0 .321-.322zm7.393 8.679h2.893V9.965h-2.893v3.215zM8.679 9.322h3.215V6.429H8.679zm3.857 0h2.893V6.429h-2.893zm.321-4.822V1.607a.326.326 0 0 0-.322-.322h-.643a.325.325 0 0 0-.321.322V4.5a.326.326 0 0 0 .322.322h.643a.326.326 0 0 0 .322-.322zm3.857-.643v12.857A1.3 1.3 0 0 1 15.429 18H1.286a1.235 1.235 0 0 1-.9-.382 1.235 1.235 0 0 1-.382-.9V3.857a1.235 1.235 0 0 1 .382-.9 1.235 1.235 0 0 1 .9-.382h1.285v-.968A1.548 1.548 0 0 1 3.043.472 1.548 1.548 0 0 1 4.179 0h.643a1.548 1.548 0 0 1 1.135.472 1.548 1.548 0 0 1 .472 1.135v.965h3.857v-.965a1.548 1.548 0 0 1 .472-1.135A1.548 1.548 0 0 1 11.893 0h.643a1.548 1.548 0 0 1 1.135.472 1.548 1.548 0 0 1 .472 1.135v.965h1.286a1.235 1.235 0 0 1 .9.382 1.236 1.236 0 0 1 .382.9z" style="fill:#0e497b"/>
</svg>
