<svg xmlns="http://www.w3.org/2000/svg" width="18.235" height="11.397" viewBox="0 0 18.235 11.397">
    <path data-name="Path 79" d="M17.1 7.89H1.14v9.118H17.1zM1.14 6.75A1.14 1.14 0 0 0 0 7.89v9.118a1.14 1.14 0 0 0 1.14 1.14H17.1a1.14 1.14 0 0 0 1.14-1.14V7.89a1.14 1.14 0 0 0-1.14-1.14z" style="fill-rule:evenodd;fill:#0e497b" transform="translate(0 -6.75)"/>
    <path data-name="Path 80" d="M15.927 9a2.279 2.279 0 0 0 2.279 2.279V9zM4.529 9a2.279 2.279 0 0 1-2.279 2.279V9zm11.4 9.118a2.279 2.279 0 0 1 2.279-2.279v2.279zm-11.4 0a2.279 2.279 0 0 0-2.279-2.28v2.279zm7.978-4.559a2.279 2.279 0 1 1-2.279-2.279 2.279 2.279 0 0 1 2.279 2.279z" transform="translate(-1.11 -7.86)" style="fill:#0e497b"/>
</svg>
