<svg xmlns="http://www.w3.org/2000/svg" width="536" height="330.383" viewBox="0 0 536 330.383">
    <defs>
        <style>
            .cls-1{fill:#0e497b}
        </style>
    </defs>
    <g id="Group_702" data-name="Group 702" transform="translate(-95.156 -47.174)">
        <g id="Group_778" data-name="Group 778" transform="translate(95.156 47.174)">
            <g id="Group_699" data-name="Group 699">
                <g id="Group_776" data-name="Group 776">
                    <g id="Group_779" data-name="Group 779">
                        <path id="Path_182" data-name="Path 182" class="cls-1" d="m159.787 281.655-10.794-42.472-85.254 21.667-11.267-44.332L120.6 61.247l33.792-8.588 32.856 129.275L214.53 175l11.346 44.643-27.281 6.933 10.794 42.472zm-58.413-77.9 42.161-10.716-13.945-54.871z" transform="translate(-52.472 48.728)"/>
                        <path id="Path_184" data-name="Path 184" class="cls-1" d="m341.377 272.185 7.008-43.258-86.83-14.066 7.314-45.153L393.187 54.4l34.413 5.576-21.327 131.667 27.787 4.5-7.366 45.467-27.787-4.5-7.007 43.26zm-22.567-94.711 42.941 6.958 9.054-55.888z" transform="translate(101.94 50.013)"/>
                        <path id="Path_183" data-name="Path 183" class="cls-1" d="M325.577 144.132a113.907 113.907 0 0 1-6.4 38.863 96.441 96.441 0 0 1-17.6 30.708 79.654 79.654 0 0 1-26.377 20.152 76.368 76.368 0 0 1-33.108 7.2 77.38 77.38 0 0 1-33.267-7.2 79.113 79.113 0 0 1-26.551-20.155 94.026 94.026 0 0 1-17.432-30.708 116.494 116.494 0 0 1-6.238-38.863 116.519 116.519 0 0 1 6.238-38.865 94.061 94.061 0 0 1 17.432-30.704 81.052 81.052 0 0 1 26.549-20.311 76 76 0 0 1 33.267-7.357 75.008 75.008 0 0 1 33.11 7.356 81.637 81.637 0 0 1 26.383 20.312 96.477 96.477 0 0 1 17.6 30.707 113.931 113.931 0 0 1 6.4 38.865m-51.5 0q0-22.385-8.957-36.305t-23.03-13.913q-14.716 0-23.51 13.913t-8.8 36.305q0 22.393 8.8 36.144t23.51 13.755q14.074 0 23.03-13.755t8.957-36.144" transform="translate(25.909 44.468)"/>
                    </g>
                    <g id="Group_777" data-name="Group 777" transform="translate(171.857)">
                        <path id="Path_185" data-name="Path 185" class="cls-1" d="M175.623 50.648a22.647 22.647 0 0 1-9.939-2.144 24.33 24.33 0 0 1-7.653-5.688 26.375 26.375 0 0 1-6.707-17.451 25.053 25.053 0 0 1 1.86-9.551 26.339 26.339 0 0 1 5.127-8.075 24.452 24.452 0 0 1 7.761-5.584 23.043 23.043 0 0 1 9.762-2.074 21.885 21.885 0 0 1 9.866 2.213 24.654 24.654 0 0 1 7.62 5.793 26.756 26.756 0 0 1 4.917 8.147 25.654 25.654 0 0 1 1.754 9.272 25.223 25.223 0 0 1-1.826 9.517 25.874 25.874 0 0 1-5.057 8.006 24.292 24.292 0 0 1-7.724 5.548 23.028 23.028 0 0 1-9.762 2.072m-14.467-25.285a20.052 20.052 0 0 0 .982 6.25 16.661 16.661 0 0 0 2.846 5.337 14.117 14.117 0 0 0 4.565 3.724 14.146 14.146 0 0 0 12.359-.037 14.128 14.128 0 0 0 4.565-3.828 17.088 17.088 0 0 0 2.809-5.37 19.94 19.94 0 0 0 .948-6.076 19.457 19.457 0 0 0-1.019-6.25 17.273 17.273 0 0 0-2.879-5.339 13.769 13.769 0 0 0-4.564-3.686 14.224 14.224 0 0 0-12.326.07 13.885 13.885 0 0 0-4.565 3.792 17.036 17.036 0 0 0-2.776 5.339 19.984 19.984 0 0 0-.947 6.074" transform="translate(-151.324 .06)"/>
                        <path id="Path_186" data-name="Path 186" class="cls-1" d="M201.057 45.567a20.213 20.213 0 0 1-8.077-1.544 18.114 18.114 0 0 1-6.074-4.179 18.439 18.439 0 0 1-3.828-6.074 20.453 20.453 0 0 1 0-14.538 18.4 18.4 0 0 1 3.828-6.074 18.114 18.114 0 0 1 6.074-4.179 20.213 20.213 0 0 1 8.077-1.546 19.962 19.962 0 0 1 8.043 1.546 18.213 18.213 0 0 1 6.04 4.179 18.432 18.432 0 0 1 3.828 6.074 20.477 20.477 0 0 1 0 14.538 18.752 18.752 0 0 1-3.793 6.074 17.746 17.746 0 0 1-6.04 4.179 20.21 20.21 0 0 1-8.075 1.544m-9.623-19.032a12.843 12.843 0 0 0 .734 4.465 10.883 10.883 0 0 0 2.037 3.477 9.1 9.1 0 0 0 3.055 2.281 9.3 9.3 0 0 0 7.585 0 9.094 9.094 0 0 0 3.055-2.281 10.843 10.843 0 0 0 2.038-3.512 13.149 13.149 0 0 0 .737-4.5 12.931 12.931 0 0 0-.737-4.423 10.825 10.825 0 0 0-2.041-3.512 9.1 9.1 0 0 0-3.055-2.283 8.958 8.958 0 0 0-3.792-.808 8.652 8.652 0 0 0-3.793.843 9.538 9.538 0 0 0-3.055 2.317 10.813 10.813 0 0 0-2.037 3.512 12.94 12.94 0 0 0-.737 4.425" transform="translate(-128.86 5.489)"/>
                        <path id="Path_187" data-name="Path 187" class="cls-1" d="M229.606 45.567a14.485 14.485 0 0 1-7.583-1.931 13.724 13.724 0 0 1-5.057-5.231v21.42h-9.411V8.066h8.216v6.32a15.039 15.039 0 0 1 5.269-5.092 14.649 14.649 0 0 1 7.443-1.86 15.756 15.756 0 0 1 6.883 1.511 17.034 17.034 0 0 1 5.443 4.072 19.008 19.008 0 0 1 3.581 6.04 20.811 20.811 0 0 1 1.3 7.34 23.221 23.221 0 0 1-1.193 7.514 19.239 19.239 0 0 1-3.336 6.111 15.567 15.567 0 0 1-5.092 4.073 14.257 14.257 0 0 1-6.462 1.474m-3.159-8.006a8.46 8.46 0 0 0 3.9-.913 9.414 9.414 0 0 0 3.055-2.458 11.565 11.565 0 0 0 1.966-3.583 12.832 12.832 0 0 0 .7-4.212 11.891 11.891 0 0 0-.772-4.318 10.724 10.724 0 0 0-2.144-3.477 9.951 9.951 0 0 0-3.23-2.317 9.652 9.652 0 0 0-4.037-.843 8.828 8.828 0 0 0-2.738.457 9.64 9.64 0 0 0-2.6 1.3 11.43 11.43 0 0 0-2.142 1.966 8.19 8.19 0 0 0-1.439 2.458v8.639a12.5 12.5 0 0 0 3.863 5.231 8.831 8.831 0 0 0 5.619 2.072" transform="translate(-109.797 5.489)"/>
                        <path id="Path_188" data-name="Path 188" class="cls-1" d="M248.236 45.6a28.491 28.491 0 0 1-9.059-1.474 22.117 22.117 0 0 1-7.585-4.214l3.51-5.9a30.271 30.271 0 0 0 6.568 3.616 17.576 17.576 0 0 0 6.356 1.229 8.04 8.04 0 0 0 4.424-1.057 3.393 3.393 0 0 0 1.613-3.02 3.015 3.015 0 0 0-1.895-2.879 40.978 40.978 0 0 0-6.18-2.107q-3.581-.983-6.111-1.9a15.546 15.546 0 0 1-4.072-2.072 7.067 7.067 0 0 1-2.248-2.667 8.506 8.506 0 0 1-.7-3.618 11.448 11.448 0 0 1 1.088-5.057A11.017 11.017 0 0 1 237 10.659a14.143 14.143 0 0 1 4.6-2.423 18.677 18.677 0 0 1 5.723-.843 24.6 24.6 0 0 1 7.759 1.194 18.932 18.932 0 0 1 6.638 3.863l-3.793 5.688a21.988 21.988 0 0 0-5.443-3.089 14.865 14.865 0 0 0-5.231-.984 7.566 7.566 0 0 0-4 .984 3.42 3.42 0 0 0-1.617 3.161 3.044 3.044 0 0 0 .388 1.615 3.386 3.386 0 0 0 1.229 1.123 11.925 11.925 0 0 0 2.211.947q1.372.459 3.406.949 3.792.983 6.5 1.966a17.759 17.759 0 0 1 4.425 2.246 8.027 8.027 0 0 1 2.53 2.916 8.994 8.994 0 0 1 .8 3.967 10.241 10.241 0 0 1-4 8.534q-4 3.124-10.885 3.124" transform="translate(-92.045 5.459)"/>
                        <path id="Path_189" data-name="Path 189" class="cls-1" d="M254.293 0h9.407v31.6h-9.411zm0 39.75h9.407v10.6h-9.411z" transform="translate(-75.28)"/>
                    </g>
                </g>
            </g>
        </g>
    </g>
</svg>
