<?xml version="1.0" standalone="no"?>
<!DOCTYPE svg PUBLIC "-//W3C//DTD SVG 20010904//EN"
 "http://www.w3.org/TR/2001/REC-SVG-20010904/DTD/svg10.dtd">
<svg version="1.0" xmlns="http://www.w3.org/2000/svg"
 width="960.000000pt" height="960.000000pt" viewBox="0 0 960.000000 960.000000"
 preserveAspectRatio="xMidYMid meet">
<metadata>
Created by potrace 1.14, written by Peter Selinger 2001-2017
</metadata>
<g transform="translate(0.000000,960.000000) scale(0.100000,-0.100000)"
fill="#000000" stroke="none">
<path d="M7440 5583 c-35 -70 -122 -249 -195 -398 -73 -148 -195 -398 -272
-555 l-140 -285 -23 75 c-13 41 -24 80 -26 85 -9 35 -65 210 -69 214 -8 7
-150 5 -170 -3 -12 -4 -14 -10 -8 -19 9 -11 57 -134 58 -147 0 -3 3 -10 7 -16
4 -5 13 -28 21 -50 41 -116 101 -270 109 -280 11 -15 195 -15 206 0 5 6 33 74
62 151 29 77 113 300 187 495 74 195 136 360 137 365 2 6 7 21 13 35 6 14 19
50 31 80 11 30 26 69 33 85 7 17 13 32 14 35 7 30 42 123 57 153 10 20 16 37
13 37 -3 0 2 14 10 31 9 17 14 33 12 36 -3 2 -33 -53 -67 -124z"/>
<path d="M1962 5301 c-5 -3 -9 -256 -8 -561 l1 -555 75 -1 c41 0 80 1 86 3 7
3 10 170 10 560 l-1 557 -77 1 c-43 1 -82 -1 -86 -4z"/>
<path d="M6121 5300 c-4 -3 -8 -255 -7 -560 l1 -555 78 0 c44 0 81 4 85 10 8
12 10 1104 2 1106 -18 5 -152 4 -159 -1z"/>
<path d="M1210 5230 c-7 -5 -60 -130 -60 -143 0 -4 -29 -87 -64 -184 -35 -98
-91 -257 -125 -353 -54 -150 -114 -317 -128 -356 -6 -17 173 -19 183 -3 4 7
22 55 40 108 l33 96 218 1 c145 1 220 -2 225 -9 4 -6 21 -55 39 -109 l33 -98
83 0 c46 0 83 3 83 6 0 4 -27 84 -60 178 -34 94 -66 185 -71 201 -6 17 -15 39
-19 50 -5 11 -16 43 -25 70 -10 28 -20 57 -23 65 -3 8 -6 17 -7 20 -1 3 -4 12
-8 20 -3 8 -36 101 -72 205 -37 105 -71 201 -76 215 -9 24 -12 25 -100 25 -50
0 -94 -2 -99 -5z m107 -217 c-4 -3 -3 -11 2 -17 4 -6 11 -20 14 -31 6 -22 131
-381 141 -406 6 -14 -11 -16 -159 -16 -91 -1 -167 2 -169 6 -3 4 19 74 48 156
29 83 65 187 81 233 15 45 32 82 38 82 6 0 7 -3 4 -7z"/>
<path d="M2610 5028 c-64 -11 -143 -55 -198 -108 -202 -197 -144 -593 103
-709 66 -31 95 -36 190 -35 94 2 147 22 218 85 53 46 49 51 48 -71 -2 -88 -3
-94 -24 -143 -18 -42 -27 -52 -73 -84 -56 -40 -172 -48 -250 -18 -40 15 -124
93 -124 115 0 6 -34 10 -85 10 -92 0 -92 0 -75 -60 24 -87 119 -182 205 -205
17 -5 35 -9 40 -11 110 -32 253 -20 355 28 85 41 160 133 187 228 4 14 9 237
10 497 l4 471 -82 4 c-44 2 -83 0 -86 -5 -2 -4 -5 -29 -6 -56 l-1 -49 -45 37
c-58 46 -78 57 -132 71 -56 16 -122 19 -179 8z m182 -159 c75 -17 155 -106
174 -193 3 -12 5 -51 5 -89 -1 -201 -186 -329 -358 -246 -47 23 -83 61 -115
123 -16 31 -22 62 -24 125 -3 101 15 154 72 213 68 71 139 90 246 67z"/>
<path d="M3650 5024 c-30 -8 -63 -16 -72 -19 -30 -7 -126 -75 -158 -111 -86
-98 -121 -244 -95 -391 3 -18 6 -36 7 -40 0 -5 9 -26 20 -48 81 -161 217 -243
398 -242 125 0 216 37 308 125 153 145 161 434 17 595 -101 113 -278 168 -425
131z m171 -149 c60 -20 131 -88 153 -147 21 -56 25 -141 11 -198 -35 -135
-123 -204 -254 -201 -98 2 -174 52 -215 141 -30 67 -29 207 3 272 57 119 181
173 302 133z"/>
<path d="M5402 5020 c-193 -53 -308 -207 -310 -415 -2 -221 127 -384 336 -425
278 -55 526 145 523 420 -1 133 -41 231 -129 317 -106 103 -271 143 -420 103z
m190 -146 c76 -25 148 -105 164 -185 40 -202 -67 -359 -245 -359 -154 1 -240
92 -246 259 -4 108 14 162 78 225 73 72 150 91 249 60z"/>
<path d="M7598 5016 c-143 -47 -234 -149 -268 -302 -44 -196 32 -389 189 -482
131 -77 326 -76 449 1 66 43 167 175 147 195 -3 4 -45 6 -92 5 -80 0 -88 -2
-104 -25 -37 -51 -94 -80 -160 -83 -132 -6 -228 63 -254 183 -7 32 -6 32 32
32 21 1 165 1 321 1 307 0 284 -4 285 54 0 21 -10 108 -16 135 -30 137 -118
233 -262 286 -70 25 -188 25 -267 0z m195 -130 c3 3 28 -6 56 -20 58 -30 95
-79 109 -144 l10 -42 -229 0 c-260 1 -249 -3 -208 85 40 85 161 149 235 123
12 -3 24 -4 27 -2z"/>
<path d="M4512 5015 c-153 -35 -237 -154 -208 -295 14 -66 79 -122 179 -151
39 -11 79 -23 87 -26 14 -6 25 -9 53 -16 137 -37 175 -77 141 -148 -20 -40
-68 -58 -145 -55 -78 2 -122 28 -139 81 -6 19 -18 35 -26 36 -8 0 -39 0 -69 0
-99 0 -93 2 -90 -33 6 -54 20 -82 70 -130 78 -77 169 -109 294 -104 175 8 280
95 287 237 6 118 -61 185 -241 240 -181 55 -199 63 -221 97 -35 53 3 117 78
129 18 3 40 6 48 8 27 4 84 -16 107 -38 13 -11 28 -35 35 -54 7 -18 14 -33 18
-34 29 -5 136 -2 151 3 15 6 18 13 13 35 -13 56 -45 117 -75 144 -33 30 -104
66 -142 73 -12 3 -22 5 -22 6 0 8 -144 3 -183 -5z"/>
<path d="M8659 5022 c-48 -12 -99 -41 -130 -74 -20 -21 -38 -38 -41 -38 -2 0
-3 22 -2 49 1 30 -2 51 -9 54 -7 2 -46 3 -87 3 l-75 -2 -1 -412 c0 -226 2
-412 5 -413 24 -4 161 -4 162 1 1 3 3 116 4 252 2 206 5 254 20 290 31 78 74
108 170 117 l60 6 2 88 2 88 -33 -3 c-18 -1 -39 -4 -47 -6z"/>
</g>
</svg>
