<?xml version="1.0" encoding="UTF-8"?> <!-- Generator: Adobe Illustrator 23.0.3, SVG Export Plug-In . SVG Version: 6.00 Build 0) --> <svg xmlns="http://www.w3.org/2000/svg" xmlns:xlink="http://www.w3.org/1999/xlink" version="1.1" id="Capa_1" x="0px" y="0px" viewBox="0 0 512 512" style="enable-background:new 0 0 512 512;" xml:space="preserve"> <style type="text/css"> .st0{fill:#0e497b;} </style> <path class="st0" d="M512,265.4C512,265.4,512,265.4,512,265.4C512,265.4,512,265.4,512,265.4c-0.2-12.7-1.8-18.1-12.6-29.9 L482,216.6c-1-1.1-1.9-2-2.7-2.9c-7.4-8.2-11.2-11.8-25.6-11.8h0c0,0,0,0,0,0h-72.6V121c0-8.4-6.8-15.3-15.3-15.3h-80.7V92.6 c0-33.7-27.4-61.1-61-61.1h-67.3c-33.6,0-61,27.4-61,61.1v13.2H15.3C6.8,105.8,0,112.6,0,121v250c0,8.4,6.8,15.3,15.3,15.3h107.4 c4.1,0,7.5-3.4,7.5-7.5s-3.4-7.5-7.5-7.5H15.3c-0.1,0-0.3-0.1-0.3-0.3V225.5c42,9.9,83.9,16.5,124.6,19.6v14c0,7.7,6.3,14,13.9,14 h74.1c7.7,0,13.9-6.3,13.9-14v-14c13.3-1,26.7-2.4,40-4.1v130.3H157.3c-4.1,0-7.5,3.4-7.5,7.5s3.4,7.5,7.5,7.5h124.3v73.3 c0,11.5,9.4,20.9,20.9,20.9h44c4.1,0,7.5-3.4,7.5-7.5s-3.4-7.5-7.5-7.5h-44c-3.2,0-5.9-2.7-5.9-5.9V222.7c0-3.2,2.7-5.9,5.9-5.9 h71.2h72.6l0,35.2c0,11.5,9.4,20.9,20.9,20.9H497v186.7c0,3.2-2.7,5.9-5.9,5.9h-110c-4.1,0-7.5,3.4-7.5,7.5s3.4,7.5,7.5,7.5h110 c11.5,0,20.9-9.4,20.9-20.9V270C512,268.4,512,266.9,512,265.4L512,265.4z M110.9,92.6c0-25.4,20.6-46.1,46-46.1h67.3 c25.4,0,46,20.7,46,46.1v13.2h-15V92.6c0-17.1-13.9-31-31-31h-67.3c-17.1,0-31,13.9-31,31v13.2h-15L110.9,92.6z M240.2,105.8h-99.3 V92.6c0-8.8,7.2-16,16-16h67.3c8.8,0,16,7.2,16,16L240.2,105.8z M226.5,258.1h-71.9v-36.9h71.9V258.1z M366.2,201.8h-63.7 c-11.5,0-20.9,9.4-20.9,20.9v3.1c-13.4,1.7-26.8,3.1-40,4.1v-9.9c0-7.7-6.3-13.9-13.9-13.9h-74.1c-7.7,0-13.9,6.3-13.9,13.9v9.9 C98.9,226.9,57,220.2,15,210.1v-89c0-0.1,0.1-0.3,0.3-0.3h88.2h30h114.3h30h88.2c0.1,0,0.3,0.1,0.3,0.3L366.2,201.8L366.2,201.8z M467.1,257.9c-3.2,0-5.9-2.7-5.9-5.9l0-34.5c2.1,0.8,3.7,2.5,6.9,6.2c0.8,0.9,1.8,2,2.8,3.1l17.4,18.9c5.1,5.5,7.2,8.2,8,12.2 L467.1,257.9L467.1,257.9z"></path> <path class="st0" d="M456.9,332H334.6c-4.1,0-7.5,3.4-7.5,7.5s3.4,7.5,7.5,7.5h122.3c4.1,0,7.5-3.4,7.5-7.5S461,332,456.9,332z"></path> <path class="st0" d="M456.9,371H334.6c-4.1,0-7.5,3.4-7.5,7.5s3.4,7.5,7.5,7.5h122.3c4.1,0,7.5-3.4,7.5-7.5S461,371,456.9,371z"></path> <path class="st0" d="M334.6,425.1h122.3c4.1,0,7.5-3.4,7.5-7.5s-3.4-7.5-7.5-7.5H334.6c-4.1,0-7.5,3.4-7.5,7.5 S330.5,425.1,334.6,425.1z"></path> <path class="st0" d="M368.5,248.9h-35.7c-4.1,0-7.5,3.4-7.5,7.5c0,4.1,3.4,7.5,7.5,7.5h35.7c4.1,0,7.5-3.4,7.5-7.5 S372.7,248.9,368.5,248.9L368.5,248.9z"></path> <path class="st0" d="M332.8,297.7h24.2c4.1,0,7.5-3.4,7.5-7.5s-3.4-7.5-7.5-7.5h-24.2c-4.1,0-7.5,3.4-7.5,7.5 S328.7,297.7,332.8,297.7z"></path> </svg> 