<?xml version="1.0" encoding="UTF-8"?> <!-- Generator: Adobe Illustrator 23.0.3, SVG Export Plug-In . SVG Version: 6.00 Build 0) --> <svg xmlns="http://www.w3.org/2000/svg" xmlns:xlink="http://www.w3.org/1999/xlink" version="1.1" id="Layer_1" x="0px" y="0px" viewBox="0 0 512 512" style="enable-background:new 0 0 512 512;" xml:space="preserve"> <style type="text/css"> .st0{fill:#0e497b;} </style> <path class="st0" d="M217.6,157.5c4.2,0,7.6-3.4,7.6-7.6v-8.5c0-4.2-3.4-7.6-7.6-7.6c-4.2,0-7.6,3.4-7.6,7.6v8.5 C210,154.1,213.4,157.5,217.6,157.5z"></path> <path class="st0" d="M287.7,157.5c4.2,0,7.6-3.4,7.6-7.6v-8.5c0-4.2-3.4-7.6-7.6-7.6c-4.2,0-7.6,3.4-7.6,7.6v8.5 C280.1,154.1,283.5,157.5,287.7,157.5z"></path> <path class="st0" d="M224.7,360.5c0,15.1,13.7,27.4,30.5,27.4c16.8,0,30.5-12.3,30.5-27.4c0-15.1-13.7-27.4-30.5-27.4 C238.4,333.1,224.7,345.4,224.7,360.5z M255.2,348.2c8.5,0,15.4,5.5,15.4,12.3c0,6.8-6.9,12.3-15.4,12.3c-8.5,0-15.4-5.5-15.4-12.3 C239.8,353.8,246.7,348.2,255.2,348.2z"></path> <path class="st0" d="M506.2,427l-14.5-20.7c-6.1-8.7-14.1-20.1-25.9-23.7c4-10,2.4-22-4.9-35.8c0,0,0-0.1,0-0.1c0,0,0-0.1-0.1-0.1 l-30.1-56.8c-17.2-32.5-32.5-55.7-72.4-57.9c-16-0.8-26.2-3.7-37.8-17.1c-1.1-1.3-2.9-3.2-4.8-5c14.6-14.2,25.8-31.9,30.8-49.4 c5.7-1.3,11.3-4.4,16-9.1c6.1-6,9.6-13.6,9.6-20.9v-9c0-9.2-7.5-16.6-16.6-16.6h-6v-9.1c11-9,17.9-20.3,20-32.9 c2-12.3-0.7-25.2-7.6-36.3C348.1,4.4,317.6-9.3,286.1,7.4c-11.4,6.1-25.1,4.4-39.6,2.6c-15.4-1.9-31.2-3.9-46.5,2.9 c-14.9,6.5-26.3,16.9-34.1,30.6c-7.5,13.3-11.3,29.6-11.3,48.4v12.8h-6c-9.2,0-16.6,7.5-16.6,16.6v9c0,7.3,3.5,14.9,9.6,20.9 c4.7,4.6,10.3,7.8,16,9.1c5.4,18.8,17.8,37.8,34,52.4c-0.7,0.7-1.3,1.4-1.8,2c-6.4,7.4-12.4,11.6-19.2,14 c-5.5,1.9-11.5,2.7-18.6,3.1c-39.9,2.1-55.2,25.3-72.4,57.9l-30.1,56.8c0,0.1-0.1,0.1-0.1,0.2c0,0,0,0,0,0.1 c-7.5,14.3-9,26.7-4.4,37c-10.1,4.5-17.3,14.7-22.8,22.6L7.8,427c-3.5,4.9-5.4,10.3-5.8,15.4c0,0.3-0.1,0.7-0.1,1v45.5 C2,501.6,12.4,512,25.1,512h463.7c12.8,0,23.1-10.4,23.1-23.1v-42.9c0,0,0,0,0,0C512.4,439.7,510.4,433.1,506.2,427z M152.3,140.5 c-3.2-3.1-5.1-6.9-5.1-10.1v-9c0-0.8,0.7-1.5,1.5-1.5h6v20.9c0,0.6,0,1.2,0.1,1.8C153.9,142,153.1,141.3,152.3,140.5z M450.7,379 c-4.8,7.9-20.6,17.4-69,17.4l4.3-43.1c28.6-6.4,47.1-5.8,62.4,2.2C453.3,365.5,454.1,373.4,450.7,379z M355.5,119.9 c0.8,0,1.5,0.7,1.5,1.5v9c0,3.2-1.9,7-5.1,10.1c-0.8,0.8-1.6,1.5-2.5,2.1c0-0.6,0.1-1.2,0.1-1.8v-20.9H355.5z M206.1,26.7 c11.5-5,24.7-3.4,38.6-1.7c16.2,2,32.9,4.1,48.5-4.2c24.4-13,46-2,55.8,13.7c8.4,13.4,10.5,34.7-10.8,50.8 c-56.7,21.4-78.7,13-102,4.2c-12.6-4.8-25.4-9.6-43.1-9.6c-6.8,0-14.4,0.7-22.9,2.4C172,61.7,180.3,38.1,206.1,26.7z M171.2,152.4 c0-0.3-0.1-0.6-0.2-0.9c-0.8-3.7-1.2-7.3-1.2-10.8V97.9c28.6-6.6,43.7-0.8,61.1,5.8c12.9,4.9,26.7,10.1,46.6,10.1 c14.8,0,33-2.9,56.8-11v38c0,3.4-0.4,6.9-1.1,10.4c-0.1,0.5-0.2,0.9-0.3,1.4c-6.2,27.4-32,57.2-61,68c-14.6,5.5-25,5.5-39.6,0.1 C203.2,209.8,177.3,179.9,171.2,152.4z M201.3,224.7c0.5-0.6,1.4-1.5,2.3-2.4c7.4,5.2,15.4,9.5,23.6,12.6c9,3.3,17,5,25,5 c8.1,0,16.1-1.7,25.1-5.1c9.5-3.5,18.7-8.8,27.1-15.2c1.9,1.9,3.8,3.9,4.9,5.1c5.4,6.3,10.8,10.8,16.4,14.1 c-13.1,14.6-38.4,24.2-67.6,25.1c-31.8,0.9-59.2-8.5-73.4-25C190.3,235.6,195.8,231,201.3,224.7z M93,296.8 c17.3-32.7,28.8-48.2,59.8-49.9c6.1-0.3,11.7-1,17.1-2.3c15.6,21.4,47.1,34.3,83.9,34.3c1.5,0,3.1,0,4.6-0.1 c36.2-1.1,66.8-14.1,81.8-34.3c5.4,1.3,11.1,2,17.3,2.3c31,1.7,42.5,17.2,59.8,49.9l20.7,39c-13.8-3.1-29.9-2.4-50.4,1.8l3.3-32.5 c0.5-4.8-1.1-9.4-4.4-13.1c-3.6-4-8.8-6.3-14.1-6.3h-98c-4.2,0-7.6,3.4-7.6,7.6c0,4.2,3.4,7.6,7.6,7.6h98c1.1,0,2.2,0.5,2.9,1.3 c0.4,0.5,0.6,1,0.6,1.4L364.5,416c-0.2,2-1.4,4.2-3.5,4.2H149.4c-2.3,0-3.3-2.5-3.5-4.2l-7-69.1c0-0.3,0-0.6-0.1-0.8l-4.3-42.4 c0-0.5,0.1-0.9,0.6-1.4c0.7-0.8,1.9-1.3,2.9-1.3h101.4c4.2,0,7.6-3.4,7.6-7.6c0-4.2-3.4-7.6-7.6-7.6H138c-5.4,0-10.5,2.3-14.1,6.3 c-3.3,3.7-4.9,8.3-4.4,13.1l3.3,32.5c-20.5-4.2-36.6-4.8-50.4-1.8L93,296.8z M62,355.6c15.3-7.9,33.8-8.6,62.4-2.2l4.4,43.1 c-39.2,0-57.1-6.3-65-12.8c-0.2-0.2-0.4-0.4-0.6-0.6c-1.5-1.3-2.6-2.7-3.4-4C56.3,373.4,57.1,365.5,62,355.6z M271.3,468.5h212.6 c4.8,0,9.1-0.8,12.9-2.4v22.7c0,4.4-3.6,8-8,8H25.1c-4.4,0-8-3.6-8-8v-22.8c3.8,1.6,8.2,2.4,13,2.4l206.3-0.1c4.2,0,7.6-3.4,7.6-7.6 c0-4.2-3.4-7.6-7.6-7.6c0,0,0,0,0,0l-206.3,0.1c-5.9,0-10.4-2-12.2-5.4c-0.5-1-0.8-2-0.9-3.2v-1.3c0.2-2.4,1.2-5.2,3.1-7.9L34.7,415 c5.5-7.8,12.3-17.6,19.9-18.4c0.2,0,0.7,0,1.2,0c13.7,10.1,37.8,15,73.2,15h1.3l0.6,5.9c1,10.3,8.8,17.8,18.5,17.8H361 c9.7,0,17.5-7.5,18.6-17.8l0.6-5.9h1.3c35.4,0,59.5-4.9,73.2-15c1.8,0,4,0,4.6,0c7.7,0.7,14.5,10.5,20.1,18.4l14.5,20.7 c3.2,4.5,4,9,2.2,12.3c-1.8,3.4-6.2,5.4-12.1,5.4H271.3c-4.2,0-7.6,3.4-7.6,7.6S267.1,468.5,271.3,468.5z"></path> </svg> 