<?xml version="1.0" encoding="UTF-8"?> <!-- Generator: Adobe Illustrator 23.0.3, SVG Export Plug-In . SVG Version: 6.00 Build 0) --> <svg xmlns="http://www.w3.org/2000/svg" xmlns:xlink="http://www.w3.org/1999/xlink" version="1.1" id="Capa_1" x="0px" y="0px" viewBox="0 0 512 512" style="enable-background:new 0 0 512 512;" xml:space="preserve"> <style type="text/css"> .st0{fill:#0e497b;} </style> <g> <g> <path class="st0" d="M497,384h-98V64c0-35.3-28.7-64-64-64H69C33.7,0,5,28.7,5,64c0,5.5,4.5,10,10,10h28v320c0,35.3,28.7,64,64,64 h142.3c5.5,0,10-4.5,10-10s-4.5-10-10-10H107c-24.3,0-44-19.7-44-44V74h218c5.5,0,10-4.5,10-10c0-24.3,19.7-44,44-44 s44,19.7,44,44v330c0,17,6.7,32.5,17.6,44h-30.5v-4.5c4.4-7.4,7-16.1,7-25.4c0-27.6-22.4-50-50-50s-50,22.4-50,50 c0,9.3,2.5,17.9,7,25.4V502c0,3.6,1.9,6.9,5,8.7c3.1,1.8,6.9,1.8,10,0l28.1-16.1l28.1,16.1c1.5,0.9,3.3,1.3,5,1.3 c1.7,0,3.5-0.4,5-1.3c3.1-1.8,5-5.1,5-8.7v-44c11.3,0,75.5,0,76.9,0c35.3,0,64-28.7,64-64C507,388.5,502.5,384,497,384z M271.8,54 H26.1c4.5-19.5,22-34,42.9-34h219.6C279.9,29.2,273.8,40.9,271.8,54z M318,474.3L300,484.7v-32.3c6.9,3.6,14.7,5.6,23,5.6 s16.1-2,23-5.6v32.3L328,474.3C324.9,472.6,321.1,472.6,318,474.3z M323,438.1c-16.5,0-30-13.5-30-30s13.5-30,30-30s30,13.5,30,30 S339.6,438.1,323,438.1z M366.1,457.9L366.1,457.9C366.2,457.8,366.2,457.9,366.1,457.9z M366.1,438.2L366.1,438.2 C366.2,438.1,366.2,438.2,366.1,438.2z M443,438c-20.8,0-38.3-14.5-42.9-34h85.7C481.3,423.5,463.8,438,443,438z"></path> </g> </g> <g> <g> <path class="st0" d="M326,246H136c-5.5,0-10,4.5-10,10c0,5.5,4.5,10,10,10h190c5.5,0,10-4.5,10-10C336,250.5,331.5,246,326,246z"></path> </g> </g> <g> <g> <path class="st0" d="M326,295H136c-5.5,0-10,4.5-10,10s4.5,10,10,10h190c5.5,0,10-4.5,10-10S331.5,295,326,295z"></path> </g> </g> <g> <g> <path class="st0" d="M213.2,381.1h-41.9c-5.5,0-10,4.5-10,10s4.5,10,10,10h41.9c5.5,0,10-4.5,10-10S218.7,381.1,213.2,381.1z"></path> </g> </g> <g> <g> <path class="st0" d="M136.7,381.1h-0.6c-5.5,0-10,4.5-10,10s4.5,10,10,10h0.6c5.5,0,10-4.5,10-10S142.2,381.1,136.7,381.1z"></path> </g> </g> <g> <g> <path class="st0" d="M234.2,334.7c-2.2-5.1-8-7.4-13.1-5.3l-36.6,15.7l-13.4-13.5c-3.3-3.4-8.6-3.9-12.6-1.3l-28,18.3 c-4.6,3-5.9,9.2-2.9,13.8c1.9,2.9,5.1,4.5,8.4,4.5c1.9,0,3.8-0.5,5.5-1.6l21.2-13.9L175,364c2.9,2.9,7.3,3.8,11,2.2l42.8-18.3 C234,345.7,236.4,339.8,234.2,334.7z"></path> </g> </g> <g> <g> <path class="st0" d="M289.8,135.1c-1.2-3.6-4.3-6.3-8.1-6.8l-35.6-5.2l-15.9-32.2c-1.7-3.4-5.2-5.6-9-5.6c0,0,0,0,0,0 c-3.8,0-7.3,2.2-9,5.6l-15.9,32.2l-35.6,5.2c-3.8,0.5-6.9,3.2-8.1,6.8c-1.2,3.6-0.2,7.6,2.5,10.3l25.7,25.1l-6.1,35.4 c-0.6,3.8,0.9,7.5,4,9.8c1.7,1.3,3.8,1.9,5.9,1.9c1.6,0,3.2-0.4,4.7-1.1l31.8-16.7l31.8,16.7c3.4,1.8,7.5,1.5,10.5-0.8 c3.1-2.2,4.6-6,4-9.8l-6.1-35.4l25.7-25.1C290,142.7,291,138.7,289.8,135.1z M243.9,159.8c-2.4,2.3-3.4,5.6-2.9,8.9l3.5,20.6 l-18.5-9.7c-2.9-1.5-6.4-1.5-9.3,0l-18.5,9.7l3.5-20.6c0.6-3.2-0.5-6.6-2.9-8.9l-15-14.6l20.7-3c3.3-0.5,6.1-2.5,7.5-5.5l9.3-18.8 l9.3,18.8c1.5,3,4.3,5,7.5,5.5l20.7,3L243.9,159.8z"></path> </g> </g> </svg> 