<?xml version="1.0" encoding="UTF-8"?> <!-- Generator: Adobe Illustrator 23.0.3, SVG Export Plug-In . SVG Version: 6.00 Build 0) --> <svg xmlns="http://www.w3.org/2000/svg" xmlns:xlink="http://www.w3.org/1999/xlink" version="1.1" id="Layer_1" x="0px" y="0px" viewBox="0 0 512 512" style="enable-background:new 0 0 512 512;" xml:space="preserve"> <style type="text/css"> .st0{fill:#0e497b;} </style> <g> <g> <path class="st0" d="M394.7,214.4v-75.8C394.7,62.2,332.5,0,256,0S117.3,62.2,117.3,138.7v75.8c-24.3,4.9-42.7,26.5-42.7,52.2v192 c0,29.4,23.9,53.3,53.3,53.3h256c29.4,0,53.3-23.9,53.3-53.3v-192C437.3,240.9,419,219.4,394.7,214.4z M279.7,378.2l8.2,57.6 c0.4,3.1-0.5,6.2-2.5,8.5c-2,2.3-5,3.7-8.1,3.7h-42.7c-3.1,0-6-1.3-8.1-3.7s-2.9-5.4-2.5-8.5l8.2-57.6 c-17.8-8.9-29.7-27.3-29.7-47.6c0-29.4,23.9-53.3,53.3-53.3s53.3,23.9,53.3,53.3C309.3,350.9,297.5,369.3,279.7,378.2z M330.7,213.3H181.3v-74.7c0-41.2,33.5-74.7,74.7-74.7s74.7,33.5,74.7,74.7V213.3z"></path> </g> </g> </svg> 