<?xml version="1.0" encoding="UTF-8"?> <!-- Generator: Adobe Illustrator 23.0.3, SVG Export Plug-In . SVG Version: 6.00 Build 0) --> <svg xmlns="http://www.w3.org/2000/svg" xmlns:xlink="http://www.w3.org/1999/xlink" version="1.1" id="Layer_1" x="0px" y="0px" viewBox="0 0 480 480" style="enable-background:new 0 0 480 480;" xml:space="preserve"> <style type="text/css"> .st0{fill:#0e497b;} </style> <path class="st0" d="M448,304H32V32h416V304z M48,288h384V48H48V288z"></path> <path class="st0" d="M400,272H64V80h16v176h320V272z"></path> <path class="st0" d="M352,104c-13.3,0-24,10.7-24,24c0,2.3,0.4,4.6,1.1,6.8l-51.5,37.5c-9.7-6.7-22.9-5.3-30.9,3.3l-30.8-13.7 c0-0.6,0.2-1.2,0.2-1.8c0-13.3-10.7-24-24-24s-24,10.7-24,24c0,2.6,0.5,5.1,1.3,7.5l-36.4,28.3c-10.1-6.7-23.6-5.1-31.9,3.8 c-8.3,8.9-8.9,22.4-1.5,32c7.4,9.6,20.7,12.4,31.4,6.7c10.7-5.7,15.6-18.4,11.7-29.9l36.4-28.3c9.7,6.3,22.4,4.7,30.3-3.7l30.8,13.7 c0,0.6-0.2,1.2-0.2,1.8c0,13.3,10.7,24,24,24s24-10.7,24-24c0-2.3-0.4-4.6-1.1-6.8l51.5-37.5c4,2.8,8.7,4.2,13.5,4.2 c13.3,0,24-10.7,24-24S365.3,104,352,104z M120,224c-4.4,0-8-3.6-8-8s3.6-8,8-8s8,3.6,8,8S124.4,224,120,224z M192,168 c-4.4,0-8-3.6-8-8s3.6-8,8-8s8,3.6,8,8S196.4,168,192,168z M264,200c-4.4,0-8-3.6-8-8s3.6-8,8-8s8,3.6,8,8S268.4,200,264,200z M352,136c-4.4,0-8-3.6-8-8s3.6-8,8-8s8,3.6,8,8S356.4,136,352,136z"></path> <path class="st0" d="M440,0H40C17.9,0,0,17.9,0,40v288c0,22.1,17.9,40,40,40h136v32h-24c-22.1,0-40,17.9-40,40v24H72v16h336v-16h-40 v-24c0-22.1-17.9-40-40-40h-24v-32h136c22.1,0,40-17.9,40-40V40C480,17.9,462.1,0,440,0z M328,416c13.3,0,24,10.7,24,24v24H128v-24 c0-13.3,10.7-24,24-24H328z M288,400h-96v-32h96V400z M464,328c0,13.3-10.7,24-24,24H40c-13.3,0-24-10.7-24-24V40 c0-13.3,10.7-24,24-24h400c13.3,0,24,10.7,24,24V328z"></path> <path class="st0" d="M216,320h16v16h-16V320z"></path> <path class="st0" d="M248,320h16v16h-16V320z"></path> </svg> 