<?xml version="1.0" encoding="UTF-8"?> <!-- Generator: Adobe Illustrator 21.0.0, SVG Export Plug-In . SVG Version: 6.00 Build 0) --> <svg xmlns="http://www.w3.org/2000/svg" xmlns:xlink="http://www.w3.org/1999/xlink" version="1.1" id="Capa_1" x="0px" y="0px" viewBox="0 0 363.9 363.9" style="enable-background:new 0 0 363.9 363.9;" xml:space="preserve"> <style type="text/css"> .st0{fill:#0e497b;} </style> <g> <path class="st0" d="M92.7,274.9c-3.2,3.2-5.7,9.4-5.7,13.9v58.4h33.9v-92.4c0-4.5-2.6-5.6-5.7-2.4L92.7,274.9z"></path> <path class="st0" d="M241.8,219.6c-3.2,3.2-5.7,9.4-5.7,13.9v113.8h33.9V199.5c0-4.5-2.6-5.6-5.7-2.4L241.8,219.6z"></path> <path class="st0" d="M291.4,169.8c-3.2,3.2-5.8,9.4-5.8,13.9v163.6h31.5V152.2c0-4.5-2.6-5.6-5.8-2.4L291.4,169.8z"></path> <path class="st0" d="M193.1,268.2c0,0-1.5,1.5-3.4,3.4c-1.9,1.9-3.4,7-3.4,11.5v64.1h33.9v-98c0-4.5-2.6-5.6-5.8-2.4L193.1,268.2z"></path> <path class="st0" d="M142.4,251c-3.2-3.2-5.8-2.1-5.8,2.4v93.9h33.9v-60c0-4.5-2.4-10.6-5.5-13.6l-5.5-5.4L142.4,251z"></path> <path class="st0" d="M50,317.7l-11,11c-3.2,3.2-5.7,8.6-5.7,12.2v6.4h37.9v-42.7c0-4.5-2.6-5.6-5.7-2.4L50,317.7z"></path> <path class="st0" d="M358.1,150.7c3.2,3.2,5.7,2.1,5.7-2.4V32.2c0-8.3-8-15.6-16.2-15.6H232.2c-4.5,0-5.6,2.6-2.4,5.8l41.1,41.1 l-16.8,16.7l-77.7,77.8l-41.1-41.1c-3.2-3.2-8.3-3.2-11.5,0L9.5,231.2c-12.7,12.7-12.7,33.3,0,46l0.8,0.8c12.7,12.7,33.3,12.7,46,0 l73.2-73.3l41.1,41.1c3.2,3.2,8.3,3.2,11.5,0l135.5-135.5L358.1,150.7z"></path> </g> </svg> 