<svg id="inspection_1" data-name="inspection 1" xmlns="http://www.w3.org/2000/svg" width="40" height="40" viewBox="0 0 40 40">
    <defs>
        <clipPath id="clip-path">
            <path id="inspection_1_Background_Mask_" data-name="inspection 1 (Background/Mask)" class="cls-1" d="M0 0h40v40H0z"/>
        </clipPath>
        <style>
            .cls-1{fill:none}.cls-3{fill:#0e497b}
        </style>
    </defs>
    <path id="inspection_1_Background_Mask_2" data-name="inspection 1 (Background/Mask)" class="cls-1" d="M0 0h40v40H0z"/>
    <g id="inspection_1-2" data-name="inspection 1" style="clip-path:url(#clip-path)">
        <path id="Vector" class="cls-3" d="m2.672 8.75 5.735-3.313a1.813 1.813 0 0 1 1.378-.178 1.791 1.791 0 0 1 1.1.851l1.777 3.09a14.107 14.107 0 0 1 4.111 0l1.781-3.091a1.788 1.788 0 0 1 1.1-.847 1.812 1.812 0 0 1 1.374.176l.055.031A10.628 10.628 0 0 0 18.264.438C18.108.282 17.942.144 17.78 0l-4.425 4.486a1.825 1.825 0 0 1-2.569.011L8.249 1.991a14.349 14.349 0 0 1-1.936.69 14.316 14.316 0 0 1-2.022.4l-.9 3.449A1.809 1.809 0 0 1 1.645 7.9a1.836 1.836 0 0 1-.454-.057L.013 7.5A10.669 10.669 0 0 0 3 15.446a13.542 13.542 0 0 1 .8-1.126l-1.78-3.09a1.8 1.8 0 0 1-.185-1.376 1.8 1.8 0 0 1 .837-1.104z" transform="translate(15.766 5.533)"/>
        <path id="Vector-2" data-name="Vector" class="cls-3" d="M11.724 26.987a.707.707 0 0 0-.344-.064c-.009 0-.015.006-.024.007a13.568 13.568 0 1 1 9.41-1.894c-.016.012-.036.018-.05.031a13.176 13.176 0 0 1-8.991 1.921z" transform="translate(12.872 .023)"/>
        <path id="Vector-3" data-name="Vector" class="cls-3" d="M7.676.592A6.056 6.056 0 0 0 0 2.738 10.7 10.7 0 0 0 7.676.592z" transform="translate(25.293 21.439)"/>
        <path id="Vector-4" data-name="Vector" class="cls-3" d="M1.839 8.881 2.861 4.95a.714.714 0 0 1 .627-.532 12.841 12.841 0 0 0 2.273-.413 13.018 13.018 0 0 0 2.159-.811.716.716 0 0 1 .811.135l2.891 2.856a.387.387 0 0 0 .553-.008l4.3-4.362A10.694 10.694 0 0 0 0 8.759l1.4.4a.382.382 0 0 0 .444-.282z" transform="translate(15.937 2.832)"/>
        <path id="Vector-5" data-name="Vector" class="cls-3" d="M8.332.37c0-.124-.018-.247-.032-.37a14.9 14.9 0 0 1-7.11 1.8c-.4 0-.8-.029-1.193-.06a4.253 4.253 0 0 0 4.052 2.913A4.288 4.288 0 0 0 8.332.37z" transform="translate(25.242 26.78)"/>
        <path id="Vector-6" data-name="Vector" class="cls-3" d="M17.12.051a.385.385 0 0 0-.293-.037.371.371 0 0 0-.227.177l-2.03 3.523a.715.715 0 0 1-.746.346 12.781 12.781 0 0 0-4.6 0 .72.72 0 0 1-.746-.346L6.449.195a.377.377 0 0 0-.232-.181.387.387 0 0 0-.3.039L.193 3.362a.386.386 0 0 0-.139.529l2.028 3.522A.712.712 0 0 1 2 8.236 12.045 12.045 0 0 0 .884 9.8a10.615 10.615 0 0 0 3.946 1.943 7.493 7.493 0 0 1 10.323-2.879A10.675 10.675 0 0 0 18.165.651z" transform="translate(18.961 12.156)"/>
        <path id="Vector-7" data-name="Vector" class="cls-3" d="m0 5.755 4.039 4.038L9.591 4.24a.715.715 0 0 0 0-1.01L6.562.2a.731.731 0 0 0-1.009 0z" transform="translate(2.228 27.979)"/>
        <path id="Vector-8" data-name="Vector" class="cls-3" d="m4.245 5.216 1.172-1.177A15.112 15.112 0 0 1 1.386 0L.208 1.178a.711.711 0 0 0 0 1l.55.552 2.48 2.479.006.01a.71.71 0 0 0 1.001-.003z" transform="translate(12.619 21.958)"/>
        <path id="Vector-9" data-name="Vector" class="cls-3" d="M18.782 4.79h2.634V.507h-2.634a.712.712 0 0 1-.67-.468C18.108.027 18.1.013 18.1 0a15.09 15.09 0 0 1-1.816 1.473A5.7 5.7 0 1 1 5.121 3.815 14.884 14.884 0 0 1 .707 2.261L0 2.97v1.82h2.634a.714.714 0 0 1 .674.48 7.673 7.673 0 0 0 1.431 2.483.714.714 0 0 1 .076.821L3.5 10.851 7.21 13l1.309-2.28a.711.711 0 0 1 .748-.346 8.048 8.048 0 0 0 2.883 0 .713.713 0 0 1 .748.346l1.313 2.277 3.708-2.139L16.6 8.573a.713.713 0 0 1 .076-.821 7.678 7.678 0 0 0 1.432-2.482.714.714 0 0 1 .674-.48z" transform="translate(18.583 24.502)"/>
        <path id="Vector-10" data-name="Vector" class="cls-3" d="M2.064.044 2.02 0 0 2.019l1.01 1.01 1.01 1.009 2.016-2.016z" transform="translate(10.304 25.657)"/>
        <path id="Vector-11" data-name="Vector" class="cls-3" d="M4.74 15.45a.713.713 0 0 1 .076.821L3.5 18.549l3.71 2.144 1.309-2.28a.71.71 0 0 1 .747-.346 8.048 8.048 0 0 0 2.883 0 .654.654 0 0 1 .1 0 14.87 14.87 0 0 1-.558-2.1 5.709 5.709 0 1 1-.981-11.333 5.617 5.617 0 0 1 2.905.8 15.087 15.087 0 0 1 3.341-3.853L14.206 0 12.9 2.28a.712.712 0 0 1-.748.345 8.048 8.048 0 0 0-2.883 0 .708.708 0 0 1-.747-.345L7.206 0 3.5 2.141l1.318 2.28a.714.714 0 0 1-.076.821 7.674 7.674 0 0 0-1.433 2.483.714.714 0 0 1-.674.48H0v4.283h2.634a.714.714 0 0 1 .674.48A7.679 7.679 0 0 0 4.74 15.45z" transform="translate(.022 .384)"/>
        <path id="Vector-12" data-name="Vector" class="cls-3" d="m4.248 5.048 1.009-1.01L1.219 0 .209 1.009a.713.713 0 0 0 0 1.009l3.029 3.03a.715.715 0 0 0 1.01 0z" transform="translate(0 34.743)"/>
        <path id="Vector-13" data-name="Vector" class="cls-3" d="M.454 2.363A4.283 4.283 0 0 0 5.1 8.488c-.04-.445-.068-.894-.068-1.35a14.875 14.875 0 0 1 1.5-6.5A4.2 4.2 0 0 0 4.315 0 4.283 4.283 0 0 0 .454 2.363z" transform="translate(6.416 6.448)"/>
    </g>
</svg>
