<svg id="maintenance_1" data-name="maintenance 1" xmlns="http://www.w3.org/2000/svg" width="40" height="40" viewBox="0 0 40 40">
    <defs>
        <clipPath id="clip-path">
            <path id="maintenance_1_Background_Mask_" data-name="maintenance 1 (Background/Mask)" class="cls-1" d="M0 0h40v40H0z"/>
        </clipPath>
        <style>
            .cls-1{fill:none}.cls-3{fill:#0e497b}
        </style>
    </defs>
    <path id="maintenance_1_Background_Mask_2" data-name="maintenance 1 (Background/Mask)" class="cls-1" d="M0 0h40v40H0z"/>
    <g id="maintenance_1-2" data-name="maintenance 1" style="clip-path:url(#clip-path)">
        <path id="Vector" class="cls-3" d="M14.063 1.173v5.191L10.547 9 7.031 6.364V1.173A1.173 1.173 0 0 0 5.273.159a10.549 10.549 0 0 0-.585 17.9v5.449A1.172 1.172 0 0 0 5.86 24.68h9.375a1.172 1.172 0 0 0 1.172-1.172v-5.444a10.549 10.549 0 0 0-.585-17.9 1.173 1.173 0 0 0-1.759 1.009z" transform="translate(9.453 15.316)"/>
        <path id="Vector-2" data-name="Vector" class="cls-3" d="M0 9.375v-5.86A3.519 3.519 0 0 1 3.515 0h32.969A3.519 3.519 0 0 1 40 3.515v5.86z"/>
        <path id="Vector-3" data-name="Vector" class="cls-3" d="M3.516 25.781H11.8v-2.947a12.892 12.892 0 0 1 1.752-21.107 3.516 3.516 0 0 1 5.276 3.043v4.019L20 9.668l1.172-.879V4.77a3.516 3.516 0 0 1 5.276-3.043A12.892 12.892 0 0 1 28.2 22.834v2.947h8.281A3.52 3.52 0 0 0 40 22.266V0H0v22.266a3.52 3.52 0 0 0 3.516 3.515z" transform="translate(0 11.719)"/>
    </g>
</svg>
