<svg xmlns="http://www.w3.org/2000/svg" width="40" height="40" viewBox="0 0 40 40">
    <defs>
        <clipPath id="clip-path">
            <path id="pen_1_Background_Mask_" data-name="pen 1 (Background/Mask)" style="fill:none" d="M0 0h40v40H0z"/>
        </clipPath>
        <style>
            .cls-3{fill:#0e497b}
        </style>
    </defs>
    <g id="pen_1" data-name="pen 1" style="clip-path:url(#clip-path)">
        <g id="Group" transform="translate(20.626 2.579)">
            <g id="Group-2" data-name="Group">
                <path id="Vector" class="cls-3" d="m0 3.335 16.024 16.024 3.351-3.335L3.351 0z"/>
            </g>
        </g>
        <g id="Group-3" data-name="Group" transform="translate(0 9.083)">
            <g id="Group-4" data-name="Group">
                <path id="Vector-2" data-name="Vector" class="cls-3" d="M4.82 28.337a4.82 4.82 0 0 1-3.408-8.229l1.8-1.8a2.479 2.479 0 0 0 0-3.5 9.426 9.426 0 0 1 0-13.316l1.653 1.659a7.08 7.08 0 0 0 0 10 4.826 4.826 0 0 1 0 6.817l-1.8 1.8a2.475 2.475 0 0 0 1.755 4.224 2.5 2.5 0 0 0 .751-.115L9.67 7.72 20.479 0 33.5 13.017l-7.725 10.809-18.194 4.108a4.682 4.682 0 0 1-2.311.4z"/>
            </g>
        </g>
    </g>
</svg>
