<svg xmlns="http://www.w3.org/2000/svg" width="40" height="40" viewBox="0 0 40 40">
    <defs>
        <clipPath id="clip-path">
            <path id="shopping-cart_1_1_Background_Mask_" data-name="shopping-cart (1) 1 (Background/Mask)" style="fill:none" d="M0 0h40v40H0z"/>
        </clipPath>
        <style>
            .cls-3{fill:#0e497b}
        </style>
    </defs>
    <g id="shopping-cart_1_1" data-name="shopping-cart (1) 1" style="clip-path:url(#clip-path)">
        <g id="Group" transform="translate(10.913 30.769)">
            <g id="Group-2" data-name="Group">
                <path id="Vector" class="cls-3" d="M0 4.615A4.533 4.533 0 0 1 4.615 0 4.533 4.533 0 0 1 9.23 4.615 4.533 4.533 0 0 1 4.615 9.23 4.533 4.533 0 0 1 0 4.615z"/>
            </g>
        </g>
        <g id="Group-3" data-name="Group" transform="translate(26.298 30.769)">
            <g id="Group-4" data-name="Group">
                <path id="Vector-2" data-name="Vector" class="cls-3" d="M0 4.615A4.533 4.533 0 0 1 4.615 0 4.533 4.533 0 0 1 9.23 4.615 4.533 4.533 0 0 1 4.615 9.23 4.533 4.533 0 0 1 0 4.615z"/>
            </g>
        </g>
        <g id="Group-5" data-name="Group" transform="translate(1.682)">
            <g id="Group-6" data-name="Group">
                <path id="Vector-3" data-name="Vector" class="cls-3" d="M8.769 6.154 6.154 0H0v3.077h4.154l6.462 15.692a4.749 4.749 0 0 0-2.923 4.769 4.8 4.8 0 0 0 4.769 4.154h21.384v-3.077H12.308a1.538 1.538 0 0 1 0-3.077h20.307a1.5 1.5 0 0 0 1.538-1.231L36.615 8a1.623 1.623 0 0 0-1.538-1.846z"/>
            </g>
        </g>
    </g>
</svg>
