<svg id="smartphone_1_1" data-name="smartphone (1) 1" xmlns="http://www.w3.org/2000/svg" width="40" height="40" viewBox="0 0 40 40">
    <defs>
        <clipPath id="clip-path">
            <path id="smartphone_1_1_Background_Mask_" data-name="smartphone (1) 1 (Background/Mask)" class="cls-1" d="M0 0h40v40H0z"/>
        </clipPath>
        <style>
            .cls-1{fill:none}.cls-3{fill:#0e497b}
        </style>
    </defs>
    <path id="smartphone_1_1_Background_Mask_2" data-name="smartphone (1) 1 (Background/Mask)" class="cls-1" d="M0 0h40v40H0z"/>
    <g id="smartphone_1_1-2" data-name="smartphone (1) 1" style="clip-path:url(#clip-path)">
        <path id="Vector" class="cls-3" d="M8.466 13.246a3.434 3.434 0 0 1-1.11-2.864.654.654 0 0 0-.613-.693H1.224A1.224 1.224 0 0 1 0 8.456V1.223a1.2 1.2 0 0 1 .093-.47A1.218 1.218 0 0 1 1.226 0h11.538a1.218 1.218 0 0 1 .866.356 1.2 1.2 0 0 1 .264.4 1.211 1.211 0 0 1 .091.468v7.231a1.225 1.225 0 0 1-.751 1.139 1.223 1.223 0 0 1-.47.094h-1.4a2.146 2.146 0 0 0-1.789.8 4.493 4.493 0 0 0-.536 3.169 3.511 3.511 0 0 1-.573-.411z" transform="translate(2.5 9.922)"/>
        <path id="Vector-2" data-name="Vector" class="cls-3" d="M8.984 11.736a2 2 0 0 1-2 2.014h-1.4a1.386 1.386 0 0 0-1.173.5c-.662.846-.412 2.631-.26 3.248a.39.39 0 0 1-.481.471 4.125 4.125 0 0 1-1.5-.854A4.215 4.215 0 0 1 .791 13.75H0v10.781h14.291L11.376 22.7a.38.38 0 0 1-.131-.514 3.044 3.044 0 0 1 3.62-1.376L11.1 8.511a2.1 2.1 0 1 1 4.013-1.229l2.058 6.711a2.1 2.1 0 0 1 1.813-.922V0H0v2.5h6.983a2 2 0 0 1 2 2z" transform="translate(8.281 6.641)"/>
        <path id="Vector-3" data-name="Vector" class="cls-3" d="m0 .835 3.967 2.509q-.093-.234-.167-.479L3.041.393 2.875.3A2.247 2.247 0 0 0 1.157.082 2.244 2.244 0 0 0 0 .835z" transform="translate(20.416 28.067)"/>
        <path id="Vector-4" data-name="Vector" class="cls-3" d="M0 4.218V2.905A2.886 2.886 0 0 1 2.88 0h13.184a2.922 2.922 0 0 1 2.92 2.905v1.313z" transform="translate(8.281 1.641)"/>
        <path id="Vector-5" data-name="Vector" class="cls-3" d="M2.88 6.406A2.888 2.888 0 0 1 0 3.5V0h15.527l1.409.9a6.232 6.232 0 0 0 2.049 1.7v.9a2.922 2.922 0 0 1-2.92 2.905z" transform="translate(8.281 31.953)"/>
        <path id="Vector-6" data-name="Vector" class="cls-3" d="M14.6 6.519a1.317 1.317 0 0 0-1.876 1.542l.834 2.721a.391.391 0 1 1-.747.229L11.639 7.2a1.317 1.317 0 0 0-2.518.771l1.167 3.809a.391.391 0 1 1-.747.229L8.374 8.2a1.317 1.317 0 1 0-2.518.771l1.167 3.809a.391.391 0 1 1-.747.229L2.576.931A1.317 1.317 0 0 0 .058 1.7l4.834 15.783A5.307 5.307 0 0 0 11.512 21l2.177-.667a5.307 5.307 0 0 0 3.511-6.622L15.237 7.29a1.317 1.317 0 0 0-.637-.771z" transform="translate(20.07 13.221)"/>
        <path id="Vector-7" data-name="Vector" class="cls-3" d="M.193.073A.433.433 0 1 0 .433 0a.433.433 0 0 0-.24.073z" transform="translate(17.32 34.563)"/>
    </g>
</svg>
