<svg xmlns="http://www.w3.org/2000/svg" width="40" height="40" viewBox="0 0 40 40">
    <defs>
        <clipPath id="clip-path">
            <path id="user-interface_1_Background_Mask_" data-name="user-interface 1 (Background/Mask)" style="fill:none" d="M0 0h40v40H0z"/>
        </clipPath>
        <style>
            .cls-3{fill:#0e497b}
        </style>
    </defs>
    <g id="user-interface_1" data-name="user-interface 1" style="clip-path:url(#clip-path)">
        <g id="Group" transform="translate(0 1.068)">
            <path id="Vector" class="cls-3" d="M0 23.417V1.172A1.172 1.172 0 0 1 1.172 0h37.656A1.172 1.172 0 0 1 40 1.172v22.245z"/>
            <path id="Vector-2" data-name="Vector" class="cls-3" d="M1.509 2.056h-.337a1.172 1.172 0 0 0 0 2.344h9.8a1.172 1.172 0 0 0 0-2.344h-.338V0H1.509z" transform="translate(13.929 33.465)"/>
            <path id="Vector-3" data-name="Vector" class="cls-3" d="M40 4.145V0H0v4.145a1.172 1.172 0 0 0 1.172 1.172h37.656A1.172 1.172 0 0 0 40 4.145z" transform="translate(0 25.76)"/>
            <path id="Vector-4" data-name="Vector" class="cls-3" d="M5.7 0v3.31H0V0z" transform="translate(11.563 14.412)"/>
        </g>
    </g>
</svg>
