<svg id="Component_97_14" data-name="Component 97 – 14" xmlns="http://www.w3.org/2000/svg" width="29.25" height="29.25" viewBox="0 0 29.25 29.25">
    <defs>
        <style>
            .cls-1{fill:#0e497b}
        </style>
    </defs>
    <g id="Icon_ionic-ios-checkmark-circle-outline" data-name="Icon ionic-ios-checkmark-circle-outline">
        <path id="Path_474" data-name="Path 474" class="cls-1" d="m25.5 13.563-1.237-1.273a.266.266 0 0 0-.2-.084.255.255 0 0 0-.2.084l-8.578 8.641-3.121-3.121a.272.272 0 0 0-.394 0l-1.252 1.252a.28.28 0 0 0 0 .4l3.938 3.938a1.245 1.245 0 0 0 .823.4 1.3 1.3 0 0 0 .816-.387h.005l9.4-9.45a.3.3 0 0 0 0-.4z" transform="translate(-3.375 -3.375)"/>
        <path id="Path_475" data-name="Path 475" class="cls-1" d="M18 5.344a12.651 12.651 0 1 1-8.951 3.705A12.573 12.573 0 0 1 18 5.344m0-1.969A14.625 14.625 0 1 0 32.625 18 14.623 14.623 0 0 0 18 3.375z" transform="translate(-3.375 -3.375)"/>
    </g>
</svg>
