<svg id="Outline" xmlns="http://www.w3.org/2000/svg" width="75.903" height="75.903" viewBox="0 0 75.903 75.903">
    <defs>
        <style>
            .cls-1{fill:#0e497b}
        </style>
    </defs>
    <path id="Path_512" data-name="Path 512" class="cls-1" d="M85.578 16H40.036a6.332 6.332 0 0 0-6.325 6.325v26.566a1.265 1.265 0 0 0-1.265 1.265v3.282a17.574 17.574 0 0 0-3.352 1.391l-2.322-2.322a1.265 1.265 0 0 0-1.789 0l-5.367 5.366a1.265 1.265 0 0 0 0 1.789l2.322 2.322a17.574 17.574 0 0 0-1.392 3.352h-3.281A1.265 1.265 0 0 0 16 66.6v7.59a1.265 1.265 0 0 0 1.265 1.265h3.282a17.574 17.574 0 0 0 1.392 3.352l-2.323 2.322a1.183 1.183 0 0 0 0 1.789l5.367 5.367a1.265 1.265 0 0 0 1.789 0l2.322-2.322a17.573 17.573 0 0 0 3.352 1.391v3.282a1.265 1.265 0 0 0 1.265 1.264H41.3a1.265 1.265 0 0 0 1.265-1.265v-3.279a17.574 17.574 0 0 0 3.352-1.391l2.322 2.322a1.265 1.265 0 0 0 1.789 0l5.372-5.366a1.175 1.175 0 0 0 .123-1.665l-2.449-2.446a17.573 17.573 0 0 0 1.391-3.352h3.282a1.265 1.265 0 0 0 1.265-1.265v-2.53h7.714v-2.53h-2.654v-5.765a3.1 3.1 0 0 0-3.092-3.092 2.986 2.986 0 0 0-2 .736 1.855 1.855 0 0 1-1.238.529 2.674 2.674 0 0 1-2.228-2.024 1.511 1.511 0 0 0-.3-1.824c.019-2.034 1.169-3.743 2.529-3.743a1.854 1.854 0 0 1 1.238.528 2.986 2.986 0 0 0 2 .737 3.1 3.1 0 0 0 3.092-3.092V45.1H71.1a.562.562 0 0 1 .562.562.484.484 0 0 1-.095.312 4.362 4.362 0 0 0-1.17 2.921c0 2.79 2.838 5.06 6.325 5.06s6.325-2.27 6.325-5.06a4.363 4.363 0 0 0-1.17-2.921.485.485 0 0 1-.095-.312.562.562 0 0 1 .562-.562h7.029v20.237a3.8 3.8 0 0 1-3.8 3.8h-6.65v2.53h6.655a6.332 6.332 0 0 0 6.322-6.33V22.325A6.332 6.332 0 0 0 85.578 16zm-45.542 2.53h21.506v5.764a3.1 3.1 0 0 0 3.092 3.092 2.986 2.986 0 0 0 2-.737 1.855 1.855 0 0 1 1.238-.528c1.371 0 2.53 1.738 2.53 3.8s-1.159 3.8-2.53 3.8a1.855 1.855 0 0 1-1.238-.528 2.986 2.986 0 0 0-2-.737 3.1 3.1 0 0 0-3.092 3.092v7.029h-7.029a.535.535 0 0 1-.552-.316.5.5 0 0 1 .085-.558 4.034 4.034 0 0 0 1.17-2.921c0-2.79-2.838-5.06-6.325-5.06s-6.325 2.27-6.325 5.06a4.524 4.524 0 0 0 1.17 2.921.567.567 0 0 1 .125.518c-.089.267-.282.356-.591.356h-7.029V22.325a3.8 3.8 0 0 1 3.795-3.795zm16.446 54.4h-2.989a1.265 1.265 0 0 0-1.231.974 15.05 15.05 0 0 1-1.846 4.45 1.265 1.265 0 0 0 .184 1.556l2.115 2.115-3.58 3.575-2.115-2.112a1.265 1.265 0 0 0-1.559-.182 15.048 15.048 0 0 1-4.451 1.846 1.265 1.265 0 0 0-.974 1.232v2.988h-5.06v-2.987A1.265 1.265 0 0 0 34 85.154a15.048 15.048 0 0 1-4.45-1.846 1.265 1.265 0 0 0-1.559.182l-2.114 2.11-3.577-3.574 2.115-2.115a1.265 1.265 0 0 0 .182-1.559 15.05 15.05 0 0 1-1.848-4.452 1.265 1.265 0 0 0-1.23-.974H18.53v-5.06h2.989a1.265 1.265 0 0 0 1.231-.974 15.05 15.05 0 0 1 1.846-4.45 1.265 1.265 0 0 0-.182-1.559L22.3 58.768l3.578-3.578 2.115 2.115a1.265 1.265 0 0 0 1.559.182A15.05 15.05 0 0 1 34 55.64a1.265 1.265 0 0 0 .974-1.23v-2.989h5.06v2.989a1.265 1.265 0 0 0 .974 1.231 15.05 15.05 0 0 1 4.45 1.846 1.265 1.265 0 0 0 1.559-.182l2.115-2.115 3.578 3.578-2.11 2.115a1.265 1.265 0 0 0-.182 1.559 15.05 15.05 0 0 1 1.846 4.451 1.265 1.265 0 0 0 1.232.974h2.988zm1.265-8.855a4.6 4.6 0 0 0 2.921-1.17.534.534 0 0 1 .874.466v5.764h-2.53V66.6a1.265 1.265 0 0 0-1.265-1.265h-3.282a17.573 17.573 0 0 0-1.391-3.352l.553-.553a4.852 4.852 0 0 0 4.12 2.642zm3.8-11.947c0 .535-.488.8-.874.466a4.464 4.464 0 0 0-2.921-1.17c-2.156 0-4 1.7-4.728 4.075l-2.994-2.992a1.265 1.265 0 0 0-1.789 0l-2.322 2.322a17.573 17.573 0 0 0-3.352-1.391v-3.282a1.265 1.265 0 0 0-1.267-1.265h-5.06V45.1h7.029a3.1 3.1 0 0 0 3.092-3.1 2.986 2.986 0 0 0-.736-2 1.855 1.855 0 0 1-.529-1.238c0-1.371 1.738-2.53 3.8-2.53s3.8 1.159 3.8 2.53A1.855 1.855 0 0 1 52.168 40a2.986 2.986 0 0 0-.737 2 3.1 3.1 0 0 0 3.082 3.1h7.029zm17.711-6.468a2.987 2.987 0 0 0 .736 2 1.854 1.854 0 0 1 .529 1.238c0 1.371-1.738 2.53-3.8 2.53s-3.8-1.159-3.8-2.53a1.854 1.854 0 0 1 .529-1.238 2.987 2.987 0 0 0 .736-2 3.1 3.1 0 0 0-3.088-3.094h-7.028v-7.029a.556.556 0 0 1 .248-.466c.514-.338 1.179.459 1.608.684a4.193 4.193 0 0 0 1.939.485c2.79 0 5.06-2.837 5.06-6.325s-2.27-6.325-5.06-6.325a4.362 4.362 0 0 0-2.921 1.17.607.607 0 0 1-.449.105.512.512 0 0 1-.425-.571V18.53h21.506a3.8 3.8 0 0 1 3.8 3.8v20.236h-7.034a3.1 3.1 0 0 0-3.092 3.092z" transform="translate(-16 -16)"/>
    <path id="Path_513" data-name="Path 513" class="cls-1" d="M324.9 330.171a3.807 3.807 0 0 0-3.086.852l-.074.064a3.788 3.788 0 0 0-5.059 0 3.792 3.792 0 0 0-3.8-.752v-6.456a3.867 3.867 0 0 0-3.86-3.881 3.8 3.8 0 0 0-3.73 3.795v14.211l-3.569-2.051a3.472 3.472 0 0 0-4.577 1.022 3.472 3.472 0 0 0 .781 4.78l7.894 5.839a1.265 1.265 0 0 0 .735.236h20.241a1.265 1.265 0 0 0 1.265-1.265v-12.514a3.9 3.9 0 0 0-3.161-3.88zm.637 15.129h-18.57l-7.7-5.436a1.1 1.1 0 0 1-.253-1.551 1.1 1.1 0 0 1 1.46-.29l5.431 3.3a1.265 1.265 0 0 0 1.512-.158 1.31 1.31 0 0 0 .4-.966V323.84a1.3 1.3 0 0 1 1.178-1.307 1.266 1.266 0 0 1 1.352 1.262v10.075a1.3 1.3 0 0 0 1.2 1.309 1.265 1.265 0 0 0 1.33-1.219 1.315 1.315 0 0 1 1.133-1.3 1.267 1.267 0 0 1 1.4 1.222 1.307 1.307 0 0 0 1.131 1.295 1.265 1.265 0 0 0 1.4-1.225 1.3 1.3 0 0 1 1.132-1.292 1.267 1.267 0 0 1 1.4 1.214 1.314 1.314 0 0 0 1.2 1.308 1.263 1.263 0 0 0 1.334-1.258 1.231 1.231 0 0 1 1.226-1.231 1.26 1.26 0 0 1 1.3 1.361z" transform="translate(-252.169 -271.928)"/>
    <path id="Path_514" data-name="Path 514" class="cls-1" d="M91.385 288a11.385 11.385 0 1 0 11.385 11.385A11.385 11.385 0 0 0 91.385 288zm0 20.241a8.855 8.855 0 1 1 8.855-8.855 8.855 8.855 0 0 1-8.855 8.855z" transform="translate(-69.88 -244.988)"/>
    <path id="Path_515" data-name="Path 515" class="cls-1" d="M125.06 328a5.06 5.06 0 1 0 5.06 5.06 5.06 5.06 0 0 0-5.06-5.06zm0 7.59a2.53 2.53 0 1 1 2.53-2.53 2.53 2.53 0 0 1-2.53 2.53z" transform="translate(-103.554 -278.663)"/>
</svg>
