<svg id="product-durability" xmlns="http://www.w3.org/2000/svg" width="77.412" height="79.36" viewBox="0 0 77.412 79.36">
    <defs>
        <style>
            .cls-1{fill:#0e497b}
        </style>
    </defs>
    <path id="Path_516" data-name="Path 516" class="cls-1" d="m70.787 278.218-12.2 6.434v-2.372a7.124 7.124 0 0 0-7.116-7.116h-13.51l-1.34-.893c-5.313-3.542-11.239-2.061-15.754 2.454L2.178 295.733c-1.113 1.113-1.04 1.808.335 2.575l17.822 9.877c1 .556 1.951-.294 2.682-1.171l6.857-8.2h25.3a11.42 11.42 0 0 0 6.578-2.528l15.814-11.634c1.8-1.269 1.132-2.621 1.132-4.823-2.576-2.895-3.398-4.203-7.911-1.611zm5.2 3.373a2.031 2.031 0 0 1-.86 1.659l-15.853 11.181a7.08 7.08 0 0 1-4.1 1.3l-25.3.553a3.051 3.051 0 0 0-2.008 1.106l-7 7.948-16.513-9.052 18.324-18.068c2.922-2.921 7.691-3.785 11.128-1.493l1.673 1.089h.436a5.987 5.987 0 0 0 2.047.836h13.514c1.308 0 3.7 2.322 3.7 3.63s.44 3.985-.868 3.985H37.243c-1.31 0-1.329.2-1.329 1.506s.019 1.255 1.329 1.255l16.711.371a8.711 8.711 0 0 0 4.329-1.154l14.661-8.413a2.031 2.031 0 0 1 3.041 1.761z" transform="translate(-1.406 -229.001)"/>
    <path id="Path_517" data-name="Path 517" class="cls-1" d="M257.09 39.47a2.374 2.374 0 0 0 1.029 0 20.546 20.546 0 0 0 16.089-20.057V5.529a2.372 2.372 0 0 0-1.408-2.168 36.029 36.029 0 0 0-30.39 0A2.372 2.372 0 0 0 241 5.529v13.884a20.546 20.546 0 0 0 16.09 20.057zM243.849 5.84c7.966-3.176 19.452-3.488 27.418-.312l.258 13.885c0 7.287-6.91 15.974-13.92 17.771-7.01-1.8-13.756-10.484-13.756-17.771z" transform="translate(-204.531)"/>
    <path id="Path_518" data-name="Path 518" class="cls-1" d="M303.043 90.019a2.526 2.526 0 0 0 1.677.836c.629 0 1.232.119 1.677-.326l5.939-6.175c.926-.926 1.7-1.648.77-2.574s-1.775-.088-2.7.838l-5.685 5.405-1.677-2.638c-.926-.926-1.108-1.25-2.035-.323s-.926 1.005 0 1.932z" transform="translate(-253.324 -67.121)"/>
    <path id="Path_519" data-name="Path 519" class="cls-1" d="M103.275 57.153c-.926.926-1.312 1.39-.386 2.317s1.049.668 1.976-.258l12.651-12.65a2.372 2.372 0 0 0 0-3.354l-8.6-8.6 3.372-1.4c1.31 0 2.253-.1 2.253-1.415s-.492-.9-1.8-.9l-9.075.321c-1.31 0-1.544.685-1.544 2l.45 3.412c0 1.31-.965 2.7.708 3.346s2.382.665 2.382-.645l1.158-3.153 8.689 8.881z" transform="translate(-86.484 -25.118)"/>
</svg>
