<svg xmlns="http://www.w3.org/2000/svg" width="39.811" height="39.882" viewBox="0 0 39.811 39.882">
    <path d="M764.63 3943.921a1 1 0 0 1-.6-1.28l13.98-37.886a1.008 1.008 0 0 1 1.291-.594 1 1 0 0 1 .6 1.28l-13.98 37.886a1.008 1.008 0 0 1-.945.654 1.03 1.03 0 0 1-.346-.06zm16.436-8.834a.989.989 0 0 1-.1-1.406l8.578-9.775-8.578-9.773a.99.99 0 0 1 .1-1.406 1.012 1.012 0 0 1 1.419.1l9.153 10.43a.991.991 0 0 1 0 1.308l-9.153 10.429a1.01 1.01 0 0 1-.759.343 1 1 0 0 1-.66-.25zm-19.594-.1-9.151-10.429a.989.989 0 0 1 0-1.308l9.151-10.43a1.013 1.013 0 0 1 1.42-.1.991.991 0 0 1 .1 1.406l-8.578 9.773 8.578 9.775a1 1 0 0 1-.759 1.651 1.014 1.014 0 0 1-.761-.335z" transform="translate(-752.074 -3904.1)" style="fill:#0e497b"/>
</svg>
