<svg xmlns="http://www.w3.org/2000/svg" width="47.734" height="45.971" viewBox="0 0 47.734 45.971">
    <path d="m1401.568 5674.145-4.2-4.062a.96.96 0 0 1 0-1.39l4.2-4.063a1.074 1.074 0 0 1 1.438 0l1.171 1.132a15.879 15.879 0 0 0 .574-17.977l-.571.554a1.043 1.043 0 0 1-1.438 0l-4.2-4.064a.959.959 0 0 1 0-1.39l.5-.487a17.74 17.74 0 0 0-18.5.516l1.208 1.168a.959.959 0 0 1 0 1.39l-4.2 4.062a1.043 1.043 0 0 1-1.438 0l-4.2-4.062a.959.959 0 0 1 0-1.39l4.2-4.062a1.04 1.04 0 0 1 1.438 0l1.505 1.454a19.885 19.885 0 0 1 20.074-1.326.945.945 0 0 1 .265-.87 1.042 1.042 0 0 1 1.438 0l.715.695 1.195-1.155a1.043 1.043 0 0 1 1.438 0l4.2 4.063a.959.959 0 0 1 0 1.39l-1.131 1.094.719.688a.96.96 0 0 1 .009 1.391 1.036 1.036 0 0 1-.723.292.989.989 0 0 1-.152-.03 17.852 17.852 0 0 1-1.437 19.49l1.544 1.492a.96.96 0 0 1 0 1.39l-4.2 4.062a1.039 1.039 0 0 1-1.438 0zm-2.045-4.756 2.764 2.671 2.763-2.671-2.763-2.673zm-25.459-24.611 2.764 2.671 2.763-2.671-2.763-2.672zm26.631-1.2 2.766 2.673 2.761-2.673-2.763-2.672zm15.585 14.675-1.327-1.28a.96.96 0 0 1 0-1.39l.046-.044-.719-.687a.961.961 0 0 1-.007-1.391 1.044 1.044 0 0 1 1.438-.007l.759.727a1.027 1.027 0 0 1 1.249.121l1.326 1.281a.96.96 0 0 1 0 1.39l-1.326 1.28a1.043 1.043 0 0 1-1.438 0zm-5.1-6.36-1.547-1.481a.959.959 0 0 1-.009-1.39 1.042 1.042 0 0 1 1.438-.009l1.548 1.481a.961.961 0 0 1 .007 1.391 1.045 1.045 0 0 1-1.438.007zm-14.766-14.117-1.485-1.447a.96.96 0 0 1 0-1.39 1.041 1.041 0 0 1 1.438 0l1.485 1.445a.958.958 0 0 1 0 1.39 1.039 1.039 0 0 1-1.438 0zm-4.459-4.336-.725-.7a1.024 1.024 0 0 1-1.386-.034l-1.327-1.282a.962.962 0 0 1 0-1.391l1.327-1.282a1.043 1.043 0 0 1 1.438 0l1.327 1.282a.964.964 0 0 1 .3.695.951.951 0 0 1-.244.617l.732.712a.961.961 0 0 1 0 1.392 1.039 1.039 0 0 1-.718.286 1.026 1.026 0 0 1-.722-.292z" transform="translate(-1371.609 -5628.463)" style="fill:#0e497b"/>
</svg>
