<svg id="Group_788" data-name="Group 788" xmlns="http://www.w3.org/2000/svg" width="43.963" height="34.733" viewBox="0 0 43.963 34.733">
    <defs>
        <style>
            .cls-1{fill:#fcfcfc}
        </style>
    </defs>
    <path id="Path_530" data-name="Path 530" class="cls-1" d="M466.45 862.046c.067-.26.128-.522.206-.781a4.769 4.769 0 0 1 7.134-2.6 1.058 1.058 0 0 1 .533.991c-.015 1.951 0 3.921 0 5.883v.531h25.867v-5.708a2.306 2.306 0 0 1 2.437-2.454h1.931a2.312 2.312 0 0 1 2.419 2.439v5.753h2.512c.724 0 .923.2.923.91v24.736c0 .7-.189.893-.885.893h-17.34a2.844 2.844 0 0 1-.3 0 .583.583 0 0 1-.574-.583.576.576 0 0 1 .449-.65 2.136 2.136 0 0 1 .553-.05h16.793v-23.945h-2.128v4.389c0 .576-.217.884-.635.891s-.65-.3-.65-.867v-7.886h-4.188V883.1h4.186v-7.782a3.243 3.243 0 0 1 0-.386.615.615 0 0 1 .616-.6.635.635 0 0 1 .65.6 3.062 3.062 0 0 1 0 .345v8.2a1.924 1.924 0 0 1-.191.815c-.828 1.665-1.68 3.317-2.517 4.975-.15.295-.312.555-.687.553s-.535-.269-.683-.562c-.832-1.645-1.678-3.284-2.5-4.936a1.975 1.975 0 0 1-.2-.867q-.015-7.747 0-15.5v-.544h-25.838c0 .15-.024.3-.026.451v4.038a2.426 2.426 0 0 1-.026.47.629.629 0 0 1-1.242-.028 3.451 3.451 0 0 1-.017-.473c0-3.9 0-7.786.011-11.679a.694.694 0 0 0-.514-.752 3.468 3.468 0 0 0-4.784 3.228c-.013 5.354 0 10.706 0 16.06v5.879a4.911 4.911 0 0 1 5.291-1.116v-7.96a2.632 2.632 0 0 1 .024-.473.629.629 0 0 1 1.225-.032 1.736 1.736 0 0 1 .037.434v8.887c0 .321 0 .65-.327.828s-.618.02-.906-.167a3.455 3.455 0 0 0-5.179 3.945 3.371 3.371 0 0 0 3.178 2.384c2.532.032 5.066.015 7.6.017h10a2.1 2.1 0 0 1 .509.041.629.629 0 0 1-.1 1.231 3.229 3.229 0 0 1-.386 0h-17.262a4.7 4.7 0 0 1-4.938-4.027.438.438 0 0 0-.061-.111zm35.032.535h4.205c0-.826.02-1.626 0-2.423a.975.975 0 0 0-.973-.952q-1.114-.03-2.228 0a.978.978 0 0 0-.988.978c-.028.778-.015 1.561-.015 2.391zm.4 21.846c.581 1.138 1.127 2.211 1.7 3.34.579-1.145 1.125-2.22 1.693-3.34z" transform="translate(-466.45 -857.907)"/>
    <path id="Path_531" data-name="Path 531" class="cls-1" d="M514.527 964.909v-3.362c0-.75.2-.945.934-.947h4.719c.685 0 .884.2.891.9v.893h4.37c.685 0 .886.217.888.9v1.591c.174 0 .325.022.475.022h3.861c.711 0 .913.217.915.928v3.566c0 .631-.217.856-.85.856h-20.593c-.637 0-.856-.217-.867-.85v-3.648c0-.622.217-.848.867-.85H514zm5.229-2.987h-3.9v7.015h3.9zm5.265 1.8H521.1v5.22h3.922zm-14.439 5.224h3.9v-2.712h-3.9zm15.768-2.725v2.725h3.915v-2.725z" transform="translate(-499.988 -938.339)"/>
    <path id="Path_532" data-name="Path 532" class="cls-1" d="M521.278 915.178v3.468c0 .65-.193.854-.839.854h-7c-.62 0-.821-.217-.824-.83v-7c0-.626.2-.83.821-.832h7.039c.592 0 .793.217.8.811.005 1.176.003 2.351.003 3.529zm-1.316-3h-6.03v6.02h6.03z" transform="translate(-502.612 -899.366)"/>
    <path id="Path_533" data-name="Path 533" class="cls-1" d="M636.081 903.143v6.392a1.98 1.98 0 0 1-.017.433.637.637 0 0 1-1.264-.048 3.228 3.228 0 0 1 0-.386v-13.005c0-.535.238-.841.65-.839s.65.312.65.845q-.015 3.304-.019 6.608z" transform="translate(-598.302 -887.5)"/>
    <path id="Path_534" data-name="Path 534" class="cls-1" d="M567.529 913.671h4.032c.156 0 .353-.045.462.03a1.262 1.262 0 0 1 .475.529.527.527 0 0 1-.347.65.837.837 0 0 1-.334.07h-8.573a.65.65 0 1 1 0-1.279h4.288z" transform="translate(-541.659 -901.573)"/>
    <path id="Path_535" data-name="Path 535" class="cls-1" d="M567.794 927.9h3.986a2.112 2.112 0 0 1 .468.028.574.574 0 0 1 .468.629.566.566 0 0 1-.466.588 2.273 2.273 0 0 1-.47.03h-8.4a.65.65 0 0 1-.65-.65.626.626 0 0 1 .65-.609c.542-.017 1.084 0 1.628 0z" transform="translate(-541.859 -912.726)"/>
    <path id="Path_536" data-name="Path 536" class="cls-1" d="M565.919 943.379h-2.4c-.492 0-.789-.262-.778-.65s.3-.626.77-.629h4.847c.477 0 .746.247.748.65s-.256.637-.739.65c-.818-.021-1.633-.021-2.448-.021z" transform="translate(-541.866 -923.85)"/>
    <path id="Path_537" data-name="Path 537" class="cls-1" d="M524.043 924.963c.583-.594 1.069-1.1 1.563-1.591.36-.358.728-.386 1.012-.1s.251.65-.115 1.012q-.917.93-1.847 1.849a.685.685 0 0 1-1.138.015q-.412-.4-.817-.817c-.366-.373-.4-.715-.119-1.012s.67-.256 1.043.121a4.763 4.763 0 0 1 .418.523z" transform="translate(-510.267 -908.951)"/>
</svg>
