<svg id="Group_786" data-name="Group 786" xmlns="http://www.w3.org/2000/svg" width="41.01" height="41.01" viewBox="0 0 41.01 41.01">
    <defs>
        <style>
            .cls-1{fill:#fcfcfc}
        </style>
    </defs>
    <path id="Path_538" data-name="Path 538" class="cls-1" d="M625.02 358.372h33.047v-21.123h1.328v21.141h1.81c.626 0 .835.227.835.852v2.234a2 2 0 0 1-2.2 2.207h-36.71a1.992 1.992 0 0 1-2.1-2.1v-2.318c0-.668.209-.875.9-.877h1.747v-22.171c0-.816.175-.99.994-.992h3.639v-1.793c0-.626.223-.852.835-.852h8.892c.626 0 .85.225.852.835s0 1.178 0 1.8h5.926v1.33h-5.909v.653h5.919v1.319h-5.938v3.823c0 .589-.236.821-.835.821h-8.932c-.591 0-.818-.236-.82-.835v-3.775h-1.292v17.814h29.07v-18.453h1.338v18.87c0 .754-.192.946-.956.946H626.6c-.758 0-.948-.192-.948-.954v-18.607c0-.76.19-.948.95-.95h1.67v-.641h-3.252zm35.7 1.37h-38.377v1.591c0 .866.163 1.027 1.044 1.027h36.667a.645.645 0 0 0 .664-.649c.017-.647 0-1.294 0-1.969zm-23.188-17.912v-7.888h-7.89v7.888z" transform="translate(-621.03 -322.673)"/>
    <path id="Path_539" data-name="Path 539" class="cls-1" d="M745 286.732a1.408 1.408 0 0 1 .144.063 1.048 1.048 0 0 0 1.622-.263.586.586 0 0 1 .915-.023q.939.918 1.879 1.879a.6.6 0 0 1-.025.946 1.021 1.021 0 0 0-.255 1.589 1.548 1.548 0 0 1 .075.161h.871a.659.659 0 0 1 .733.708c0 .856.013 1.71 0 2.564a.652.652 0 0 1-.706.7h-.9c-.029.061-.046.1-.065.134a1.058 1.058 0 0 0 .255 1.624.594.594 0 0 1 0 .946q-.908.938-1.844 1.842a.6.6 0 0 1-.946-.015 1 1 0 0 0-1.549-.282 1.523 1.523 0 0 1-.209.1v.9a.651.651 0 0 1-.7.7q-1.284.017-2.566 0a.654.654 0 0 1-.7-.7v-.905c-.069-.031-.119-.048-.165-.075a1.02 1.02 0 0 0-1.587.259.614.614 0 0 1-.977 0q-.9-.881-1.783-1.783a.621.621 0 0 1 0-1.008.984.984 0 0 0 .265-1.516 1.711 1.711 0 0 1-.1-.209h-.856a.667.667 0 0 1-.754-.731q-.017-1.253 0-2.522a.659.659 0 0 1 .729-.714h.04c.917-.021.919-.021 1.219-.917a.543.543 0 0 0-.046-.284c0-.033-.054-.059-.084-.088-.914-.942-.914-.958.029-1.9.428-.428.854-.86 1.288-1.284a.691.691 0 0 1 1.111 0c.677.641.685.647 1.509.188a.418.418 0 0 0 .148-.322c-.079-1.482.37-1.363 1.389-1.349h1.82a.675.675 0 0 1 .768.76c.008.243.008.524.008.827zm3.176 10.458c-.171-.144-.357-.286-.528-.445a.7.7 0 0 1-.146-.9c.24-.524.455-1.056.66-1.6a.718.718 0 0 1 .741-.535h.708v-1.31h-.72a.722.722 0 0 1-.733-.545q-.3-.808-.662-1.593a.685.685 0 0 1 .131-.867c.18-.167.38-.311.566-.459l-1.044-1.031a5.365 5.365 0 0 1-.349.438c-.418.418-.6.418-1.13.155a11.963 11.963 0 0 0-1.37-.56c-.449-.157-.607-.33-.626-.8v-.666h-1.309v.718a.724.724 0 0 1-.545.733q-.808.307-1.6.662a.685.685 0 0 1-.864-.129c-.167-.18-.311-.38-.445-.545l-1.021 1.008c.159.142.332.3.5.455a.708.708 0 0 1 .146.9c-.24.522-.457 1.056-.662 1.593a.719.719 0 0 1-.741.535h-.706v1.324h.712a.722.722 0 0 1 .731.547c.209.537.417 1.069.664 1.593a.685.685 0 0 1-.134.864c-.177.169-.38.311-.562.455l1.027 1.044c.138-.167.257-.338.4-.484a.717.717 0 0 1 1.027-.159 14.7 14.7 0 0 0 1.4.587c.524.184.649.326.653.9v.58h1.324v-.637c0-.507.153-.668.626-.835a13.1 13.1 0 0 0 1.405-.582c.484-.234.679-.232 1.061.159a4.9 4.9 0 0 1 .374.484z" transform="translate(-711.26 -285.131)"/>
    <path id="Path_540" data-name="Path 540" class="cls-1" d="M661.142 400.259h-4.426c-.626 0-.835-.228-.835-.852v-8.892c0-.626.228-.835.852-.835h8.892c.626 0 .835.228.835.852v8.892c0 .616-.228.835-.852.835zm3.967-1.34v-7.89h-7.89v7.89z" transform="translate(-648.604 -367.851)"/>
    <path id="Path_541" data-name="Path 541" class="cls-1" d="m737.254 365.441.357.472L739.8 365l.027-.591h1.307V365l2.178.9.436-.418.891.946-.418.463c.184.349.38.666.522 1.006s.23.7.353 1.094l.647.033v1.292l-.589.027c-.294.716-.58 1.407-.889 2.157l.4.438-.917.923-.432-.418-2.159.9-.027.593h-1.307v-.589l-2.171-.9-.436.418-.891-.948.376-.418-.9-2.14-.582-.031v-1.29l.587-.029c.3-.718.581-1.409.892-2.157l-.395-.438zm-.09 4.222a3.338 3.338 0 1 1 .006 0z" transform="translate(-711.371 -347.858)"/>
    <path id="Path_542" data-name="Path 542" class="cls-1" d="m666 347 1.044-.789 1.416 1.86 1.4-2.247 1.392-2.222 1.115.706-1.253 2.017q-.971 1.558-1.946 3.113c-.388.616-.862.626-1.3.054A733.451 733.451 0 0 0 666 347z" transform="translate(-656.611 -331.392)"/>
    <path id="Path_543" data-name="Path 543" class="cls-1" d="M755.571 300.92a4.631 4.631 0 1 1-4.631 4.629 4.631 4.631 0 0 1 4.631-4.629zm3.315 4.662a3.307 3.307 0 1 0-3.34 3.276 3.307 3.307 0 0 0 3.34-3.276z" transform="translate(-723.816 -297.623)"/>
    <path id="Path_544" data-name="Path 544" class="cls-1" d="m672.339 401.006-2.1 2.088 2.186 2.169-1 .919-2.1-2.113-2.157 2.194-.937-1 2.129-2.113-2.2-2.144 1-.925 2.088 2.1 2.18-2.181z" transform="translate(-656.729 -376.017)"/>
    <path id="Path_545" data-name="Path 545" class="cls-1" d="M750.43 377a2.645 2.645 0 1 1-2.66 2.639 2.645 2.645 0 0 1 2.66-2.639zm-.029 1.324a1.322 1.322 0 1 0 1.336 1.3 1.321 1.321 0 0 0-1.336-1.3z" transform="translate(-721.308 -357.819)"/>
</svg>
