<svg id="Group_784" data-name="Group 784" xmlns="http://www.w3.org/2000/svg" width="40.065" height="40.127" viewBox="0 0 40.065 40.127">
    <defs>
        <style>
            .cls-1{fill:#fcfcfc}
        </style>
    </defs>
    <path id="Path_576" data-name="Path 576" class="cls-1" d="M310.355 477.6a1 1 0 0 1-1.037.593c-1.38-.012-2.763 0-4.148 0-.772 0-1.029-.264-1.037-1.037v-4.147c0-.776.267-1.037 1.037-1.037h1.243a16.151 16.151 0 0 0-12.97-15.047c0 .355.007.7 0 1.052-.015.638-.3.942-.936.947q-2.169.018-4.34 0c-.658 0-.941-.305-.952-.969v-1.015a16.151 16.151 0 0 0-12.985 15.035h1.318c.671 0 .964.28.969.945q.013 2.173 0 4.349c0 .644-.289.932-.936.938q-2.169.015-4.34 0c-.643 0-.932-.307-.933-.944q-.009-2.173 0-4.349c0-.641.3-.932.936-.939h1.4a17.844 17.844 0 0 1 10.281-15.336h-6.408v1.221c0 .816-.258 1.068-1.083 1.07h-4.064c-.809 0-1.065-.267-1.065-1.089 0-1.346.013-2.691-.007-4.036a1.105 1.105 0 0 1 .554-1.109h5.085a.983.983 0 0 1 .585 1.037c-.016.425 0 .85 0 1.265h10.695c0-.435.01-.84 0-1.243a.986.986 0 0 1 .616-1.064h5.007a.985.985 0 0 1 .615 1.064c-.013.412 0 .825 0 1.249h10.695c0-.444.013-.856 0-1.271a.971.971 0 0 1 .585-1.037h5.629v5.644a1.012 1.012 0 0 1-1.075.593c-1.354-.013-2.709 0-4.063 0-.822 0-1.072-.253-1.075-1.075v-1.232h-6.365a18 18 0 0 1 10.267 15.353c.4 0 .8.021 1.2 0a1.067 1.067 0 0 1 1.108.554zM288.8 457.328h3.056v-3.053H288.8zm-16.916 0h3.037v-3.06h-3.037zm33.842 0h3.041v-3.054h-3.038zm-30.8 16.235H271.9v3.05h3.035zm33.848 0h-3.047v3.037h3.05z" transform="translate(-270.297 -452.69)"/>
    <path id="Path_577" data-name="Path 577" class="cls-1" d="M354.462 540.078a1.1 1.1 0 0 1-.554-1.109c.018-1.96 0-3.919.01-5.878a.492.492 0 0 0-.243-.477 2.3 2.3 0 0 1-.975-2.494 2.333 2.333 0 0 1 2.089-1.777c.283-.025.572 0 .9 0a9.967 9.967 0 0 0-.889-2.566 11.025 11.025 0 0 0-2.247-3.083c-.535-.52-.561-.753-.2-1.407.338-.618.672-1.238 1.021-1.849a.686.686 0 0 1 .8-.413 1.079 1.079 0 0 1 .606.518 1.029 1.029 0 0 1-.1.732c-.2.444-.467.844-.677 1.278a.444.444 0 0 0 .031.4 12.888 12.888 0 0 1 3.245 6.279.4.4 0 0 0 .04.083h5.405c.093-.376.176-.754.284-1.126a12.59 12.59 0 0 1 2.928-5.155.359.359 0 0 0 .1-.5q-2.531-4.611-5.064-9.23c-.028-.052-.067-.1-.16-.235v5.381a.414.414 0 0 0 .287.464 2.649 2.649 0 1 1-2.148 0c.173-.077.3-.13.3-.373-.013-1.751-.007-3.5-.009-5.251a1.226 1.226 0 0 0-.033-.167c-.083.133-.148.224-.2.318-.492.889-.979 1.777-1.474 2.666-.286.511-.715.672-1.13.444a.8.8 0 0 1-.236-1.185q1.549-2.831 3.111-5.655a.791.791 0 0 1 1.49 0q3.5 6.355 6.992 12.717c.28.511.225.782-.249 1.241a11.109 11.109 0 0 0-3.075 5.27c-.03.113-.052.227-.09.394h.71a2.359 2.359 0 0 1 1.286 4.327.624.624 0 0 0-.207.444c-.013 1.96-.019 3.918 0 5.878a1.122 1.122 0 0 1-.555 1.109h-.47a1.11 1.11 0 0 1-.554-1.109c.018-1.841.007-3.681.007-5.522v-.4h-9.071v.444c0 1.826-.012 3.654 0 5.481a1.121 1.121 0 0 1-.555 1.109zm5.547-8.621h4.728a2.843 2.843 0 0 0 .39-.012.775.775 0 0 0 .013-1.541 1.962 1.962 0 0 0-.311-.013h-9.613a2.152 2.152 0 0 0-.311.012.775.775 0 0 0-.013 1.539 2.443 2.443 0 0 0 .39.015zm0-10.03a1.1 1.1 0 1 1 .012 0z" transform="translate(-339.99 -499.959)"/>
    <path id="Path_578" data-name="Path 578" class="cls-1" d="M370.556 565.665a.788.788 0 0 1-.776.77.775.775 0 0 1-.76-.781.785.785 0 0 1 .77-.775.8.8 0 0 1 .766.786z" transform="translate(-354.396 -548.262)"/>
</svg>
