<svg id="optimize" xmlns="http://www.w3.org/2000/svg" width="41.086" height="41.084" viewBox="0 0 41.086 41.084">
    <defs>
        <style>
            .cls-1{fill:#fcfcfc}
        </style>
    </defs>
    <path id="Path_585" data-name="Path 585" class="cls-1" d="M17.148-495.837a2.563 2.563 0 0 0-.616.445c-.582.616-.539-.847-.539 17.88s-.043 17.264.539 17.88c.6.625.342.608 6.265.608H28.1l1.327 1.335a14.007 14.007 0 0 0 1.532 1.412c.368.145.7-.06 1.635-.993a5.435 5.435 0 0 1 1.044-.9c.146 0 .154.12.154 1.455s.017 1.472.171 1.626.282.171 2.568.171 2.405-.009 2.568-.171.171-.282.171-1.626.009-1.455.154-1.455a4.888 4.888 0 0 1 1 .864c.89.9 1.215 1.121 1.592 1.044a8.378 8.378 0 0 0 1.583-1.4l1.361-1.361h5.307c5.923 0 5.666.017 6.265-.608.582-.616.539.847.539-17.9 0-16.348-.009-16.981-.163-17.315a2.21 2.21 0 0 0-1.053-1.019c-.282-.12-2.345-.137-19.344-.137-18.344.002-19.029.011-19.363.165zm38.046 1.3c.479.171.514.377.514 3.03v2.354H17.362v-2.347c0-2.593.034-2.825.462-3.013.223-.094 3.372-.111 18.676-.12 13.524.002 18.488.033 18.694.097zm.514 20.063c0 14.645.034 13.789-.514 13.986-.2.068-1.72.094-5.084.094h-4.8l-.873-.873a5.254 5.254 0 0 1-.882-1.027c0-.146.12-.154 1.455-.154s1.472-.017 1.626-.171.171-.282.171-2.568-.009-2.405-.171-2.568-.282-.171-1.626-.171-1.455-.009-1.455-.154a4.889 4.889 0 0 1 .864-1c.95-.95 1.138-1.224 1.061-1.575a23.816 23.816 0 0 0-3.48-3.476c-.342-.086-.625.111-1.575 1.061a4.888 4.888 0 0 1-1 .865c-.146 0-.154-.12-.154-1.455s-.017-1.472-.171-1.626-.282-.171-2.568-.171-2.405.009-2.568.171-.171.282-.171 1.626-.009 1.455-.154 1.455a4.888 4.888 0 0 1-1-.865c-.89-.9-1.241-1.13-1.592-1.044a24.452 24.452 0 0 0-3.458 3.458c-.077.351.111.625 1.061 1.575a4.888 4.888 0 0 1 .864 1c0 .146-.12.154-1.455.154s-1.472.017-1.626.171-.171.282-.171 2.568.009 2.405.171 2.568.282.171 1.626.171c1.327 0 1.455.017 1.455.146a4.889 4.889 0 0 1-.873 1.027l-.882.882h-4.8c-3.364 0-4.887-.026-5.084-.094-.548-.2-.514.659-.514-13.986v-13.31h38.346zm-17.8 1.729c0 1.258.009 1.352.188 1.541a.644.644 0 0 0 .265.2 5.369 5.369 0 0 1 .676.265 1.49 1.49 0 0 0 .822.205 5.7 5.7 0 0 0 1.13-.95l.907-.89.916.924.916.916-.856.856c-.933.933-1.1 1.19-.959 1.558.608 1.626.531 1.566 2.174 1.566h1.352v2.739h-1.347c-1.258 0-1.352.009-1.541.188a.644.644 0 0 0-.2.265 5.365 5.365 0 0 1-.265.676 1.491 1.491 0 0 0-.205.822 5.7 5.7 0 0 0 .95 1.13l.89.907-.924.916-.916.916-.856-.856c-.933-.933-1.19-1.1-1.558-.959-1.626.608-1.566.531-1.566 2.174v1.352h-2.736v-1.352c0-1.643.06-1.566-1.566-2.174-.368-.137-.625.026-1.558.959l-.856.856-.916-.916-.924-.916.89-.907a5.7 5.7 0 0 0 .95-1.13 1.491 1.491 0 0 0-.205-.822 6.167 6.167 0 0 1-.265-.668.837.837 0 0 0-.188-.265c-.18-.188-.231-.2-1.541-.2h-1.353v-2.739h1.344c1.258 0 1.352-.009 1.541-.188a.644.644 0 0 0 .2-.265 5.365 5.365 0 0 1 .265-.676 1.491 1.491 0 0 0 .205-.822 5.7 5.7 0 0 0-.95-1.13l-.89-.907.924-.916.916-.916.856.856c.933.933 1.19 1.1 1.558.959 1.626-.608 1.566-.531 1.566-2.174v-1.352H37.9z" transform="translate(-15.992 496)"/>
    <path id="Path_586" data-name="Path 586" class="cls-1" d="M193.155-471.837a1.982 1.982 0 0 0-1.155 1.908 1.937 1.937 0 0 0 .608 1.5c.608.573-.12.539 11.05.539 9.68 0 10.143-.009 10.468-.163a1.987 1.987 0 0 0 1.155-1.892 1.987 1.987 0 0 0-1.155-1.892c-.325-.154-.787-.163-10.485-.163s-10.16.009-10.486.163zm20.285 1.327a.612.612 0 0 1 .351.787c-.12.479.2.462-10.151.462s-10.031.017-10.151-.462a.616.616 0 0 1 .334-.779c.42-.18 19.177-.188 19.618-.009z" transform="translate(-176.935 474.054)"/>
    <path id="Path_587" data-name="Path 587" class="cls-1" d="M48.616-463.829a1.3 1.3 0 0 0-.616 1.2 1.26 1.26 0 0 0 1.369 1.369 1.26 1.26 0 0 0 1.369-1.369A1.26 1.26 0 0 0 49.369-464a1.384 1.384 0 0 0-.753.171z" transform="translate(-45.26 466.739)"/>
    <path id="Path_588" data-name="Path 588" class="cls-1" d="M96.616-463.829a1.3 1.3 0 0 0-.616 1.2 1.26 1.26 0 0 0 1.369 1.369 1.26 1.26 0 0 0 1.369-1.369A1.26 1.26 0 0 0 97.369-464a1.384 1.384 0 0 0-.753.171z" transform="translate(-89.152 466.739)"/>
    <path id="Path_589" data-name="Path 589" class="cls-1" d="M144.616-463.829a1.3 1.3 0 0 0-.616 1.2 1.26 1.26 0 0 0 1.369 1.369 1.26 1.26 0 0 0 1.369-1.369 1.26 1.26 0 0 0-1.369-1.371 1.384 1.384 0 0 0-.753.171z" transform="translate(-133.044 466.739)"/>
    <path id="Path_590" data-name="Path 590" class="cls-1" d="M103.94-375.715a6.347 6.347 0 0 0-2.491 1.4A3.794 3.794 0 0 1 99.3-373.2c-.368.051-3.826.086-8.876.086-8.183 0-8.285 0-8.756.18a2.8 2.8 0 0 0 0 5.118c.471.18.573.18 8.756.18 5.093 0 8.508.034 8.876.086a3.708 3.708 0 0 1 2.14 1.1 6.485 6.485 0 0 0 2.679 1.455 7.888 7.888 0 0 0 2.576-.034 5.771 5.771 0 0 0 3.415-2.576c.317-.616.342-.864.094-1.181l-.171-.223h-4.262l-.437-.642a6.075 6.075 0 0 1-.428-.7 5.344 5.344 0 0 1 .428-.736l.419-.659h4.28l.171-.223c.248-.317.223-.565-.094-1.181a5.771 5.771 0 0 0-3.415-2.576 8.054 8.054 0 0 0-2.755.011zm2.585 1.481a3.6 3.6 0 0 1 1.5.856l.257.265h-1.626a5.943 5.943 0 0 0-1.763.1 11.608 11.608 0 0 0-.873 1.224c-.976 1.464-.976 1.429 0 2.85a13.5 13.5 0 0 0 .873 1.19 5.427 5.427 0 0 0 1.763.111h1.626l-.257.265a4.1 4.1 0 0 1-4.631.539 9.35 9.35 0 0 1-1.061-.813 6.153 6.153 0 0 0-1.909-1.181c-.317-.12-1.25-.146-9.167-.18-8.7-.043-8.816-.043-9.116-.223a1.3 1.3 0 0 1 0-2.294c.3-.18.419-.18 9.116-.223 7.909-.043 8.85-.06 9.167-.18a6.251 6.251 0 0 0 1.9-1.173 4.563 4.563 0 0 1 1.8-1.138 4.676 4.676 0 0 1 2.401.005z" transform="translate(-74.521 386.123)"/>
    <path id="Path_591" data-name="Path 591" class="cls-1" d="M112.171-319.829a.7.7 0 0 0-.171.514c0 .548.205.685 1.027.685s1.027-.137 1.027-.685-.205-.685-1.027-.685c-.573 0-.71.026-.856.171z" transform="translate(-103.782 335.064)"/>
    <path id="Path_592" data-name="Path 592" class="cls-1" d="M144.171-319.829a.7.7 0 0 0-.171.514.7.7 0 0 0 .171.514c.171.171.282.171 5.307.171s5.136 0 5.307-.171a.7.7 0 0 0 .171-.514.7.7 0 0 0-.171-.514c-.171-.171-.282-.171-5.307-.171s-5.136 0-5.307.171z" transform="translate(-133.044 335.064)"/>
    <path id="Path_593" data-name="Path 593" class="cls-1" d="M280.171-319.829a.7.7 0 0 0-.171.514c0 .548.205.685 1.027.685s1.027-.137 1.027-.685-.205-.685-1.027-.685c-.573 0-.71.026-.856.171z" transform="translate(-257.403 335.064)"/>
    <path id="Path_594" data-name="Path 594" class="cls-1" d="M210.83-183.815a4.237 4.237 0 0 0-2.67 2.739 5.469 5.469 0 0 0 0 2.414 4.183 4.183 0 0 0 2.7 2.739 5.291 5.291 0 0 0 2.482.026 4.142 4.142 0 0 0 2.722-2.662 5.108 5.108 0 0 0 .043-2.516 4.183 4.183 0 0 0-2.7-2.739 5.25 5.25 0 0 0-2.577-.001zm2.371 1.506a2.615 2.615 0 0 1 1.292 1.173 1.981 1.981 0 0 1 .248 1.267 2.151 2.151 0 0 1-.728 1.883 2.323 2.323 0 0 1-1.763.753 1.922 1.922 0 0 1-1.164-.171 2.641 2.641 0 0 1-1.352-1.284 2.047 2.047 0 0 1-.257-1.181 2.047 2.047 0 0 1 .257-1.181 2.621 2.621 0 0 1 3.466-1.258z" transform="translate(-191.589 210.682)"/>
</svg>
