<svg xmlns="http://www.w3.org/2000/svg" width="43.343" height="43.322" viewBox="0 0 43.343 43.322">
    <defs>
        <style>
            .cls-1{fill:#fcfcfc}
        </style>
    </defs>
    <g id="planning_1_" data-name="planning (1)" transform="translate(0 511.75)">
        <path id="Path_595" data-name="Path 595" class="cls-1" d="M76.356-511.644a3.01 3.01 0 0 0-1.727 1.693l-.135.364-1.583.034c-1.558.025-1.592.025-1.93.254a1.683 1.683 0 0 0-.525.593c-.178.364-.178.466-.178 4.58v4.207l-1.837-.017-1.837-.025-.051-.254c-.144-.66-.533-.931-1.583-1.067l-.77-.1-.144-.533a9.166 9.166 0 0 0-.5-1.261l-.356-.728.457-.635c.8-1.092.72-1.617-.364-2.65-.974-.923-1.448-.957-2.514-.178l-.6.44-.813-.381a9.539 9.539 0 0 0-1.219-.491 1.319 1.319 0 0 1-.44-.161 7.51 7.51 0 0 1-.135-.686c-.212-1.422-.525-1.685-2.023-1.685-1.481 0-1.82.279-2.023 1.642a4.6 4.6 0 0 1-.135.728 1.319 1.319 0 0 1-.44.161 9.54 9.54 0 0 0-1.219.491l-.813.381-.6-.44c-1.067-.779-1.541-.745-2.514.178-.669.643-.889 1-.889 1.456 0 .423.11.66.576 1.278l.415.542-.364.736a9.168 9.168 0 0 0-.5 1.261l-.144.533-.77.1c-.863.11-1.2.279-1.456.7-.144.237-.169.432-.169 1.3 0 1.481.229 1.8 1.431 1.989.33.051.677.11.77.127.135.025.229.186.372.652a11.189 11.189 0 0 0 .483 1.185 3.631 3.631 0 0 1 .288.669 3.283 3.283 0 0 1-.44.686 1.764 1.764 0 0 0-.474 1.033c-.051.593.076.8.9 1.592.576.55.737.652 1.058.7.449.068.847-.093 1.592-.635l.466-.339.466.245a9.444 9.444 0 0 0 1.244.516 3.631 3.631 0 0 1 .779.33c0 .025.051.381.119.787.212 1.278.508 1.507 2 1.507s1.786-.229 2-1.507c.068-.406.119-.762.119-.787a3.586 3.586 0 0 1 .787-.33 10.341 10.341 0 0 0 1.236-.516 1.062 1.062 0 0 1 .55-.186c.051.034.288.2.516.381a1.887 1.887 0 0 0 1.465.533c.322-.051.474-.152 1.084-.737.77-.737.923-1.041.855-1.642a1.969 1.969 0 0 0-.5-.99l-.466-.618.271-.542c.152-.3.381-.855.516-1.228s.245-.694.254-.711a5.657 5.657 0 0 1 .753-.144 4.355 4.355 0 0 0 .982-.254 1.21 1.21 0 0 0 .584-.863v-.186h3.725v4.148c0 3.547.017 4.2.127 4.461.347.821.694.957 2.582.957h1.49l.11.322a2.962 2.962 0 0 0 3.488 1.845 2.848 2.848 0 0 0 2.21-2.828 2.834 2.834 0 0 0-1.778-2.751 3.239 3.239 0 0 0-2.37.059 3.093 3.093 0 0 0-1.507 1.575l-.152.423-1.405-.017-1.4-.025-.025-4.089-.017-4.08h2.844l.195.474a3.2 3.2 0 0 0 1.405 1.473 3.435 3.435 0 0 0 2.345.085 2.95 2.95 0 0 0 1.829-2.243 2.949 2.949 0 0 0-1.659-3.183 3.577 3.577 0 0 0-2.413-.017 3.1 3.1 0 0 0-1.6 1.735l-.093.322h-2.863v-4.047a27.7 27.7 0 0 1 .1-4.148 4.3 4.3 0 0 1 1.422-.1h1.329l.093.33a3.336 3.336 0 0 0 .423.753 2.937 2.937 0 0 0 5.266-1.278 2.94 2.94 0 0 0-.8-2.5 2.441 2.441 0 0 0-2-.838 3.058 3.058 0 0 0-1.109.105zm1.6 1.321a1.7 1.7 0 0 1 .508.347 1.563 1.563 0 0 1-.245 2.413 1.265 1.265 0 0 1-.88.237 1.039 1.039 0 0 1-.855-.262 1.665 1.665 0 0 1-.677-1.405 1.617 1.617 0 0 1 .8-1.244 1.92 1.92 0 0 1 1.349-.087zm-21.782 1.575c.025.135.085.542.135.914.119.838.237 1.024.694 1.143a9.6 9.6 0 0 1 2.286.9c.9.508 1.024.5 1.947-.195l.762-.559.406.415.415.415-.542.728a5.8 5.8 0 0 0-.593.931c-.034.144.11.508.491 1.261a8.884 8.884 0 0 1 .686 1.71 2.251 2.251 0 0 0 .3.787 3.249 3.249 0 0 0 1.117.279l.957.152.025.593.025.593-.948.144a4.508 4.508 0 0 0-1.143.271c-.135.085-.22.271-.288.609a8.381 8.381 0 0 1-.931 2.3 2.574 2.574 0 0 0-.339.745 4.025 4.025 0 0 0 .584.974l.584.8-.406.406c-.279.271-.44.381-.525.33a21.726 21.726 0 0 1-.77-.559c-.737-.542-1.016-.609-1.414-.322a9.336 9.336 0 0 1-2.328 1.016 2.138 2.138 0 0 0-.813.33 3.079 3.079 0 0 0-.237.906c-.178 1.236-.11 1.134-.77 1.134s-.593.1-.77-1.134a3.08 3.08 0 0 0-.237-.906 2.138 2.138 0 0 0-.813-.33 9.336 9.336 0 0 1-2.328-1.016c-.4-.288-.677-.22-1.414.322-.364.271-.711.525-.77.559-.085.051-.245-.059-.525-.33l-.406-.406.533-.728a5.022 5.022 0 0 0 .593-.957c.042-.178-.034-.389-.364-.974a8.8 8.8 0 0 1-.906-2.243.974.974 0 0 0-.3-.576 6.561 6.561 0 0 0-1.1-.229l-.94-.144.025-.593.025-.593.957-.152a3.257 3.257 0 0 0 1.126-.279 1.654 1.654 0 0 0 .254-.626 8.356 8.356 0 0 1 .923-2.277c.271-.466.339-.669.3-.83a5.772 5.772 0 0 0-.6-.957l-.542-.728.415-.415.406-.415.762.559c.931.694 1.05.711 1.939.186a9.271 9.271 0 0 1 2.294-.889c.457-.118.576-.3.694-1.143.169-1.253.1-1.143.762-1.143.581.006.598.015.64.235zm21.858 8.059a1.534 1.534 0 0 1 .838 1.812 1.548 1.548 0 0 1-2.345.914 1.514 1.514 0 0 1-.3-2.362 1.508 1.508 0 0 1 1.807-.365zm.068 9.617a1.541 1.541 0 0 1 .813 1.371 1.365 1.365 0 0 1-.542 1.194 1.458 1.458 0 0 1-1.922.085 1.562 1.562 0 0 1 .3-2.709 1.545 1.545 0 0 1 1.351.058z" transform="translate(-40.733)"/>
        <path id="Path_596" data-name="Path 596" class="cls-1" d="M121.6-420.606a4.821 4.821 0 0 0-3.6 4.741 4.9 4.9 0 0 0 3.513 4.588c1.109.322 3.039.093 3.564-.432a.628.628 0 0 0-.008-.931c-.254-.263-.457-.263-1.1-.034a3.465 3.465 0 0 1-4.5-4.072 3.385 3.385 0 0 1 3.141-2.607 3.15 3.15 0 0 1 2.125.567 3.427 3.427 0 0 1 1.532 2.675 2.28 2.28 0 0 1-.186 1.227c-.322.914-.347 1.1-.127 1.38a.674.674 0 0 0 .948.076 4.3 4.3 0 0 0 .745-2.438 4.837 4.837 0 0 0-3.1-4.571 3.764 3.764 0 0 0-1.558-.254 5.061 5.061 0 0 0-1.389.085z" transform="translate(-108.01 -83.344)"/>
        <path id="Path_597" data-name="Path 597" class="cls-1" d="M135-215.775c-.144.051-2.091 1.058-4.343 2.243l-4.1 2.15-.66-.212a12.525 12.525 0 0 0-4.2-.6 10.858 10.858 0 0 0-3.6.432c-.779.229-1.1.474-1.1.847a.607.607 0 0 0 .415.626.794.794 0 0 0 .66-.034 12.573 12.573 0 0 1 4.9-.483 15.979 15.979 0 0 1 3.022.694c.381.152.694.161 4.825.161 4.038 0 4.444.017 4.715.152a1.036 1.036 0 0 1 .017 1.829c-.135.068-2.489.4-5.731.813-3.547.449-5.57.737-5.689.813a.684.684 0 0 0 0 1.084 19.529 19.529 0 0 0 2.768.449 27.94 27.94 0 0 0 4.741.322 17.483 17.483 0 0 0 5.274-.626c2.142-.559 3.479-1.168 7.763-3.564a31.774 31.774 0 0 1 3.225-1.668 1.109 1.109 0 0 1 1.007.457 1.207 1.207 0 0 1-.085 1.338c-.119.118-1.642 1-3.4 1.956s-3.242 1.812-3.285 1.9a.687.687 0 0 0 .55 1.016 60.854 60.854 0 0 0 7.018-3.8 2.283 2.283 0 0 0 .728-1.795 2.236 2.236 0 0 0-.821-1.845 2.382 2.382 0 0 0-1.862-.593l-.643.034-.11-.389a2.389 2.389 0 0 0-1.227-1.346 1.956 1.956 0 0 0-1.016-.152 2.819 2.819 0 0 0-1.431.483c-.872.449-1.007.466-1.016.11a2.378 2.378 0 0 0-.643-1.067 2.2 2.2 0 0 0-1.566-.559 2.39 2.39 0 0 0-1.3.406l-.8.415-.042-.33a2.242 2.242 0 0 0-1.388-1.642 3.236 3.236 0 0 0-1.57-.025zm1.16 1.346a.941.941 0 0 1 .313 1.363 10.136 10.136 0 0 1-1.6.99l-1.439.77-1.989-.017-1.989-.025 3.022-1.583a29.768 29.768 0 0 1 3.259-1.591 1.11 1.11 0 0 1 .42.093zm4.563 1.422a.779.779 0 0 1 .076 1.143 36.668 36.668 0 0 1-3.5 1.913 1.416 1.416 0 0 1-.271-.347 2.512 2.512 0 0 0-.61-.584c-.271-.169-.347-.262-.271-.3.059-.042.931-.516 1.93-1.067 2.023-1.105 2.195-1.151 2.643-.758zm4.656.94a.835.835 0 0 1 .322.965c-.11.347-.127.364-3.175 2.049a27.538 27.538 0 0 1-4.69 2.226 17.108 17.108 0 0 1-5.807.982l-1.778.034 2.777-.364c3.081-.415 3.293-.483 3.852-1.109a2.717 2.717 0 0 0 .457-.77l.127-.389 3.589-1.9a31.309 31.309 0 0 1 3.852-1.9.871.871 0 0 1 .471.176z" transform="translate(-107.095 -270.837)"/>
        <path id="Path_598" data-name="Path 598" class="cls-1" d="M7.56-153.16c-.313.169-1.016.593-1.549.948l-.974.652-2.336.042c-2.15.042-2.362.059-2.523.2C0-151.154 0-151.12 0-146.6v4.554l.22.169c.22.169.322.178 2.734.178a83.383 83.383 0 0 1 9.574.635c4.444.4 7.484.635 8.186.635 2.48 0 4.885-.694 8.33-2.421 1.8-.9 4.639-2.455 4.859-2.667a.749.749 0 0 0 0-.923c-.313-.347-.61-.245-2.743.923a36.614 36.614 0 0 1-6.4 3 11.06 11.06 0 0 1-3.725.7c-1.117.042-2.1-.025-8.381-.593a90.453 90.453 0 0 0-9.21-.643h-2.09v-7.111h4.157l.821-.593c.449-.322 1.143-.77 1.541-.99a6.125 6.125 0 0 0 .863-.559.762.762 0 0 0 .008-.889c-.27-.305-.549-.296-1.184.035z" transform="translate(0 -328)"/>
    </g>
</svg>
