<svg xmlns="http://www.w3.org/2000/svg" width="48.205" height="44.504" viewBox="0 0 48.205 44.504">
    <path d="M3349.529 955.157a3.568 3.568 0 0 1-1.1-6.536 22.554 22.554 0 0 0-.19-4.623c-.1-.985-.191-1.87-.191-2.464a.973.973 0 0 1 .028-.135.9.9 0 0 1 .04-.192 1.558 1.558 0 0 1 .192-.323 1.026 1.026 0 0 1 .149-.128.986.986 0 0 1 .155-.1 128.466 128.466 0 0 1 .325-.107c7.8-.954 19.191-3.452 20.1-6.024a1.008 1.008 0 0 1 .8-.658 1.023 1.023 0 0 1 .969.391c2 2.633 5.984 6.559 8.193 5.867a.911.911 0 0 1 .155-.016.982.982 0 0 1 .153-.031c.015 0 .03.008.045.009a1 1 0 0 1 .2.04.985.985 0 0 1 .186.054.959.959 0 0 1 .145.1.979.979 0 0 1 .165.127 1.034 1.034 0 0 1 .1.142.982.982 0 0 1 .106.186c.005.014.017.024.022.04a1 1 0 0 1 .017.154.928.928 0 0 1 .031.147v.091c-.01.681-.135 1.684-.281 2.848a27.466 27.466 0 0 0-.351 4.616 3.642 3.642 0 0 1 1.159 1.184 3.5 3.5 0 0 1 2.147 1.561 5.366 5.366 0 0 1 .142 4.824c-1.154 2.9-3.7 4.186-7.1 4.774-3 4.1-7.964 7.015-11.98 7.015-5.16-.006-13.407-5.682-14.531-12.833zm.6-12.758c.033.422.079.886.132 1.4.216 2.077.46 4.434.022 5.785a1 1 0 0 1-.553.606 1.615 1.615 0 0 0 .673 3.1 1.048 1.048 0 0 1 1.056.914c.513 6.4 8.1 11.793 12.6 11.793 2.712 0 6.413-1.843 9.11-4.683-1.3.093-2.7.127-4.159.142a2.661 2.661 0 0 1-2.388 1.39h-.671a2.383 2.383 0 1 1 0-4.738h.671a2.662 2.662 0 0 1 2.364 1.359 51.324 51.324 0 0 0 5.9-.332 10.745 10.745 0 0 0 1.77-4.931 1.037 1.037 0 0 1 1.082-.914 1.615 1.615 0 0 0 .646-3.1 1 1 0 0 1-.545-.582c-.376-1.066-.16-3.092.189-5.84.071-.57.14-1.119.191-1.6-3.146-.205-6.586-3.784-8.183-5.67-3.636 3.474-15.665 5.339-19.909 5.902zm15.207 18.078c0 .181.261.382.612.382h.671c.349 0 .61-.2.61-.382s-.261-.382-.61-.382h-.671c-.353.005-.614.205-.614.382zm13.243-5.3a12.3 12.3 0 0 1-1.114 3.427 5.349 5.349 0 0 0 3.785-3.131 3.47 3.47 0 0 0 .016-3.063 3.619 3.619 0 0 1-2.689 2.767zm-2.375 9.884a1 1 0 0 1-.913-1.084 1.013 1.013 0 0 1 1.107-.895c3.68.34 6.345-.468 7.937-2.408 2.967-3.611 2.627-11.342-.982-22.357-4.471-13.661-14.687-12.255-15.125-12.189a1.072 1.072 0 0 1-.421-.022c-.094-.022-9.127-2.312-16.134 2.06-4.133 2.581-6.787 6.984-7.89 13.086-2.164 11.973-2.127 18.071.119 20.393 1.313 1.359 3.6 1.7 7.906 1.189a1.008 1.008 0 0 1 1.13.866 1 1 0 0 1-.883 1.106c-3.671.442-7.38.526-9.624-1.793-2.813-2.908-2.994-9.106-.645-22.107 1.207-6.68 4.173-11.534 8.812-14.425 7.259-4.523 16.085-2.689 17.539-2.342 1.73-.175 12.51-.6 17.15 13.569 3.881 11.849 4.093 19.994.63 24.21-1.763 2.146-4.425 3.227-7.932 3.227a18.399 18.399 0 0 1-1.785-.084zm-15.751-3.59a.994.994 0 1 1 0-1.987h1.371a.994.994 0 1 1 0 1.987zm7.885-11.615a.994.994 0 1 1 0-1.987h1.948a.994.994 0 1 1 0 1.987zm-10.11 0a.994.994 0 1 1 0-1.987h1.949a.994.994 0 1 1 0 1.987z" transform="translate(-3340.157 -923.48)" style="fill:#0e497b"/>
</svg>
