<svg xmlns="http://www.w3.org/2000/svg" width="30" height="30" viewBox="0 0 45.635 45.635">
  <path id="Icon_awesome-phone-alt" data-name="Icon awesome-phone-alt" d="M44.333,32.248,34.351,27.97a2.139,2.139,0,0,0-2.5.615l-4.421,5.4A33.038,33.038,0,0,1,11.641,18.193l5.4-4.421a2.134,2.134,0,0,0,.615-2.5L13.379,1.293A2.153,2.153,0,0,0,10.928.054L1.658,2.193A2.139,2.139,0,0,0,0,4.278,41.353,41.353,0,0,0,41.357,45.636a2.139,2.139,0,0,0,2.086-1.658l2.139-9.27A2.165,2.165,0,0,0,44.333,32.248Z" transform="translate(0 0)"/>
</svg>
