<svg xmlns="http://www.w3.org/2000/svg" width="199.754" height="174" viewBox="0 0 199.754 174">
    <defs>
        <linearGradient id="linear-gradient" x1=".971" y1=".5" x2="0" y2=".5" gradientUnits="objectBoundingBox">
            <stop offset="0" stop-color="#f2ebeb"/>
            <stop offset="1" stop-color="#fff"/>
        </linearGradient>
        <linearGradient id="linear-gradient-2" x1="1" y1=".5" x2=".014" y2=".5" gradientUnits="objectBoundingBox">
            <stop offset="0" stop-color="#0e497b"/>
            <stop offset="1" stop-color="#69a4d5"/>
        </linearGradient>
        <linearGradient id="linear-gradient-4" x1="-.106" x2="1.253" y2="1.083" gradientUnits="objectBoundingBox">
            <stop offset="0" stop-color="#e5e5e5"/>
            <stop offset="1" stop-color="#d9d9d9"/>
        </linearGradient>
        <linearGradient id="linear-gradient-5" x1="-.106" x2="1.253" y2="1.083" gradientUnits="objectBoundingBox">
            <stop offset="0" stop-color="#e5e5e5"/>
            <stop offset="1" stop-color="#d8d8d8"/>
        </linearGradient>
        <linearGradient id="linear-gradient-6" x1=".971" y1=".5" x2="0" y2=".5" gradientUnits="objectBoundingBox">
            <stop offset="0" stop-color="#fff"/>
            <stop offset="1" stop-color="#d8d8d8"/>
        </linearGradient>
        <linearGradient id="linear-gradient-7" x1="1" y1=".5" x2=".014" y2=".5" gradientUnits="objectBoundingBox">
            <stop offset="0" stop-color="#0e497b"/>
            <stop offset="1" stop-color="#408ed1"/>
        </linearGradient>
        <linearGradient id="linear-gradient-8" x1="-.106" x2="1.253" y2="1.083" gradientUnits="objectBoundingBox">
            <stop offset="0" stop-color="#0e497b"/>
            <stop offset=".958" stop-color="#3878af"/>
            <stop offset="1" stop-color="#c9a044"/>
        </linearGradient>
        <clipPath id="clip-path">
            <path id="Mask" class="cls-1" d="M0 2a2 2 0 0 1 2-2h67.431l32.4 33.064v77.494a2 2 0 0 1-2 2H2a2 2 0 0 1-2-2z"/>
        </clipPath>
        <clipPath id="clip-path-2">
            <path id="Mask-2" data-name="Mask" d="M0 2a2 2 0 0 1 2-2h39.729L61.2 20.269V67a2 2 0 0 1-2 2H2a2 2 0 0 1-2-2z" style="fill:url(#linear-gradient-2)"/>
        </clipPath>
        <style>
            .cls-1{fill:url(#linear-gradient)}.cls-6{fill:url(#linear-gradient-6)}.cls-7{fill:#0e497b}.cls-10,.cls-11,.cls-8,.cls-9{fill:#fff}.cls-9{opacity:.299}.cls-10{opacity:.304}.cls-11{opacity:.299}
        </style>
    </defs>
    <g id="Group_21" data-name="Group 21" transform="translate(-.246)">
        <g id="Group_19" data-name="Group 19" transform="translate(56.831 2)">
            <g id="Group_20" data-name="Group 20" transform="rotate(4.01 -381.297 352.47)">
                <g id="Rectangle">
                    <path id="Mask-3" data-name="Mask" class="cls-1" d="M0 2a2 2 0 0 1 2-2h67.431l32.4 33.064v77.494a2 2 0 0 1-2 2H2a2 2 0 0 1-2-2z"/>
                    <g id="Rectangle-2" data-name="Rectangle" style="clip-path:url(#clip-path)">
                        <rect id="Rectangle-3" data-name="Rectangle" width="40.116" height="30.953" rx="2" style="opacity:.343;fill:url(#linear-gradient-4)"/>
                        <path id="Rectangle-4" data-name="Rectangle" d="M0 0h32.4v27.436L3.839 20.614A5 5 0 0 1 0 15.751z" transform="translate(69.431 18.291)" style="fill:url(#linear-gradient-5)"/>
                    </g>
                </g>
                <path id="Path_22" data-name="Path 22" class="cls-6" d="m0 0 32.4 33.064V2a2 2 0 0 0-2-2z" transform="rotate(180 50.916 16.532)"/>
                <path id="Rectangle-5" data-name="Rectangle" class="cls-7" transform="translate(18.515 49.244)" d="M0 0h52.459v7.035H0z"/>
                <path id="Rectangle_Copy_12" data-name="Rectangle Copy 12" class="cls-7" transform="translate(18.515 67.535)" d="M0 0h46.995v7.035H0z"/>
                <path id="Rectangle_Copy_13" data-name="Rectangle Copy 13" class="cls-7" transform="translate(18.515 85.826)" d="M0 0h64.802v7.035H0z"/>
            </g>
            <g id="Group_17" data-name="Group 17" transform="rotate(4.01 .878 58.098)">
                <rect id="Rectangle-6" data-name="Rectangle" class="cls-7" width="56.831" height="52" rx="2"/>
                <path id="Combined_Shape" data-name="Combined Shape" class="cls-8" d="M11.307 37a1 1 0 0 1-1-1v-1.176H8.92a1 1 0 0 1-1-1v-2.308a10.909 10.909 0 0 1 4.773-20.633 10.909 10.909 0 0 1 4.773 20.633v2.308a1 1 0 0 1-1 1H15.08V36a1 1 0 0 1-1 1zm8.907-26.612-.945-.862a.5.5 0 0 1 0-.739l4.32-3.941a.5.5 0 0 1 .674 0l.945.863a.5.5 0 0 1 0 .739l-4.32 3.94a.5.5 0 0 1-.674 0zm-15.717 0L.177 6.449a.5.5 0 0 1 0-.739l.946-.863a.5.5 0 0 1 .673 0l4.321 3.941a.5.5 0 0 1 0 .739l-.946.862a.5.5 0 0 1-.674 0zM12 8.706a.5.5 0 0 1-.5-.5V.5A.5.5 0 0 1 12 0h1.386a.5.5 0 0 1 .5.5v7.706a.5.5 0 0 1-.5.5z" transform="translate(16.269 6)"/>
            </g>
        </g>
        <path id="Oval" class="cls-9" d="M0 9c0-4.971 4.4-9 9.836-9s9.836 4.029 9.836 9-4.4 9-9.836 9S0 13.971 0 9z" transform="translate(180.328 156)"/>
        <g id="Group_18" data-name="Group 18" transform="translate(140.984)">
            <path id="Oval_Copy_3" data-name="Oval Copy 3" class="cls-9" d="M0 5a5.247 5.247 0 0 1 5.465-5 5.247 5.247 0 0 1 5.464 5 5.247 5.247 0 0 1-5.464 5A5.247 5.247 0 0 1 0 5z" transform="translate(0 5)"/>
            <path id="Rectangle_Copy_3" data-name="Rectangle Copy 3" class="cls-10" d="m0 0 10.929 10H0z" transform="translate(25.137)"/>
            <path id="Combined_Shape_Copy" data-name="Combined Shape Copy" class="cls-11" d="M4.918 10.814V8.5H2a2 2 0 0 1 0-4h2.918V2.186a2.186 2.186 0 0 1 4.372 0V4.5h2.918a2 2 0 0 1 0 4H9.29v2.315a2.186 2.186 0 0 1-4.372 0z" transform="rotate(24 -17.572 86.927)"/>
        </g>
        <path id="Oval_Copy" data-name="Oval Copy" class="cls-9" d="M0 5a5.247 5.247 0 0 1 5.465-5 5.247 5.247 0 0 1 5.464 5 5.247 5.247 0 0 1-5.464 5A5.247 5.247 0 0 1 0 5z" transform="translate(16.393 34)"/>
        <path id="Rectangle-7" data-name="Rectangle" class="cls-10" transform="translate(184.699 135)" d="M0 0h10.929v10H0z"/>
        <ellipse id="Oval-2" data-name="Oval" class="cls-10" cx="5.464" cy="5" rx="5.464" ry="5" transform="translate(7.65 21)"/>
        <ellipse id="Oval_Copy_2" data-name="Oval Copy 2" class="cls-10" cx="5.464" cy="5" rx="5.464" ry="5" transform="translate(159.563 156)"/>
        <path id="Combined_Shape-2" data-name="Combined Shape" class="cls-11" d="M4.918 10.814V8.5H2a2 2 0 0 1 0-4h2.918V2.186a2.186 2.186 0 0 1 4.372 0V4.5h2.918a2 2 0 0 1 0 4H9.29v2.315a2.186 2.186 0 0 1-4.372 0z" transform="rotate(24 -364.598 91.103)"/>
        <path id="Combined_Shape_Copy_2" data-name="Combined Shape Copy 2" class="cls-11" d="M3.825 8.361V6.5H1.5a1.5 1.5 0 1 1 0-3h2.325V1.639a1.639 1.639 0 0 1 3.279 0V3.5h2.325a1.5 1.5 0 0 1 0 3H7.1v1.861a1.639 1.639 0 0 1-3.279 0z" transform="rotate(24 -313.32 95.809)"/>
        <g id="Group_19_Copy" data-name="Group 19 Copy" transform="rotate(-14.98 412.382 -20.907)">
            <g id="Group_20-2" data-name="Group 20">
                <g id="Rectangle-8" data-name="Rectangle">
                    <path id="Mask-4" data-name="Mask" d="M0 2a2 2 0 0 1 2-2h39.729L61.2 20.269V67a2 2 0 0 1-2 2H2a2 2 0 0 1-2-2z" style="fill:url(#linear-gradient-7)"/>
                    <g id="Rectangle-9" data-name="Rectangle" style="clip-path:url(#clip-path-2)">
                        <path id="Rectangle-10" data-name="Rectangle" d="M0 0h19.473v16.819L3.817 13A5 5 0 0 1 0 8.147z" transform="translate(41.729 11.212)" style="fill:url(#linear-gradient-8)"/>
                    </g>
                </g>
                <path id="Rectangle-11" data-name="Rectangle" class="cls-8" transform="translate(9.18 18.306)" d="M0 0h9.18v39.429H0z"/>
                <path id="Rectangle_Copy_17" data-name="Rectangle Copy 17" class="cls-8" transform="translate(26.011 39.429)" d="M0 0h9.18v18.306H0z"/>
                <path id="Rectangle_Copy_18" data-name="Rectangle Copy 18" class="cls-8" transform="translate(42.842 33.796)" d="M0 0h9.18v23.939H0z"/>
                <path id="Path_22-2" data-name="Path 22" class="cls-6" d="m0 0 19.473 20.269V2a2 2 0 0 0-2-2z" transform="rotate(180 30.601 10.135)"/>
            </g>
        </g>
    </g>
</svg>
