<svg xmlns="http://www.w3.org/2000/svg" width="217.802" height="177.904" viewBox="0 0 217.802 177.904">
    <defs>
        <linearGradient id="linear-gradient" x1=".5" y1=".215" x2=".5" y2=".725" gradientUnits="objectBoundingBox">
            <stop offset="0" stop-color="#0e497b"/>
            <stop offset="1" stop-color="#39709f"/>
        </linearGradient>
        <clipPath id="clip-path">
            <path id="Mask" class="cls-1" transform="translate(.012)" d="M0 0h110v73H0z"/>
        </clipPath>
        <style>
            .cls-1{fill:#0e497b}.cls-10,.cls-3,.cls-9{fill:#fff}.cls-4{fill:#cee4da}.cls-9{opacity:.299}.cls-10{opacity:.304}
        </style>
    </defs>
    <g id="Group_15" data-name="Group 15" transform="translate(-5.198 -7.096)">
        <g id="Group_12" data-name="Group 12" transform="translate(32 30)">
            <rect id="Rectangle" width="130" height="122" rx="2" style="fill:#f4f8f6"/>
            <rect id="Rectangle-2" data-name="Rectangle" class="cls-3" width="93" height="5" rx="2.5" transform="translate(19 82)"/>
            <rect id="Rectangle_Copy_9" data-name="Rectangle Copy 9" class="cls-3" width="54" height="5" rx="2.5" transform="translate(19 99)"/>
            <rect id="Rectangle-3" data-name="Rectangle" class="cls-3" width="105" height="51" rx="2" transform="translate(13 17)"/>
            <path id="Path_2" data-name="Path 2" class="cls-4" d="M2.125 18a1 1 0 0 1-.77-1.638l9.884-11.945a1 1 0 0 1 1.452-.094l7.733 7.209a1 1 0 0 0 1.438-.077L31.01.884a1 1 0 0 1 1.52.009l13.078 15.461A1 1 0 0 1 44.844 18z" transform="translate(65 34)"/>
            <rect id="Rectangle-4" data-name="Rectangle" width="37" height="41" rx="2" transform="translate(19 22)" style="fill:#3282c6"/>
            <rect id="Rectangle-5" data-name="Rectangle" width="6" height="5" rx="2.5" transform="translate(13 6)" style="fill:#06c66c"/>
            <rect id="Rectangle_Copy_4" data-name="Rectangle Copy 4" width="6" height="5" rx="2.5" transform="translate(22 6)" style="fill:#f7b500"/>
            <rect id="Rectangle_Copy_7" data-name="Rectangle Copy 7" width="6" height="5" rx="2.5" transform="translate(31 6)" style="fill:#ee5b5a"/>
            <rect id="Rectangle_Copy_8" data-name="Rectangle Copy 8" class="cls-4" width="64" height="5" rx="2.5" transform="translate(45 6)"/>
            <path id="Path_24" data-name="Path 24" class="cls-3" d="M19.505.671a2 2 0 0 1 3.1 2.524l-.109.134-12 13.5a2 2 0 0 1-2.783.2l-.126-.116-7-7a2 2 0 0 1 2.7-2.945l.127.117 5.5 5.5z" transform="translate(27 34)"/>
        </g>
        <g id="Group_18" data-name="Group 18" transform="rotate(-74.99 28.52 21.497)">
            <path id="Oval_Copy_3" data-name="Oval Copy 3" class="cls-9" d="M0 5a5 5 0 1 1 5 5 5 5 0 0 1-5-5z" transform="translate(0 5)"/>
            <path id="Rectangle_Copy_3" data-name="Rectangle Copy 3" class="cls-10" d="m0 0 10 10H0z" transform="translate(23)"/>
            <path id="Combined_Shape_Copy" data-name="Combined Shape Copy" d="M4.5 11V8.5H2a2 2 0 0 1 0-4h2.5V2a2 2 0 0 1 4 0v2.5H11a2 2 0 0 1 0 4H8.5V11a2 2 0 0 1-4 0z" transform="rotate(24 -19.474 80.813)" style="opacity:.299;fill:#fff"/>
        </g>
        <g id="Group_16" data-name="Group 16" transform="rotate(-90 132 -52)">
            <path id="Oval" class="cls-9" d="M0 9a9 9 0 1 1 9 9 9 9 0 0 1-9-9z" transform="translate(19 21)"/>
            <path id="Rectangle-6" data-name="Rectangle" class="cls-10" transform="translate(23)" d="M0 0h10v10H0z"/>
            <circle id="Oval_Copy_2" data-name="Oval Copy 2" class="cls-10" cx="5" cy="5" r="5" transform="translate(0 21)"/>
        </g>
        <g id="Group_13" data-name="Group 13" transform="translate(8 123)">
            <circle id="Oval-2" data-name="Oval" class="cls-1" cx="24" cy="24" r="24"/>
            <path id="Path_24-2" data-name="Path 24" class="cls-3" d="M19.505.671a2 2 0 0 1 3.1 2.524l-.109.134-12 13.5a2 2 0 0 1-2.783.2l-.126-.116-7-7a2 2 0 0 1 2.7-2.945l.127.117 5.5 5.5z" transform="translate(12 15)"/>
        </g>
        <g id="Group_14" data-name="Group 14" transform="translate(83 112)">
            <g id="Path_26" data-name="Path 26">
                <path id="Mask-2" data-name="Mask" class="cls-1" transform="translate(.012)" d="M0 0h110v73H0z"/>
                <g id="Path_26-2" data-name="Path 26" style="clip-path:url(#clip-path)">
                    <path id="Path_26-3" data-name="Path 26" d="M4.41 49.521s6-28 15-36.5 15-4.5 22 9.5 19 .5 23.5-11 3-16.5 18-5 21.5 11 29.5 8 6.5 34.5 6.5 43.5-96 10-110.5 10-4-18.5-4-18.5z" transform="translate(-.398 23.479)" style="fill:url(#linear-gradient)"/>
                </g>
            </g>
            <path id="Path_25" data-name="Path 25" class="cls-3" d="M119.885 1.609a2.689 2.689 0 0 1 3.431-1.434 2.5 2.5 0 0 1 1.5 3.278C118.1 19.859 107.68 28.337 93.75 28.337c-6.387 0-11.59-2.676-18.418-8.25l-4.881-4.02c-4.3-3.513-4.493-3.46-6.072-3.711-2.047-.325-4.172 1.855-6.646 8.807l-.135.384c-3.355 9.615-6.854 15.623-10.855 18.138-4.723 2.968-9.548 1.1-13.747-4.556l-.359-.493-.1-.219c-4.875-10.558-9.825-15-14.607-14.214-4.981.819-9.4 7.3-12.711 19.882A2.659 2.659 0 0 1 2 41.923a2.524 2.524 0 0 1-1.919-3.071C3.857 24.508 9.327 16.484 17.03 15.218s14.261 4.412 19.907 16.214l.338.718.054.072c2.649 3.585 4.55 4.371 6.372 3.315l.13-.079c2.653-1.668 5.619-6.7 8.562-15l.18-.512C55.832 10.6 59.761 6.493 65.247 7.364a14.915 14.915 0 0 1 6.331 3l.392.288c.669.5 1.352 1.037 2.167 1.706l4.2 3.521.829.677c5.731 4.62 9.91 6.716 14.582 6.716 11.495.005 20.145-7.035 26.137-21.663z" transform="translate(8.012 14)"/>
            <circle id="Oval-3" data-name="Oval" class="cls-3" cx="7" cy="7" r="7" transform="translate(125.012 8)"/>
        </g>
    </g>
</svg>
